<?xml version="1.0" standalone="no"?>
<!DOCTYPE svg PUBLIC "-//W3C//DTD SVG 1.1//EN" "http://www.w3.org/Graphics/SVG/1.1/DTD/svg11.dtd" >
<svg xmlns="http://www.w3.org/2000/svg" xmlns:xlink="http://www.w3.org/1999/xlink" version="1.1">
<metadata>
Created by FontForge 20170731 at Wed May 31 05:48:23 2017
 By Aleksey,,,
(c) 2015-2017 Apple Inc. All rights reserved.
</metadata>
<defs>
<font id="SFProText-HeavyItalic" horiz-adv-x="0" >
  <font-face 
    font-family="SF Pro Text"
    font-weight="800"
    font-style="italic"
    font-stretch="normal"
    units-per-em="2048"
    panose-1="0 0 9 0 0 0 0 0 0 0"
    ascent="1638"
    descent="-410"
    x-height="1113"
    cap-height="1443"
    bbox="-633 -569 3047 2255"
    underline-thickness="227"
    underline-position="-829"
    slope="-12"
    unicode-range="U+0020-FB02"
  />
<missing-glyph horiz-adv-x="2048" 
d="M-88 -494l35 165h1848l-35 -165h-1848zM9 -38l35 165h1848l-35 -165h-1848zM106 418l35 165h1848l-35 -165h-1848zM203 873l35 165h1848l-35 -165h-1848zM300 1329l35 165h1848l-35 -165h-1848zM397 1785l35 165h1848l-35 -165h-1848z" />
    <glyph glyph-name=".notdef" horiz-adv-x="2048" 
d="M-88 -494l35 165h1848l-35 -165h-1848zM9 -38l35 165h1848l-35 -165h-1848zM106 418l35 165h1848l-35 -165h-1848zM203 873l35 165h1848l-35 -165h-1848zM300 1329l35 165h1848l-35 -165h-1848zM397 1785l35 165h1848l-35 -165h-1848z" />
    <glyph glyph-name=".null" 
 />
    <glyph glyph-name="nonmarkingreturn" 
 />
    <glyph glyph-name="space" unicode=" " horiz-adv-x="502" 
 />
    <glyph glyph-name="exclam" unicode="!" horiz-adv-x="777" 
d="M427 1443h383l-238 -970h-320zM336 -35q-93 0 -148.5 51t-55.5 124q0 84 55 137t149 53q93 0 148.5 -51t55.5 -124q0 -84 -55 -137t-149 -53z" />
    <glyph glyph-name="quotedbl" unicode="&#x22;" horiz-adv-x="1079" 
d="M522 802h-297l136 641h298zM1030 802h-298l137 641h297z" />
    <glyph glyph-name="numbersign" unicode="#" horiz-adv-x="1394" 
d="M639 0l120 368h-223l-120 -368h-262l119 368h-220l79 253h222l71 221h-221l79 251h223l115 351h262l-114 -351h223l114 351h264l-114 -351h229l-78 -251h-232l-72 -221h231l-79 -253h-233l-119 -368h-264zM587 594h264l91 274h-266z" />
    <glyph glyph-name="dollar" unicode="$" horiz-adv-x="1461" 
d="M835 549l-62 -288q90 5 143 47t53 108q0 45 -29.5 75t-104.5 58zM765 900l61 283q-82 -4 -131.5 -45t-49.5 -103q0 -85 120 -135zM900 856l65 -19q182 -54 268.5 -148t86.5 -232q0 -213 -159.5 -336.5t-427.5 -123.5h-16l-28 -133h-144l31 146q-192 33 -303 143t-115 274
h338q4 -53 40 -92t97 -58l67 315l-66 20q-164 50 -253.5 153t-89.5 237q0 199 154 321.5t404 122.5q22 0 33 -1l29 139h144l-33 -157q171 -39 272.5 -149t104.5 -262h-328q-8 97 -106 144z" />
    <glyph glyph-name="percent" unicode="%" horiz-adv-x="1909" 
d="M240 1064q0 176 111 295.5t276 119.5q150 0 238.5 -89.5t88.5 -241.5q0 -177 -112 -297t-278 -120q-149 0 -236.5 90t-87.5 243zM574 949q52 0 89 58.5t37 140.5q0 55 -20.5 85t-58.5 30q-52 0 -89 -57.5t-37 -138.5q0 -56 21 -87t58 -31zM580 0h-380l741 765l540 678
h381l-756 -771zM1101 295q0 177 111 296.5t276 119.5q150 0 238.5 -89.5t88.5 -241.5q0 -177 -112.5 -297t-277.5 -120q-149 0 -236.5 89.5t-87.5 242.5zM1435 181q52 0 88.5 58.5t36.5 140.5q0 55 -20.5 85t-57.5 30q-52 0 -89 -58t-37 -139q0 -56 20.5 -86.5t58.5 -30.5z
" />
    <glyph glyph-name="ampersand" unicode="&#x26;" horiz-adv-x="1560" 
d="M693 1078q0 -69 84 -176q202 76 202 215q0 54 -36 86.5t-93 32.5q-65 0 -111 -46t-46 -112zM646 215q118 0 218 55l-229 348q-7 -2 -23.5 -8t-18.5 -7q-88 -34 -134.5 -87.5t-46.5 -121.5q0 -79 65 -129t169 -50zM1042 0l-46 68q-180 -96 -382 -96q-227 0 -375.5 111
t-148.5 281q0 280 348 417l77 31q-116 166 -116 297q0 150 127.5 251t317.5 101q182 0 304 -89.5t122 -223.5q0 -269 -370 -418l179 -266q92 133 101 274l2 24h285l-3 -29q-26 -275 -234 -491l163 -242h-351z" />
    <glyph glyph-name="quotesingle" unicode="'" horiz-adv-x="571" 
d="M522 802h-297l136 641h298z" />
    <glyph glyph-name="parenleft" unicode="(" horiz-adv-x="929" 
d="M706 -312h-320q-57 122 -91 314.5t-34 382.5q0 323 126.5 624t342.5 521h368q-103 -106 -187.5 -232.5t-151.5 -278t-103.5 -330.5t-35.5 -368q3 -397 86 -633z" />
    <glyph glyph-name="parenright" unicode=")" horiz-adv-x="929" 
d="M316 1530h319q57 -121 91 -313.5t34 -382.5q0 -323 -126 -624t-342 -522h-368q139 144 243 319t170 408.5t64 482.5q-1 390 -85 632z" />
    <glyph glyph-name="asterisk" unicode="*" horiz-adv-x="1032" 
d="M898 741l-192 216l1 -298l-234 23l108 287l-262 -170l-81 215l303 73l-265 126l147 190l194 -220l4 303l234 -23l-112 -291l265 174l81 -215l-309 -72l265 -128z" />
    <glyph glyph-name="plus" unicode="+" horiz-adv-x="1461" 
d="M893 436l-84 -400h-319l85 400h-391l64 301h391l84 397h319l-85 -397h403l-64 -301h-403z" />
    <glyph glyph-name="comma" unicode="," horiz-adv-x="767" 
d="M223 -400h-244l234 646h335z" />
    <glyph glyph-name="hyphen" unicode="-" horiz-adv-x="1006" 
d="M181 425l68 316h658l-68 -316h-658z" />
    <glyph glyph-name="hyphen" unicode="&#x2011;" horiz-adv-x="1006" 
d="M181 425l68 316h658l-68 -316h-658z" />
    <glyph glyph-name="period" unicode="." horiz-adv-x="767" 
d="M328 -33q-91 0 -146.5 53.5t-55.5 129.5q0 86 55 142t147 56q91 0 146.5 -53.5t55.5 -129.5q0 -86 -55 -142t-147 -56z" />
    <glyph glyph-name="slash" unicode="/" horiz-adv-x="857" 
d="M198 -312h-344l898 1842h344z" />
    <glyph glyph-name="zero" unicode="0" horiz-adv-x="1460" 
d="M711 -39q-250 0 -394.5 154.5t-144.5 422.5q0 203 54.5 378.5t149.5 299.5t228.5 195t286.5 71q251 0 396.5 -154t145.5 -421q0 -203 -55 -379t-150.5 -300.5t-229.5 -195.5t-287 -71zM541 514q0 -127 46.5 -198t129.5 -71q89 0 169.5 95t129 254.5t48.5 336.5
q0 126 -47 196t-131 70q-89 0 -169 -94.5t-128 -253t-48 -335.5z" />
    <glyph glyph-name="one" unicode="1" horiz-adv-x="1101" 
d="M406 0l234 1100h-19l-398 -234l70 327l421 250h366l-307 -1443h-367z" />
    <glyph glyph-name="two" unicode="2" horiz-adv-x="1360" 
d="M249 1004q16 208 183 343t408 135q223 0 367.5 -114.5t144.5 -290.5q0 -73 -21.5 -132.5t-80 -128t-139 -137t-220.5 -175.5l-259 -202l-4 -19h592l-60 -283h-1090l56 257l526 410q210 163 275.5 234.5t65.5 145.5q0 69 -52 112.5t-134 43.5q-31 0 -62 -9t-64 -30
t-59.5 -62t-38.5 -98h-334z" />
    <glyph glyph-name="three" unicode="3" horiz-adv-x="1409" 
d="M562 615l53 254h183q110 0 172.5 48.5t62.5 132.5q0 71 -55 114t-145 43q-78 0 -136 -40.5t-81 -110.5h-333q41 196 197.5 311t383.5 115q226 0 371.5 -109.5t145.5 -279.5q0 -137 -99.5 -241t-245.5 -118l-3 -20q123 -28 188.5 -106t65.5 -196q0 -128 -76 -231.5
t-211.5 -161.5t-303.5 -58q-255 0 -411.5 119t-156.5 312q0 28 6 71h342v-1q-14 -89 50 -150t171 -61q101 0 165 56.5t64 145.5q0 73 -56.5 117.5t-147.5 44.5h-160z" />
    <glyph glyph-name="four" unicode="4" horiz-adv-x="1463" 
d="M743 0l50 234h-712l61 321q241 328 728 888h527l-196 -923h179l-60 -286h-180l-50 -234h-347zM460 525l-3 -18h404l143 674h-18q-264 -306 -526 -656z" />
    <glyph glyph-name="five" unicode="5" horiz-adv-x="1411" 
d="M714 -39q-156 0 -281 57t-195.5 158t-70.5 226q0 9 2 41h332v-1q5 -88 69 -142.5t164 -54.5q108 0 180.5 75.5t72.5 186.5q0 98 -59 156t-155 58q-58 0 -116 -28t-93 -71h-330l242 821h952l-62 -286h-662l-99 -312h18q113 119 297 119q175 0 292 -119.5t117 -299.5
q0 -255 -172 -419.5t-443 -164.5z" />
    <glyph glyph-name="six" unicode="6" horiz-adv-x="1459" 
d="M1356 517q0 -154 -78.5 -282t-215 -201t-301.5 -73q-270 0 -422.5 159t-152.5 442q0 147 33 284.5t96.5 252.5t151 201t204 134t247.5 48q229 0 378.5 -124.5t151.5 -315.5h-352q-11 72 -63.5 114t-131.5 42q-125 0 -219.5 -117t-124.5 -308l19 -1q61 85 151.5 130.5
t198.5 45.5q188 0 309 -121t121 -310zM791 695q-106 0 -178 -71t-72 -175q0 -90 62 -149t157 -59q104 0 174.5 71t70.5 176q0 90 -60.5 148.5t-153.5 58.5z" />
    <glyph glyph-name="seven" unicode="7" horiz-adv-x="1277" 
d="M105 0l841 1141l5 20h-685l60 282h1066l-60 -283l-829 -1160h-398z" />
    <glyph glyph-name="eight" unicode="8" horiz-adv-x="1472" 
d="M1346 405q0 -194 -178 -319t-453 -125q-259 0 -424 115t-165 297q0 156 111.5 268.5t295.5 141.5l4 19q-93 34 -148.5 107.5t-55.5 160.5q0 178 161 295t406 117q148 0 271 -50.5t193.5 -138.5t70.5 -195q0 -136 -92.5 -233.5t-243.5 -120.5l-4 -19q117 -40 184 -125.5
t67 -194.5zM754 622q-104 0 -173.5 -62t-69.5 -155q0 -82 60.5 -133t158.5 -51q105 0 174.5 61t69.5 153q0 82 -61.5 134.5t-158.5 52.5zM680 1031q0 -71 51.5 -117t131.5 -46q87 0 148.5 58t61.5 138q0 71 -52.5 117.5t-131.5 46.5q-87 0 -148 -57.5t-61 -139.5z" />
    <glyph glyph-name="nine" unicode="9" horiz-adv-x="1457" 
d="M809 743q105 0 176.5 70.5t71.5 175.5q0 91 -60 149t-155 58q-104 0 -174.5 -70.5t-70.5 -175.5q0 -91 60 -149t152 -58zM244 923q0 158 77.5 286t214.5 200.5t307 72.5q269 0 419 -160.5t150 -446.5q0 -143 -33.5 -279t-97.5 -250.5t-151 -201t-202 -135t-242 -48.5
q-224 0 -376.5 120.5t-160.5 303.5h353q7 -64 62 -102.5t140 -38.5q132 0 229 117.5t119 304.5h-18q-128 -176 -348 -176q-191 0 -316.5 123t-125.5 310z" />
    <glyph glyph-name="colon" unicode=":" horiz-adv-x="767" 
d="M328 -33q-91 0 -146.5 53.5t-55.5 129.5q0 86 55 142t147 56q91 0 146.5 -53.5t55.5 -129.5q0 -86 -55 -142t-147 -56zM481 693q-91 0 -146 53t-55 129q0 87 54 142.5t147 55.5q92 0 147 -53t55 -129q0 -87 -54.5 -142.5t-147.5 -55.5z" />
    <glyph glyph-name="semicolon" unicode=";" horiz-adv-x="767" 
d="M482 693q-91 0 -146.5 53t-55.5 129q0 87 54.5 142.5t147.5 55.5q91 0 146.5 -53t55.5 -129q0 -87 -54.5 -142.5t-147.5 -55.5zM223 -400h-244l234 646h335z" />
    <glyph glyph-name="less" unicode="&#x3c;" horiz-adv-x="1461" 
d="M1207 288l-71 -333l-888 508l57 271l1097 472l-75 -352l-687 -260l-4 -19z" />
    <glyph glyph-name="equal" unicode="=" horiz-adv-x="1461" 
d="M1239 178h-1107l64 302h1107zM1349 692h-1108l64 302h1108z" />
    <glyph glyph-name="greater" unicode="&#x3e;" horiz-adv-x="1461" 
d="M336 873l70 333l889 -508l-58 -271l-1097 -472l75 352l688 260l3 19z" />
    <glyph glyph-name="question" unicode="?" horiz-adv-x="1189" 
d="M223 1039q21 185 162.5 301t357.5 116q224 0 360 -103.5t136 -267.5q0 -128 -71.5 -232.5t-208.5 -164.5q-115 -50 -161 -91t-60 -109l-8 -35h-318l8 55q21 136 74 207.5t169 122.5q124 55 172 104.5t48 115.5q0 56 -42.5 91t-113.5 35q-64 0 -113 -39.5t-65 -105.5h-326
zM513 -33q-93 0 -151 47.5t-58 124.5q0 84 58.5 139.5t150.5 55.5q89 0 149 -48t60 -124q0 -82 -58.5 -138.5t-150.5 -56.5z" />
    <glyph glyph-name="at" unicode="@" horiz-adv-x="1908" 
d="M1116 1446q219 0 390.5 -86.5t266.5 -242.5t95 -355q0 -174 -62 -315t-171 -221.5t-243 -80.5q-113 0 -183.5 43.5t-70.5 115.5q0 6 0.5 15.5t0.5 13.5l-19 -4q-82 -144 -232 -144q-133 0 -213 95t-80 253q0 133 52.5 244.5t143 175.5t197.5 64q88 0 150.5 -43t79.5 -116
l19 -2l25 126h233l-116 -540q-5 -25 -5 -40q0 -37 20 -57.5t55 -20.5q54 0 103.5 60.5t79.5 160.5t30 210q0 228 -155 370.5t-403 142.5q-149 0 -282.5 -57t-229.5 -154.5t-152 -234t-56 -288.5q0 -272 182.5 -431.5t493.5 -158.5q82 0 120 11l-38 -178q-63 -11 -144 -11
q-242 0 -428 94.5t-287.5 266t-101.5 395.5q0 194 72 365.5t195.5 294t297.5 193.5t370 71zM1160 644q0 74 -33 116t-90 42q-75 0 -128 -76.5t-53 -183.5q0 -72 34 -114t93 -42q74 0 125.5 74.5t51.5 183.5z" />
    <glyph glyph-name="A" unicode="A" horiz-adv-x="1564" 
d="M933 1117l-274 -536h333l-39 536h-20zM1026 0l-23 317h-473l-162 -317h-378l806 1443h446l166 -1443h-382z" />
    <glyph glyph-name="B" unicode="B" horiz-adv-x="1459" 
d="M831 0h-744l307 1443h636q187 0 302 -85.5t115 -223.5q0 -144 -95.5 -249t-238.5 -120l-1 -19q121 -22 192 -100.5t71 -189.5q0 -200 -153 -328t-391 -128zM709 1193l-71 -330h209q102 0 167.5 54.5t65.5 138.5q0 65 -46.5 101t-131.5 36h-193zM511 267h245q112 0 183 60
t71 156q0 74 -53 115.5t-149 41.5h-218z" />
    <glyph glyph-name="C" unicode="C" horiz-adv-x="1569" 
d="M1224 908q1 3 1 19q-3 110 -77 178.5t-191 68.5q-116 0 -211 -75t-149.5 -208t-54.5 -296q0 -151 73.5 -239t199.5 -88q112 0 200.5 62.5t122.5 165.5h356q-44 -242 -237.5 -388.5t-469.5 -146.5q-282 0 -450 167t-168 446q0 263 103.5 470.5t288 322.5t418.5 115
q167 0 305 -68t217 -186.5t79 -261.5q0 -37 -3 -58h-353z" />
    <glyph glyph-name="D" unicode="D" horiz-adv-x="1561" 
d="M394 1443h569q264 0 417.5 -151t153.5 -419q0 -251 -95 -449.5t-268.5 -311t-394.5 -112.5h-688zM701 1149l-180 -855h210q188 0 307 146.5t119 389.5q0 147 -77 233t-213 86h-166z" />
    <glyph glyph-name="E" unicode="E" horiz-adv-x="1302" 
d="M1139 295l-63 -295h-989l307 1443h989l-64 -295h-621l-61 -288h584l-57 -270h-584l-63 -295h622z" />
    <glyph glyph-name="F" unicode="F" horiz-adv-x="1269" 
d="M454 0h-367l307 1443h981l-63 -295h-614l-70 -329h558l-60 -281h-558z" />
    <glyph glyph-name="G" unicode="G" horiz-adv-x="1588" 
d="M1557 770l-35 -180q-58 -306 -244.5 -467.5t-480.5 -161.5q-283 0 -454.5 169t-171.5 449q0 263 102 469t285.5 320t417.5 114q163 0 301.5 -64t219.5 -174t83 -240q1 -14 -1 -33h-353q-3 87 -80 144t-192 57q-177 0 -293.5 -161.5t-116.5 -410.5q0 -151 76 -240t206 -89
q125 0 212.5 63.5t108.5 169.5l2 13h-258l53 253h613z" />
    <glyph glyph-name="H" unicode="H" horiz-adv-x="1649" 
d="M1396 0h-368l123 582h-574l-124 -582h-366l307 1443h367l-120 -566h574l121 566h367z" />
    <glyph glyph-name="I" unicode="I" horiz-adv-x="707" 
d="M454 0h-367l307 1443h367z" />
    <glyph glyph-name="J" unicode="J" horiz-adv-x="1295" 
d="M78 400q0 22 3 43h351v-13q1 -70 43 -112t114 -42q146 0 185 186l209 981h366l-218 -1027q-47 -221 -187 -338t-362 -117q-229 0 -367.5 121t-136.5 318z" />
    <glyph glyph-name="K" unicode="K" horiz-adv-x="1509" 
d="M454 0h-367l307 1443h366l-130 -609h19l601 609h422l-653 -660l347 -783h-409l-246 570l-173 -172z" />
    <glyph glyph-name="L" unicode="L" horiz-adv-x="1247" 
d="M1131 303l-64 -303h-980l307 1443h367l-243 -1140h613z" />
    <glyph glyph-name="M" unicode="M" horiz-adv-x="1924" 
d="M427 0h-340l307 1443h425l159 -882h19l536 882h445l-307 -1443h-339l193 911h-18l-491 -800h-226l-151 800h-18z" />
    <glyph glyph-name="N" unicode="N" horiz-adv-x="1600" 
d="M439 0h-352l307 1443h260l450 -842h19l179 842h352l-307 -1443h-256l-456 834h-19z" />
    <glyph glyph-name="O" unicode="O" horiz-adv-x="1638" 
d="M954 1169q-111 0 -205.5 -74.5t-149.5 -204t-55 -284.5q0 -152 76.5 -243.5t204.5 -91.5q170 0 290 163.5t120 401.5q0 152 -77 242.5t-204 90.5zM815 -39q-147 0 -269 47.5t-204 130.5t-127 196.5t-45 245.5q0 196 61.5 365t167.5 286t252.5 183.5t313.5 66.5
q149 0 271.5 -47.5t203 -130.5t124.5 -196.5t44 -245.5q0 -197 -61 -366t-167 -286t-252.5 -183t-312.5 -66z" />
    <glyph glyph-name="P" unicode="P" horiz-adv-x="1402" 
d="M394 1443h538q234 0 369 -118.5t135 -316.5q0 -269 -176.5 -427t-472.5 -158h-242l-90 -423h-366zM701 1161l-98 -461h183q127 0 204 76.5t77 198.5q0 92 -54.5 139t-156.5 47h-155z" />
    <glyph glyph-name="Q" unicode="Q" horiz-adv-x="1638" 
d="M1396 -132h-339l-52 117q-92 -24 -190 -24q-147 0 -269 47.5t-204 130t-127 196.5t-45 246q0 196 61.5 365t167.5 286t252.5 183.5t313.5 66.5q149 0 271.5 -47t203 -130.5t124.5 -197t44 -245.5q0 -237 -85.5 -428t-238.5 -311zM824 265q34 0 63 7l-102 235h317l22 -44
q116 149 116 374q0 155 -78 247t-207 92q-113 0 -208.5 -75.5t-151.5 -207.5t-56 -289q0 -154 78 -246.5t207 -92.5z" />
    <glyph glyph-name="R" unicode="R" horiz-adv-x="1459" 
d="M87 0l307 1443h609q203 0 333 -118t130 -301q0 -158 -92 -291t-249 -191l194 -542h-394l-163 505h-200l-108 -505h-367zM703 1166l-87 -402h219q118 0 190 64t72 165q0 84 -51.5 128.5t-145.5 44.5h-197z" />
    <glyph glyph-name="S" unicode="S" horiz-adv-x="1407" 
d="M101 416h350q10 -78 84 -127.5t176 -49.5q108 0 175.5 45t67.5 117q0 54 -43 89t-148 67l-157 47q-167 50 -257 154t-90 250q0 205 170 339.5t429 134.5q254 0 411.5 -127.5t159.5 -331.5h-339q-7 79 -75.5 130.5t-169.5 51.5q-92 0 -154.5 -44t-62.5 -110
q0 -55 41 -94.5t132 -66.5l158 -46q187 -55 273 -149t86 -244q0 -222 -173.5 -356t-458.5 -134q-260 0 -420 122.5t-165 332.5z" />
    <glyph glyph-name="T" unicode="T" horiz-adv-x="1380" 
d="M791 0h-367l243 1148h-415l63 295h1198l-63 -295h-415z" />
    <glyph glyph-name="U" unicode="U" horiz-adv-x="1585" 
d="M796 -39q-273 0 -435.5 133t-162.5 346q0 63 13 125l186 878h368l-185 -872q-10 -47 -10 -91q1 -96 66.5 -151.5t171.5 -55.5q108 0 180 64t97 185l195 921h368l-211 -1002q-48 -226 -218 -353t-423 -127z" />
    <glyph glyph-name="V" unicode="V" horiz-adv-x="1528" 
d="M920 0h-464l-159 1443h401l57 -1060h19l491 1060h414z" />
    <glyph glyph-name="W" unicode="W" horiz-adv-x="2112" 
d="M1144 884l-422 -884h-341l-71 1443h375l-6 -957h18l435 957h289l40 -957h18l394 957h377l-682 -1443h-351l-55 884h-18z" />
    <glyph glyph-name="X" unicode="X" horiz-adv-x="1549" 
d="M5 0l614 741l-303 702h411l191 -462h19l342 462h408l-628 -735l318 -708h-407l-196 446h-19l-352 -446h-398z" />
    <glyph glyph-name="Y" unicode="Y" horiz-adv-x="1507" 
d="M856 0h-368l105 496l-296 947h383l159 -591h19l405 591h396l-700 -953z" />
    <glyph glyph-name="Z" unicode="Z" horiz-adv-x="1399" 
d="M48 0l50 233l845 896l1 19h-642l63 295h1106l-50 -233l-844 -896l-1 -19h672l-62 -295h-1138z" />
    <glyph glyph-name="bracketleft" unicode="[" horiz-adv-x="929" 
d="M485 1530h613l-55 -256h-273l-283 -1329h273l-54 -257h-613z" />
    <glyph glyph-name="backslash" unicode="\" horiz-adv-x="857" 
d="M337 -312l-52 1842h328l52 -1842h-328z" />
    <glyph glyph-name="bracketright" unicode="]" horiz-adv-x="929" 
d="M537 -312h-613l55 257h273l283 1329h-274l55 256h613z" />
    <glyph glyph-name="asciicircum" unicode="^" horiz-adv-x="1109" 
d="M722 1159l-247 -390h-316l470 635h296l207 -635h-298l-93 390h-19z" />
    <glyph glyph-name="underscore" unicode="_" horiz-adv-x="960" 
d="M-160 -373l56 266h956l-56 -266h-956z" />
    <glyph glyph-name="grave" unicode="`" horiz-adv-x="1059" 
d="M1015 1288h-299l-214 359h344z" />
    <glyph glyph-name="a" unicode="a" horiz-adv-x="1241" 
d="M557 229q78 0 139 45.5t76 113.5l18 83l-197 -6q-83 -3 -131 -37.5t-48 -90.5q0 -48 40 -78t103 -30zM398 -17q-140 0 -233.5 86.5t-93.5 216.5q0 171 134.5 271.5t370.5 107.5l257 7l14 67q5 30 5 35q0 48 -43 76.5t-114 28.5q-126 0 -167 -83h-324q34 157 174.5 250
t341.5 93q214 0 346 -92t132 -242q0 -47 -9 -90l-153 -715h-343l28 134h-19q-43 -69 -126 -110t-178 -41z" />
    <glyph glyph-name="b" unicode="b" horiz-adv-x="1383" 
d="M789 -17q-119 0 -210 60t-116 157h-19l-43 -200h-344l325 1530h354l-123 -575l21 3q111 172 329 172q168 0 271 -114t103 -309q0 -154 -42.5 -289.5t-116 -230.5t-174.5 -149.5t-215 -54.5zM699 266q113 0 192.5 110t79.5 271q0 100 -50 154.5t-128 54.5
q-113 0 -193.5 -113t-80.5 -266q0 -101 50.5 -156t129.5 -55z" />
    <glyph glyph-name="c" unicode="c" horiz-adv-x="1247" 
d="M751 1139q108 0 198.5 -33.5t149 -88.5t92 -122.5t36.5 -139.5v-12.5v-16v-13.5h-329q-1 73 -48 113t-121 40q-116 0 -187.5 -114.5t-71.5 -287.5q0 -108 50.5 -162.5t124.5 -54.5q73 0 125 39t74 113h331q-26 -182 -172.5 -303.5t-376.5 -121.5q-233 0 -369 127
t-136 342q0 198 77 356t221.5 249t331.5 91z" />
    <glyph glyph-name="d" unicode="d" horiz-adv-x="1383" 
d="M493 -17q-169 0 -273 114.5t-104 313.5q0 154 43.5 288.5t118 228.5t178 148t220.5 54q121 0 201 -56t107 -145h20l127 601h355l-325 -1530h-345l33 155h-19q-125 -172 -337 -172zM663 257q112 0 192.5 113t80.5 266q0 100 -51 155.5t-129 55.5q-114 0 -193.5 -108
t-79.5 -268q0 -101 51 -157.5t129 -56.5z" />
    <glyph glyph-name="e" unicode="e" horiz-adv-x="1290" 
d="M486 681h423q3 18 3 36q0 74 -50 122t-131 48q-88 0 -155 -56.5t-90 -149.5zM639 -26q-234 0 -374.5 129.5t-140.5 352.5q0 305 171 494t445 189q216 0 355.5 -131t139.5 -342q0 -85 -20 -187h-765q-1 -4 -1 -21q0 -110 58.5 -169.5t153.5 -59.5q71 0 120 28t69 77h332
q-41 -165 -186.5 -262.5t-356.5 -97.5z" />
    <glyph glyph-name="f" unicode="f" horiz-adv-x="886" 
d="M142 0l178 835h-180l56 263h176l28 133q31 152 133 221.5t284 69.5q133 0 220 -26l-50 -228q-39 11 -118 11q-109 0 -129 -96l-18 -85h227l-56 -263h-218l-178 -835h-355z" />
    <glyph glyph-name="g" unicode="g" horiz-adv-x="1369" 
d="M544 -419q-241 0 -388 97t-140 248h345q3 -49 58 -79t146 -30q195 0 231 166l41 193h-19q-104 -152 -324 -152q-166 0 -270.5 113t-104.5 297q0 191 73.5 351.5t200 252.5t277.5 92q114 0 200 -56.5t115 -150.5h19l42 190h345l-247 -1154q-38 -178 -196 -278t-404 -100z
M660 264q111 0 190.5 109.5t79.5 262.5q0 96 -49.5 153.5t-132.5 57.5q-113 0 -190.5 -106t-77.5 -263q0 -98 49 -156t131 -58z" />
    <glyph glyph-name="h" unicode="h" horiz-adv-x="1346" 
d="M57 0l323 1519h353l-124 -574h19q117 189 338 189q154 0 243.5 -87.5t89.5 -226.5q0 -62 -15 -134l-144 -686h-352l132 631q9 45 9 76q0 70 -44.5 111t-116.5 41q-83 0 -141 -55t-77 -145l-140 -659h-353z" />
    <glyph glyph-name="i" unicode="i" horiz-adv-x="643" 
d="M62 0l236 1113h354l-237 -1113h-353zM537 1242q-92 0 -146 42t-54 109q0 71 54 117.5t146 46.5t145.5 -42t53.5 -109q0 -72 -53.5 -118t-145.5 -46z" />
    <glyph glyph-name="j" unicode="j" horiz-adv-x="643" 
d="M536 1242q-91 0 -145 42t-54 109q0 71 54 117.5t145 46.5q92 0 146 -42t54 -109q0 -71 -54 -117.5t-146 -46.5zM652 1113l-246 -1161q-35 -164 -147 -247t-289 -83q-87 0 -166 15l57 255q24 -7 69 -7q107 0 129 103l239 1125h354z" />
    <glyph glyph-name="k" unicode="k" horiz-adv-x="1275" 
d="M411 0h-354l325 1530h353l-172 -818h19l396 401h399l-509 -489l309 -624h-385l-210 434l-100 -94z" />
    <glyph glyph-name="l" unicode="l" horiz-adv-x="634" 
d="M57 0l325 1530h355l-326 -1530h-354z" />
    <glyph glyph-name="m" unicode="m" horiz-adv-x="1951" 
d="M50 0l236 1113h344l-41 -188h19q55 95 140 150t184 55q109 0 182.5 -57.5t99.5 -144.5h19q132 202 360 202q136 0 223 -90t87 -225q0 -62 -15 -134l-143 -681h-353l132 631q9 44 9 76q0 64 -37 103.5t-99 39.5q-68 0 -120.5 -52t-71.5 -142l-138 -656h-338l132 631
q9 44 9 76q0 64 -37 103.5t-99 39.5q-68 0 -120.5 -51.5t-71.5 -140.5l-139 -658h-353z" />
    <glyph glyph-name="n" unicode="n" horiz-adv-x="1331" 
d="M50 0l238 1113h343l-39 -181h19q56 93 144 145.5t201 52.5q150 0 238.5 -90t88.5 -232q0 -62 -15 -134l-143 -674h-352l132 619q8 39 8 76q0 68 -41.5 111.5t-114.5 43.5q-81 0 -138.5 -56.5t-76.5 -146.5l-139 -647h-353z" />
    <glyph glyph-name="o" unicode="o" horiz-adv-x="1344" 
d="M658 246q108 0 186 115t78 273q0 111 -43 173t-121 62q-111 0 -189 -115.5t-78 -279.5q0 -107 44.5 -167.5t122.5 -60.5zM774 1139q235 0 376 -136t141 -362q0 -141 -49.5 -264.5t-135 -212t-205.5 -139.5t-257 -51q-235 0 -377.5 136t-142.5 361q0 188 84.5 341
t233.5 240t332 87z" />
    <glyph glyph-name="p" unicode="p" horiz-adv-x="1376" 
d="M692 266q113 0 192.5 110t79.5 271q0 100 -50 154.5t-128 54.5q-112 0 -193 -113t-81 -266q0 -100 51 -155.5t129 -55.5zM326 -368h-354l315 1481h345l-33 -155h19q125 172 338 172q169 0 272 -114t103 -309q0 -206 -73 -372t-200 -259t-283 -93q-119 0 -200 59.5
t-108 157.5h-19z" />
    <glyph glyph-name="q" unicode="q" horiz-adv-x="1381" 
d="M661 257q112 0 193 113t81 266q0 101 -51 156t-130 55q-113 0 -192 -109t-79 -268q0 -102 50 -157.5t128 -55.5zM1087 -368h-354l111 523h-17q-124 -172 -337 -172q-168 0 -271 115t-103 312q0 154 43.5 288t118 228.5t177.5 149t220 54.5q124 0 210.5 -57t113.5 -144h19
l39 184h345z" />
    <glyph glyph-name="r" unicode="r" horiz-adv-x="969" 
d="M47 0l238 1113h346l-32 -157h18q41 82 111 128t156 46q89 0 149 -27l-69 -308q-83 36 -184 36q-200 0 -250 -234l-128 -597h-355z" />
    <glyph glyph-name="s" unicode="s" horiz-adv-x="1201" 
d="M203 768q0 169 132.5 270t352.5 101q215 0 346 -93.5t136 -248.5h-318q-8 46 -52.5 74t-111.5 28q-65 0 -106.5 -26.5t-41.5 -69.5q0 -31 24.5 -53t82.5 -42l196 -69q133 -46 194 -115.5t61 -173.5q0 -170 -139 -273t-368 -103t-372 98t-145 257h335q8 -51 57.5 -83.5
t121.5 -32.5q73 0 115 26t42 71q0 30 -22 50.5t-79 40.5l-177 62q-135 47 -199.5 121.5t-64.5 183.5z" />
    <glyph glyph-name="t" unicode="t" horiz-adv-x="900" 
d="M545 -2q-157 0 -249.5 64.5t-92.5 176.5q0 44 11 96l105 500h-175l58 263h173l58 270h355l-58 -270h230l-58 -263h-228l-94 -441q-6 -38 -6 -51q0 -90 115 -90q43 0 93 6l-53 -247q-53 -14 -184 -14z" />
    <glyph glyph-name="u" unicode="u" horiz-adv-x="1332" 
d="M1352 1113l-235 -1113h-344l37 175h-19q-112 -201 -325 -201q-155 0 -250 88t-95 238q0 54 15 141l141 672h355l-131 -615q-7 -35 -7 -73q0 -161 155 -161q83 0 137 54.5t75 151.5l137 643h354z" />
    <glyph glyph-name="v" unicode="v" horiz-adv-x="1222" 
d="M196 1113h358l30 -789h19l355 789h376l-605 -1113h-410z" />
    <glyph glyph-name="w" unicode="w" horiz-adv-x="1814" 
d="M1910 1113l-524 -1113h-385l-16 732h-19l-326 -732h-375l-54 1113h350l-18 -761h19l326 761h340l8 -763h20l300 763h354z" />
    <glyph glyph-name="x" unicode="x" horiz-adv-x="1251" 
d="M621 334h-19l-245 -334h-379l452 554l-217 559h387l102 -342h19l235 342h389l-458 -559l223 -554h-374z" />
    <glyph glyph-name="y" unicode="y" horiz-adv-x="1258" 
d="M117 -407q-129 0 -141 3l57 268q12 -3 70 -3q176 0 215 99l12 33l-127 1120h363l30 -809h19l370 809h377l-600 -1123q-113 -215 -262.5 -306t-382.5 -91z" />
    <glyph glyph-name="z" unicode="z" horiz-adv-x="1190" 
d="M29 0l40 189l649 639l1 19h-499l58 266h936l-47 -217l-596 -611l-1 -19h481l-57 -266h-965z" />
    <glyph glyph-name="braceleft" unicode="{" horiz-adv-x="929" 
d="M281 249q12 55 12 87q0 60 -39 89t-134 29l66 311q112 0 168.5 45.5t79.5 160.5l37 176q42 211 159 297t343 86h124l-54 -250h-43q-90 0 -135 -43.5t-69 -153.5l-42 -191q-27 -121 -113.5 -210t-214.5 -100l-5 -19q118 -13 168 -62.5t50 -127.5q0 -24 -10 -78l-34 -160
q-12 -60 -12 -91q0 -58 31.5 -82.5t100.5 -24.5h44l-53 -249h-124q-96 0 -166 22.5t-109.5 63t-57.5 89t-18 106.5q0 51 15 117z" />
    <glyph glyph-name="bar" unicode="|" horiz-adv-x="857" 
d="M444 -312h-330l392 1842h329z" />
    <glyph glyph-name="braceright" unicode="}" horiz-adv-x="929" 
d="M740 969q-11 -49 -11 -87q0 -60 38.5 -88.5t133.5 -28.5l-65 -311q-112 0 -168.5 -45.5t-80.5 -160.5l-36 -176q-43 -211 -159.5 -297.5t-342.5 -86.5h-124l53 251h44q90 0 135 43.5t69 153.5l41 191q27 121 113.5 210t215.5 100l4 19q-217 24 -217 190q0 33 10 78
l33 160q12 53 12 91q0 58 -31 82.5t-101 24.5h-43l53 248h123q96 0 166.5 -22.5t109.5 -63t57 -88.5t18 -106q0 -55 -14 -117z" />
    <glyph glyph-name="asciitilde" unicode="~" horiz-adv-x="1236" 
d="M797 466q-59 0 -109.5 24.5t-85 59t-65.5 69.5t-64 59.5t-67 24.5q-89 0 -121 -155h-260q38 222 135 336t241 114q59 0 109.5 -24.5t85 -59.5t65 -70t62.5 -59.5t63 -24.5q90 0 121 157h260q-76 -451 -370 -451z" />
    <glyph glyph-name="nonbreakingspace" unicode="&#xa0;" horiz-adv-x="502" 
 />
    <glyph glyph-name="exclamdown" unicode="&#xa1;" horiz-adv-x="778" 
d="M425 -314h-384l238 970h321zM516 1164q93 0 148.5 -50.5t55.5 -124.5q0 -83 -55 -136t-149 -53t-149 50.5t-55 124.5q0 84 54.5 136.5t149.5 52.5z" />
    <glyph glyph-name="cent" unicode="&#xa2;" horiz-adv-x="1461" 
d="M1303 534q-25 -167 -151.5 -284.5t-325.5 -137.5l-38 -184h-280l45 213q-142 48 -223 162.5t-81 274.5q0 183 66.5 333.5t191 246t287.5 115.5l38 178h280l-45 -202q131 -46 206.5 -144t80.5 -211q1 -13 1 -42h-329q-2 73 -48.5 113t-120.5 40q-116 0 -187.5 -116
t-71.5 -289q0 -108 50.5 -163t124.5 -55q73 0 125 39t74 113h331z" />
    <glyph glyph-name="sterling" unicode="&#xa3;" horiz-adv-x="1461" 
d="M1296 305l-64 -297h-1156l63 297q142 5 246.5 88t125.5 219q0 2 -0.5 9t-0.5 11h-309l51 240h247q-22 141 -22 182q0 198 147 313t401 115q130 0 262.5 -26t199.5 -56l-58 -271q-48 27 -140.5 47t-185.5 20q-127 0 -200.5 -53.5t-73.5 -163.5q0 -41 7 -107h363l-50 -240
h-293v-14q-7 -113 -65 -188.5t-158 -105.5l-3 -19h666z" />
    <glyph glyph-name="currency" unicode="&#xa4;" horiz-adv-x="1461" 
d="M549 645q0 -89 65 -154.5t154 -65.5t154 65.5t65 154.5t-65 155t-154 66t-154 -66t-65 -155zM1396 997l-188 -155q42 -93 42 -197q0 -141 -76 -260l110 -138l-238 -196l-113 141q-78 -29 -165 -29q-155 0 -280 90l-192 -158l-156 199l188 155q-42 93 -42 196
q0 142 77 260l-112 139l239 196l113 -142q79 29 165 29q155 0 280 -90l191 158z" />
    <glyph glyph-name="yen" unicode="&#xa5;" horiz-adv-x="1461" 
d="M1138 182h-267l-39 -182h-367l39 182h-269l39 182h268l26 120h-269l39 182h181l-245 777h383l159 -591h19l405 591h395l-571 -777h176l-38 -182h-268l-25 -120h267z" />
    <glyph glyph-name="brokenbar" unicode="&#xa6;" horiz-adv-x="857" 
d="M680 799h-330l156 731h329zM444 -312h-330l154 722h329z" />
    <glyph glyph-name="section" unicode="&#xa7;" horiz-adv-x="1032" 
d="M495 480l113 -61q50 17 82 52.5t32 75.5q0 75 -96 123l-113 61q-52 -15 -85 -50.5t-33 -77.5q0 -73 100 -123zM437 -301q-126 0 -226 43.5t-159 125.5t-60 188h292q5 -51 47.5 -85t104.5 -34q63 0 104.5 31.5t41.5 78.5q0 69 -90 112l-178 90q-224 111 -224 296
q0 109 72 186.5t198 104.5l1 20q-77 55 -109 109t-32 128q0 157 127.5 256.5t326.5 99.5q191 0 311 -97t127 -262h-290q-3 55 -45 88t-105 33q-61 0 -100.5 -30.5t-39.5 -76.5q0 -66 93 -112l166 -88q234 -120 234 -300q0 -106 -74.5 -187t-194.5 -104v-18
q75 -55 106.5 -109t31.5 -127q0 -157 -129 -258.5t-328 -101.5z" />
    <glyph glyph-name="dieresis" unicode="&#xa8;" horiz-adv-x="1059" 
d="M500 1268q-76 0 -124.5 46t-48.5 118t48.5 118t124.5 46t124.5 -46t48.5 -118t-48.5 -118t-124.5 -46zM1001 1268q-76 0 -124.5 46t-48.5 118t48.5 118t124.5 46t125 -46t49 -118t-49 -118t-125 -46z" />
    <glyph glyph-name="copyright" unicode="&#xa9;" horiz-adv-x="1743" 
d="M911 -121q-214 0 -389 98.5t-275 271t-100 383.5q0 165 65 316t174.5 260t261 173.5t317.5 64.5q161 0 303 -57.5t243 -157t159.5 -239t58.5 -298.5q0 -166 -65 -317t-174.5 -260t-261 -173.5t-317.5 -64.5zM915 48q128 0 245.5 51.5t203.5 138t137 205t51 247.5
q0 167 -76.5 301.5t-211.5 210.5t-303 76q-128 0 -245.5 -51.5t-203.5 -138t-137 -205t-51 -247.5q0 -125 45 -234t123 -186.5t188 -122.5t235 -45zM1304 745h-216q1 60 -29 94t-83 34q-74 0 -125.5 -77.5t-51.5 -189.5q0 -73 31.5 -112t89.5 -39q83 0 123 83h223
q-33 -125 -125.5 -193.5t-227.5 -68.5q-149 0 -241.5 93t-92.5 243q0 190 114.5 315t287.5 125q149 0 242 -88.5t81 -218.5z" />
    <glyph glyph-name="ordfeminine" unicode="&#xaa;" horiz-adv-x="1077" 
d="M628 897q-64 -1 -100 -27.5t-36 -70.5q0 -40 29.5 -64t78.5 -24q55 0 96 34.5t53 90.5l14 64zM178 757q0 144 105.5 226t291.5 84l224 3q5 20 12 50q6 28 6 34q0 37 -30.5 59t-81.5 22q-42 0 -73 -16t-44 -43h-296q37 142 144.5 216t276.5 74q188 0 303 -82t115 -216
q0 -31 -8 -73l-125 -589h-309l19 99h-18q-37 -53 -98.5 -82.5t-132.5 -29.5q-126 0 -203.5 73t-77.5 191z" />
    <glyph glyph-name="guillemotleft" unicode="&#xab;" horiz-adv-x="1477" 
d="M742 153h-304l-261 410l2 8l406 408h339l-427 -422l-2 -9zM1270 153h-303l-261 410l2 8l420 408h325l-436 -430l-1 -8z" />
    <glyph glyph-name="logicalnot" unicode="&#xac;" horiz-adv-x="1461" 
d="M1352 737l-149 -703h-312l86 402h-785l64 301h1096z" />
    <glyph glyph-name="registered" unicode="&#xae;" horiz-adv-x="1260" 
d="M636 734h-139l102 482h251q67 0 113.5 -44t46.5 -107q0 -58 -36 -101.5t-94 -59.5l77 -170h-154l-67 157h-67zM715 1106l-24 -113h92q37 0 57.5 16.5t20.5 45.5q0 51 -61 51h-85zM753 441q-235 0 -385 147.5t-150 378.5q0 108 42 205.5t113.5 168t170.5 112t209 41.5
q234 0 384 -148t150 -379q0 -144 -71 -265t-194 -191t-269 -70zM752 581q160 0 273 112.5t113 273.5q0 172 -106.5 279t-278.5 107q-161 0 -273.5 -112.5t-112.5 -273.5q0 -172 106.5 -279t278.5 -107z" />
    <glyph glyph-name="macron" unicode="&#xaf;" horiz-adv-x="1059" 
d="M1154 1525l-42 -198h-767l42 198h767z" />
    <glyph glyph-name="degree" unicode="&#xb0;" horiz-adv-x="935" 
d="M616 714q-162 0 -270.5 107.5t-108.5 266.5q0 158 108.5 265.5t270.5 107.5q161 0 270 -107.5t109 -265.5t-109 -266t-270 -108zM616 910q77 0 126 50t49 128t-48.5 127.5t-126.5 49.5q-77 0 -125.5 -50t-48.5 -127t48.5 -127.5t125.5 -50.5z" />
    <glyph glyph-name="plusminus" unicode="&#xb1;" horiz-adv-x="1461" 
d="M1151 55h-986l54 255h986zM936 645l-45 -212h-304l45 212h-342l55 258h342l46 213h304l-46 -213h343l-55 -258h-343z" />
    <glyph glyph-name="two.sups" unicode="&#xb2;" horiz-adv-x="949" 
d="M312 1519q7 148 128 243.5t300 95.5q161 0 261 -78t100 -203q0 -85 -54.5 -159t-184.5 -162q-10 -7 -49 -32.5t-74.5 -48t-58.5 -33.5l-2 -13h338l-50 -235h-759l47 218l304 208q136 91 185.5 139t49.5 91q0 35 -22.5 55.5t-60.5 20.5q-44 0 -75.5 -28.5t-40.5 -77.5v-1
h-282z" />
    <glyph glyph-name="three.sups" unicode="&#xb3;" horiz-adv-x="985" 
d="M546 1279l44 197h107q51 0 82.5 24t31.5 61q0 32 -25 52.5t-65 20.5q-80 0 -105 -72h-284q27 136 139.5 216t276.5 80q160 0 262 -73t102 -187q0 -91 -66 -154.5t-164 -68.5l-1 -14q80 -18 123.5 -69t43.5 -128q0 -131 -113.5 -214t-294.5 -83q-185 0 -298 100t-95 248
h293q-5 -46 22 -74.5t75 -28.5q46 0 74 25t28 66q0 34 -26.5 55t-67.5 21h-99z" />
    <glyph glyph-name="acute" unicode="&#xb4;" horiz-adv-x="1059" 
d="M734 1288h-319l322 359h364z" />
    <glyph glyph-name="mugreek" unicode="&#xb5;" horiz-adv-x="1411" 
d="M-37 -368l313 1481h355l-126 -593q-11 -59 -11 -90q0 -165 152 -165q82 0 140.5 59.5t80.5 162.5l133 626h354l-158 -741q-6 -25 -6 -54q0 -35 19 -51t62 -16q32 0 58 6l-54 -252q-55 -15 -158 -15q-126 0 -193.5 51t-67.5 154v6h-19q-18 -41 -37 -73.5t-52.5 -71
t-83.5 -60.5t-111 -22q-48 0 -82.5 18t-47.5 45h-20l-86 -405h-354z" />
    <glyph glyph-name="mugreek" unicode="&#x3bc;" horiz-adv-x="1411" 
d="M-37 -368l313 1481h355l-126 -593q-11 -59 -11 -90q0 -165 152 -165q82 0 140.5 59.5t80.5 162.5l133 626h354l-158 -741q-6 -25 -6 -54q0 -35 19 -51t62 -16q32 0 58 6l-54 -252q-55 -15 -158 -15q-126 0 -193.5 51t-67.5 154v6h-19q-18 -41 -37 -73.5t-52.5 -71
t-83.5 -60.5t-111 -22q-48 0 -82.5 18t-47.5 45h-20l-86 -405h-354z" />
    <glyph glyph-name="paragraph" unicode="&#xb6;" horiz-adv-x="1653" 
d="M841 -273h-333l147 688q-187 25 -293.5 144.5t-106.5 293.5q0 255 167.5 416.5t446.5 172.5l338 1zM1021 -273l366 1716h332l-365 -1716h-333z" />
    <glyph glyph-name="periodcentered" unicode="&#xb7;" horiz-adv-x="772" 
d="M459 537q-93 0 -149.5 54.5t-56.5 131.5q0 88 55.5 145t150.5 57q93 0 149 -54.5t56 -131.5q0 -88 -55.5 -145t-149.5 -57z" />
    <glyph glyph-name="cedilla" unicode="&#xb8;" horiz-adv-x="1059" 
d="M224 -232l20 126l90 140h207l-92 -142q148 -29 148 -167q0 -100 -73.5 -159t-197.5 -59q-114 0 -192 35l31 142q64 -25 139 -25q85 0 85 52q0 57 -106 57h-59z" />
    <glyph glyph-name="one.sups" unicode="&#xb9;" horiz-adv-x="801" 
d="M420 894l141 662h-14l-248 -140l56 264l264 151h317l-199 -937h-317z" />
    <glyph glyph-name="ordmasculine" unicode="&#xba;" horiz-adv-x="1150" 
d="M651 490q-207 0 -324.5 113t-117.5 312q0 242 151 396.5t387 154.5q207 0 322.5 -114t115.5 -317q0 -242 -148.5 -393.5t-385.5 -151.5zM858 1047q0 85 -32 132.5t-90 47.5q-82 0 -141 -94.5t-59 -224.5q0 -85 32.5 -132t90.5 -47q82 0 140.5 93.5t58.5 224.5z" />
    <glyph glyph-name="guillemotright" unicode="&#xbb;" horiz-adv-x="1478" 
d="M812 979h303l261 -409l-2 -8l-405 -409h-340l428 422l1 9zM283 979h303l261 -409l-2 -8l-421 -409h-324l435 430l2 8z" />
    <glyph glyph-name="onequarter" unicode="&#xbc;" horiz-adv-x="2423" 
d="M442 506l141 662h-14l-248 -140l56 264l264 151h317l-199 -937h-317zM871 0h-331l581 756l458 687h331l-601 -760zM1836 0l26 125h-467l54 271q156 219 435 541h450l-123 -574h106l-51 -238h-106l-26 -125h-298zM1710 364l-4 -14h214l81 378h-15q-77 -93 -126.5 -158
t-149.5 -206z" />
    <glyph glyph-name="onehalf" unicode="&#xbd;" horiz-adv-x="2419" 
d="M442 506l141 662h-14l-248 -140l56 264l264 151h317l-199 -937h-317zM871 0h-331l581 756l458 687h331l-601 -760zM1581 625q7 148 128 243.5t300 95.5q161 0 261 -78t100 -203q0 -85 -54.5 -159t-184.5 -162q-10 -7 -49 -32.5t-74.5 -48t-58.5 -33.5l-2 -13h338
l-50 -235h-759l47 218l304 208q136 91 185.5 139t49.5 91q0 35 -22.5 55.5t-60.5 20.5q-44 0 -75.5 -28.5t-40.5 -77.5v-1h-282z" />
    <glyph glyph-name="threequarters" unicode="&#xbe;" horiz-adv-x="2554" 
d="M547 891l44 197h107q51 0 82.5 24t31.5 61q0 32 -25 52.5t-65 20.5q-80 0 -105 -72h-284q27 136 139.5 216t276.5 80q160 0 262 -73t102 -187q0 -91 -66 -154.5t-164 -68.5l-1 -14q80 -18 123.5 -69t43.5 -128q0 -131 -113.5 -214t-294.5 -83q-185 0 -298 100t-95 248
h293q-5 -46 22 -74.5t75 -28.5q46 0 74 25t28 66q0 34 -26.5 55t-67.5 21h-99zM1003 0h-331l581 756l458 687h331l-601 -760zM1967 0l26 125h-467l54 271q156 219 435 541h450l-123 -574h106l-51 -238h-106l-26 -125h-298zM1841 364l-4 -14h214l81 378h-15
q-77 -93 -126.5 -158t-149.5 -206z" />
    <glyph glyph-name="questiondown" unicode="&#xbf;" horiz-adv-x="1189" 
d="M1040 91q-21 -185 -162.5 -301t-357.5 -116q-224 0 -360 103t-136 268q0 127 72 231.5t209 164.5q115 51 161 92t60 108l7 36h319l-9 -56q-20 -135 -73.5 -207t-169.5 -123q-123 -54 -171 -104t-48 -116q0 -55 42 -90t113 -35q64 0 113.5 39.5t65.5 105.5h325zM750 1164
q93 0 151 -47.5t58 -124.5q0 -84 -58.5 -139.5t-150.5 -55.5q-89 0 -148.5 48t-59.5 124q0 82 58 138.5t150 56.5z" />
    <glyph glyph-name="Agrave" unicode="&#xc0;" horiz-adv-x="1564" 
d="M933 1117l-274 -536h333l-39 536h-20zM1026 0l-23 317h-473l-162 -317h-378l806 1443h446l166 -1443h-382zM910 1596l-199 326h352l151 -326h-304z" />
    <glyph glyph-name="Aacute" unicode="&#xc1;" horiz-adv-x="1564" 
d="M933 1117l-274 -536h333l-39 536h-20zM1026 0l-23 317h-473l-162 -317h-378l806 1443h446l166 -1443h-382zM1188 1596h-315l327 326h362z" />
    <glyph glyph-name="Acircumflex" unicode="&#xc2;" horiz-adv-x="1564" 
d="M933 1117l-274 -536h333l-39 536h-20zM1026 0l-23 317h-473l-162 -317h-378l806 1443h446l166 -1443h-382zM1282 1945l189 -349h-283l-85 193h-19l-167 -193h-310l337 349h338z" />
    <glyph glyph-name="Atilde" unicode="&#xc3;" horiz-adv-x="1564" 
d="M933 1117l-274 -536h333l-39 536h-20zM1026 0l-23 317h-473l-162 -317h-378l806 1443h446l166 -1443h-382zM1238 1571q-55 0 -103.5 24.5t-77.5 54t-61.5 54t-57.5 24.5q-72 0 -86 -119h-205q17 138 93 222.5t184 84.5q55 0 103.5 -24.5t77.5 -53.5t61.5 -53.5
t57.5 -24.5q73 0 86 118h206q-17 -138 -93.5 -222.5t-184.5 -84.5z" />
    <glyph glyph-name="Adieresis" unicode="&#xc4;" horiz-adv-x="1564" 
d="M933 1117l-274 -536h333l-39 536h-20zM1026 0l-23 317h-473l-162 -317h-378l806 1443h446l166 -1443h-382zM833 1581q-76 0 -124.5 46t-48.5 118t48.5 118t124.5 46t124.5 -46t48.5 -118t-48.5 -118t-124.5 -46zM1334 1581q-76 0 -124.5 46t-48.5 118t48.5 118t124.5 46
t125 -46t49 -118t-49 -118t-125 -46z" />
    <glyph glyph-name="Aring" unicode="&#xc5;" horiz-adv-x="1564" 
d="M933 1117l-274 -536h333l-39 536h-20zM1026 0l-23 317h-473l-162 -317h-378l806 1443h446l166 -1443h-382zM1093 1543q-110 0 -181.5 69t-71.5 176q0 106 71.5 174t181.5 68t181 -68t71 -174q0 -107 -71 -176t-181 -69zM1092 1690q43 0 70 27.5t27 69.5q0 41 -27.5 68.5
t-69.5 27.5q-42 -1 -69 -28t-27 -68q0 -43 27 -70t69 -27z" />
    <glyph glyph-name="AE" unicode="&#xc6;" horiz-adv-x="2108" 
d="M1165 1167h-120l-339 -575h337zM917 0l69 327h-432l-195 -327h-369l873 1443h1337l-63 -295h-647l-61 -290h610l-58 -270h-610l-62 -293h646l-62 -295h-976z" />
    <glyph glyph-name="Ccedilla" unicode="&#xc7;" horiz-adv-x="1570" 
d="M1577 908h-353q1 3 1 19q-3 110 -77 178.5t-191 68.5q-116 0 -211 -75t-149.5 -208t-54.5 -296q0 -151 73.5 -239t199.5 -88q112 0 200.5 62.5t122.5 165.5h356q-40 -219 -205 -361.5t-405 -168.5l-51 -78q148 -29 148 -167q0 -100 -73.5 -159t-197.5 -59q-114 0 -192 35
l31 142q64 -25 139 -25q85 0 85 52q0 57 -106 57h-59l20 126l50 78q-236 32 -372.5 194t-136.5 412q0 263 103.5 470.5t288 322.5t418.5 115q167 0 305 -68t217 -186.5t79 -261.5q0 -37 -3 -58z" />
    <glyph glyph-name="Egrave" unicode="&#xc8;" horiz-adv-x="1302" 
d="M1139 295l-63 -295h-989l307 1443h989l-64 -295h-621l-61 -288h584l-57 -270h-584l-63 -295h622zM781 1596l-199 326h352l151 -326h-304z" />
    <glyph glyph-name="Eacute" unicode="&#xc9;" horiz-adv-x="1302" 
d="M1139 295l-63 -295h-989l307 1443h989l-64 -295h-621l-61 -288h584l-57 -270h-584l-63 -295h622zM1059 1596h-315l327 326h362z" />
    <glyph glyph-name="Ecircumflex" unicode="&#xca;" horiz-adv-x="1302" 
d="M1139 295l-63 -295h-989l307 1443h989l-64 -295h-621l-61 -288h584l-57 -270h-584l-63 -295h622zM1153 1945l189 -349h-283l-85 193h-19l-167 -193h-310l337 349h338z" />
    <glyph glyph-name="Edieresis" unicode="&#xcb;" horiz-adv-x="1302" 
d="M1139 295l-63 -295h-989l307 1443h989l-64 -295h-621l-61 -288h584l-57 -270h-584l-63 -295h622zM704 1581q-76 0 -124.5 46t-48.5 118t48.5 118t124.5 46t124.5 -46t48.5 -118t-48.5 -118t-124.5 -46zM1205 1581q-76 0 -124.5 46t-48.5 118t48.5 118t124.5 46t125 -46
t49 -118t-49 -118t-125 -46z" />
    <glyph glyph-name="Igrave" unicode="&#xcc;" horiz-adv-x="707" 
d="M454 0h-367l307 1443h367zM470 1596l-199 326h352l151 -326h-304z" />
    <glyph glyph-name="Iacute" unicode="&#xcd;" horiz-adv-x="707" 
d="M454 0h-367l307 1443h367zM748 1596h-315l327 326h362z" />
    <glyph glyph-name="Icircumflex" unicode="&#xce;" horiz-adv-x="707" 
d="M454 0h-367l307 1443h367zM842 1945l189 -349h-283l-85 193h-19l-167 -193h-310l337 349h338z" />
    <glyph glyph-name="Idieresis" unicode="&#xcf;" horiz-adv-x="707" 
d="M454 0h-367l307 1443h367zM393 1581q-76 0 -124.5 46t-48.5 118t48.5 118t124.5 46t124.5 -46t48.5 -118t-48.5 -118t-124.5 -46zM894 1581q-76 0 -124.5 46t-48.5 118t48.5 118t124.5 46t125 -46t49 -118t-49 -118t-125 -46z" />
    <glyph glyph-name="Eth" unicode="&#xd0;" horiz-adv-x="1561" 
d="M521 294h210q188 0 307 146.5t119 389.5q0 147 -77 233t-213 86h-166l-63 -297h192l-53 -252h-192zM394 1443h569q264 0 417.5 -151t153.5 -419q0 -251 -95 -449.5t-268.5 -311t-394.5 -112.5h-688l127 600h-136l53 252h137z" />
    <glyph glyph-name="Ntilde" unicode="&#xd1;" horiz-adv-x="1600" 
d="M439 0h-352l307 1443h260l450 -842h19l179 842h352l-307 -1443h-256l-456 834h-19zM1211 1571q-55 0 -103.5 24.5t-77.5 54t-61.5 54t-57.5 24.5q-72 0 -86 -119h-205q17 138 93 222.5t184 84.5q55 0 103.5 -24.5t77.5 -53.5t61.5 -53.5t57.5 -24.5q73 0 86 118h206
q-17 -138 -93.5 -222.5t-184.5 -84.5z" />
    <glyph glyph-name="Ograve" unicode="&#xd2;" horiz-adv-x="1638" 
d="M954 1169q-111 0 -205.5 -74.5t-149.5 -204t-55 -284.5q0 -152 76.5 -243.5t204.5 -91.5q170 0 290 163.5t120 401.5q0 152 -77 242.5t-204 90.5zM815 -39q-147 0 -269 47.5t-204 130.5t-127 196.5t-45 245.5q0 196 61.5 365t167.5 286t252.5 183.5t313.5 66.5
q149 0 271.5 -47.5t203 -130.5t124.5 -196.5t44 -245.5q0 -197 -61 -366t-167 -286t-252.5 -183t-312.5 -66zM861 1596l-199 326h352l151 -326h-304z" />
    <glyph glyph-name="Oacute" unicode="&#xd3;" horiz-adv-x="1638" 
d="M954 1169q-111 0 -205.5 -74.5t-149.5 -204t-55 -284.5q0 -152 76.5 -243.5t204.5 -91.5q170 0 290 163.5t120 401.5q0 152 -77 242.5t-204 90.5zM815 -39q-147 0 -269 47.5t-204 130.5t-127 196.5t-45 245.5q0 196 61.5 365t167.5 286t252.5 183.5t313.5 66.5
q149 0 271.5 -47.5t203 -130.5t124.5 -196.5t44 -245.5q0 -197 -61 -366t-167 -286t-252.5 -183t-312.5 -66zM1139 1596h-315l327 326h362z" />
    <glyph glyph-name="Ocircumflex" unicode="&#xd4;" horiz-adv-x="1638" 
d="M954 1169q-111 0 -205.5 -74.5t-149.5 -204t-55 -284.5q0 -152 76.5 -243.5t204.5 -91.5q170 0 290 163.5t120 401.5q0 152 -77 242.5t-204 90.5zM815 -39q-147 0 -269 47.5t-204 130.5t-127 196.5t-45 245.5q0 196 61.5 365t167.5 286t252.5 183.5t313.5 66.5
q149 0 271.5 -47.5t203 -130.5t124.5 -196.5t44 -245.5q0 -197 -61 -366t-167 -286t-252.5 -183t-312.5 -66zM1233 1945l189 -349h-283l-85 193h-19l-167 -193h-310l337 349h338z" />
    <glyph glyph-name="Otilde" unicode="&#xd5;" horiz-adv-x="1638" 
d="M954 1169q-111 0 -205.5 -74.5t-149.5 -204t-55 -284.5q0 -152 76.5 -243.5t204.5 -91.5q170 0 290 163.5t120 401.5q0 152 -77 242.5t-204 90.5zM815 -39q-147 0 -269 47.5t-204 130.5t-127 196.5t-45 245.5q0 196 61.5 365t167.5 286t252.5 183.5t313.5 66.5
q149 0 271.5 -47.5t203 -130.5t124.5 -196.5t44 -245.5q0 -197 -61 -366t-167 -286t-252.5 -183t-312.5 -66zM1189 1571q-55 0 -103.5 24.5t-77.5 54t-61.5 54t-57.5 24.5q-72 0 -86 -119h-205q17 138 93 222.5t184 84.5q55 0 103.5 -24.5t77.5 -53.5t61.5 -53.5t57.5 -24.5
q73 0 86 118h206q-17 -138 -93.5 -222.5t-184.5 -84.5z" />
    <glyph glyph-name="Odieresis" unicode="&#xd6;" horiz-adv-x="1638" 
d="M954 1169q-111 0 -205.5 -74.5t-149.5 -204t-55 -284.5q0 -152 76.5 -243.5t204.5 -91.5q170 0 290 163.5t120 401.5q0 152 -77 242.5t-204 90.5zM815 -39q-147 0 -269 47.5t-204 130.5t-127 196.5t-45 245.5q0 196 61.5 365t167.5 286t252.5 183.5t313.5 66.5
q149 0 271.5 -47.5t203 -130.5t124.5 -196.5t44 -245.5q0 -197 -61 -366t-167 -286t-252.5 -183t-312.5 -66zM784 1581q-76 0 -124.5 46t-48.5 118t48.5 118t124.5 46t124.5 -46t48.5 -118t-48.5 -118t-124.5 -46zM1285 1581q-76 0 -124.5 46t-48.5 118t48.5 118t124.5 46
t125 -46t49 -118t-49 -118t-125 -46z" />
    <glyph glyph-name="multiply" unicode="&#xd7;" horiz-adv-x="1461" 
d="M960 48l-230 322l-352 -269l-170 241l352 269l-230 324l255 177l223 -312l355 268l170 -241l-354 -269l236 -333z" />
    <glyph glyph-name="Oslash" unicode="&#xd8;" horiz-adv-x="1614" 
d="M1180 1049l-465 -757q49 -21 110 -21q170 0 290 163.5t120 401.5q0 127 -55 213zM618 366l469 770q-57 33 -133 33q-111 0 -205.5 -74.5t-149.5 -204t-55 -284.5q0 -149 74 -240zM1432 1459l-60 -97q114 -84 175 -213.5t61 -286.5q0 -197 -61 -366t-167 -286t-252.5 -183
t-312.5 -66q-150 0 -274 49l-53 -87l-102 62l48 80q-127 82 -195.5 216.5t-68.5 299.5q0 196 61.5 365t167.5 286t252.5 183.5t313.5 66.5q163 0 298 -58l55 91z" />
    <glyph glyph-name="Ugrave" unicode="&#xd9;" horiz-adv-x="1585" 
d="M796 -39q-273 0 -435.5 133t-162.5 346q0 63 13 125l186 878h368l-185 -872q-10 -47 -10 -91q1 -96 66.5 -151.5t171.5 -55.5q108 0 180 64t97 185l195 921h368l-211 -1002q-48 -226 -218 -353t-423 -127zM908 1596l-199 326h352l151 -326h-304z" />
    <glyph glyph-name="Uacute" unicode="&#xda;" horiz-adv-x="1585" 
d="M796 -39q-273 0 -435.5 133t-162.5 346q0 63 13 125l186 878h368l-185 -872q-10 -47 -10 -91q1 -96 66.5 -151.5t171.5 -55.5q108 0 180 64t97 185l195 921h368l-211 -1002q-48 -226 -218 -353t-423 -127zM1186 1596h-315l327 326h362z" />
    <glyph glyph-name="Ucircumflex" unicode="&#xdb;" horiz-adv-x="1585" 
d="M796 -39q-273 0 -435.5 133t-162.5 346q0 63 13 125l186 878h368l-185 -872q-10 -47 -10 -91q1 -96 66.5 -151.5t171.5 -55.5q108 0 180 64t97 185l195 921h368l-211 -1002q-48 -226 -218 -353t-423 -127zM1280 1945l189 -349h-283l-85 193h-19l-167 -193h-310l337 349
h338z" />
    <glyph glyph-name="Udieresis" unicode="&#xdc;" horiz-adv-x="1585" 
d="M796 -39q-273 0 -435.5 133t-162.5 346q0 63 13 125l186 878h368l-185 -872q-10 -47 -10 -91q1 -96 66.5 -151.5t171.5 -55.5q108 0 180 64t97 185l195 921h368l-211 -1002q-48 -226 -218 -353t-423 -127zM831 1581q-76 0 -124.5 46t-48.5 118t48.5 118t124.5 46
t124.5 -46t48.5 -118t-48.5 -118t-124.5 -46zM1332 1581q-76 0 -124.5 46t-48.5 118t48.5 118t124.5 46t125 -46t49 -118t-49 -118t-125 -46z" />
    <glyph glyph-name="Yacute" unicode="&#xdd;" horiz-adv-x="1507" 
d="M856 0h-368l105 496l-296 947h383l159 -591h19l405 591h396l-700 -953zM1144 1596h-315l327 326h362z" />
    <glyph glyph-name="Thorn" unicode="&#xde;" horiz-adv-x="1436" 
d="M88 0l307 1443h368l-47 -219h238q196 0 324 -117t128 -296q0 -151 -75 -275t-212 -197t-308 -73h-301l-56 -266h-366zM652 941l-83 -395h206q121 0 194 62t73 165q0 81 -51.5 124.5t-149.5 43.5h-189z" />
    <glyph glyph-name="germandbls" unicode="&#xdf;" horiz-adv-x="1441" 
d="M423 0h-353l237 1094q36 167 184 266t362 99q232 0 378.5 -108.5t146.5 -281.5q0 -127 -81 -221.5t-206 -117.5l-4 -20q130 -28 200.5 -105t70.5 -195q0 -195 -139.5 -310.5t-369.5 -115.5q-161 0 -276 42l59 266q70 -35 159 -35q95 0 154 48.5t59 127.5
q0 71 -59.5 108.5t-164.5 37.5h-77l58 275h72q81 0 136.5 46t55.5 118q0 71 -50 115t-130 44q-82 0 -138 -52.5t-77 -151.5z" />
    <glyph glyph-name="agrave" unicode="&#xe0;" horiz-adv-x="1241" 
d="M557 229q78 0 139 45.5t76 113.5l18 83l-197 -6q-83 -3 -131 -37.5t-48 -90.5q0 -48 40 -78t103 -30zM398 -17q-140 0 -233.5 86.5t-93.5 216.5q0 171 134.5 271.5t370.5 107.5l257 7l14 67q5 30 5 35q0 48 -43 76.5t-114 28.5q-126 0 -167 -83h-324q34 157 174.5 250
t341.5 93q214 0 346 -92t132 -242q0 -47 -9 -90l-153 -715h-343l28 134h-19q-43 -69 -126 -110t-178 -41zM959 1288h-299l-214 359h344z" />
    <glyph glyph-name="aacute" unicode="&#xe1;" horiz-adv-x="1241" 
d="M557 229q78 0 139 45.5t76 113.5l18 83l-197 -6q-83 -3 -131 -37.5t-48 -90.5q0 -48 40 -78t103 -30zM398 -17q-140 0 -233.5 86.5t-93.5 216.5q0 171 134.5 271.5t370.5 107.5l257 7l14 67q5 30 5 35q0 48 -43 76.5t-114 28.5q-126 0 -167 -83h-324q34 157 174.5 250
t341.5 93q214 0 346 -92t132 -242q0 -47 -9 -90l-153 -715h-343l28 134h-19q-43 -69 -126 -110t-178 -41zM970 1288h-319l322 359h364z" />
    <glyph glyph-name="acircumflex" unicode="&#xe2;" horiz-adv-x="1241" 
d="M557 229q78 0 139 45.5t76 113.5l18 83l-197 -6q-83 -3 -131 -37.5t-48 -90.5q0 -48 40 -78t103 -30zM398 -17q-140 0 -233.5 86.5t-93.5 216.5q0 171 134.5 271.5t370.5 107.5l257 7l14 67q5 30 5 35q0 48 -43 76.5t-114 28.5q-126 0 -167 -83h-324q34 157 174.5 250
t341.5 93q214 0 346 -92t132 -242q0 -47 -9 -90l-153 -715h-343l28 134h-19q-43 -69 -126 -110t-178 -41zM991 1619l195 -359h-284l-90 202h-19l-177 -202h-311l348 359h338z" />
    <glyph glyph-name="atilde" unicode="&#xe3;" horiz-adv-x="1241" 
d="M557 229q78 0 139 45.5t76 113.5l18 83l-197 -6q-83 -3 -131 -37.5t-48 -90.5q0 -48 40 -78t103 -30zM398 -17q-140 0 -233.5 86.5t-93.5 216.5q0 171 134.5 271.5t370.5 107.5l257 7l14 67q5 30 5 35q0 48 -43 76.5t-114 28.5q-126 0 -167 -83h-324q34 157 174.5 250
t341.5 93q214 0 346 -92t132 -242q0 -47 -9 -90l-153 -715h-343l28 134h-19q-43 -69 -126 -110t-178 -41zM959 1257q-55 0 -103.5 24.5t-77.5 54t-61.5 54t-57.5 24.5q-72 0 -86 -119h-205q17 138 93 222.5t184 84.5q55 0 103.5 -24.5t77.5 -53.5t61.5 -53.5t57.5 -24.5
q73 0 86 118h206q-17 -138 -93.5 -222.5t-184.5 -84.5z" />
    <glyph glyph-name="adieresis" unicode="&#xe4;" horiz-adv-x="1241" 
d="M557 229q78 0 139 45.5t76 113.5l18 83l-197 -6q-83 -3 -131 -37.5t-48 -90.5q0 -48 40 -78t103 -30zM398 -17q-140 0 -233.5 86.5t-93.5 216.5q0 171 134.5 271.5t370.5 107.5l257 7l14 67q5 30 5 35q0 48 -43 76.5t-114 28.5q-126 0 -167 -83h-324q34 157 174.5 250
t341.5 93q214 0 346 -92t132 -242q0 -47 -9 -90l-153 -715h-343l28 134h-19q-43 -69 -126 -110t-178 -41zM544 1260q-76 0 -124.5 46t-48.5 118t48.5 118t124.5 46t124.5 -46t48.5 -118t-48.5 -118t-124.5 -46zM1045 1260q-76 0 -124.5 46t-48.5 118t48.5 118t124.5 46
t125 -46t49 -118t-49 -118t-125 -46z" />
    <glyph glyph-name="aring" unicode="&#xe5;" horiz-adv-x="1241" 
d="M557 229q78 0 139 45.5t76 113.5l18 83l-197 -6q-83 -3 -131 -37.5t-48 -90.5q0 -48 40 -78t103 -30zM398 -17q-140 0 -233.5 86.5t-93.5 216.5q0 171 134.5 271.5t370.5 107.5l257 7l14 67q5 30 5 35q0 48 -43 76.5t-114 28.5q-126 0 -167 -83h-324q34 157 174.5 250
t341.5 93q214 0 346 -92t132 -242q0 -47 -9 -90l-153 -715h-343l28 134h-19q-43 -69 -126 -110t-178 -41zM866 1260q-110 0 -181.5 69t-71.5 176q0 106 71.5 174t181.5 68t181 -68t71 -174q0 -107 -71 -176t-181 -69zM865 1407q43 0 70 27.5t27 69.5q0 41 -27.5 68.5
t-69.5 27.5q-42 -1 -69 -28t-27 -68q0 -43 27 -70t69 -27z" />
    <glyph glyph-name="ae" unicode="&#xe6;" horiz-adv-x="1956" 
d="M1309 -26q-122 0 -232.5 53t-155.5 134h-19q-57 -81 -169 -134t-246 -53q-179 0 -296.5 91.5t-117.5 226.5q0 178 131.5 277t374.5 106l257 7l13 57q5 17 5 35q0 48 -43 76.5t-114 28.5q-127 0 -166 -83h-324q35 162 171 252.5t335 90.5q112 0 202 -42t131 -109h19
q68 73 160 112t198 39q204 0 341 -133t137 -340q0 -85 -20 -187h-764v-21q0 -110 58.5 -169.5t153.5 -59.5q70 0 118.5 27.5t69.5 77.5h332q-41 -164 -186.5 -262t-353.5 -98zM1153 681h423q4 12 4 36q0 74 -50 122t-131 48q-88 0 -155 -56.5t-91 -149.5zM560 220
q76 0 138 49t76 119l18 83l-197 -6q-83 -3 -131 -37.5t-48 -92.5q0 -49 40.5 -82t103.5 -33z" />
    <glyph glyph-name="ccedilla" unicode="&#xe7;" horiz-adv-x="1249" 
d="M1227 713h-329q-1 73 -48 113t-121 40q-116 0 -187.5 -114.5t-71.5 -287.5q0 -108 50.5 -162.5t124.5 -54.5q73 0 125 39t74 113h331q-23 -165 -148 -282.5t-323 -138.5l-58 -90q148 -29 148 -167q0 -100 -73.5 -159t-197.5 -59q-114 0 -192 35l31 142q64 -25 139 -25
q85 0 85 52q0 57 -106 57h-59l20 126l61 95q-179 32 -280 153t-101 305q0 198 77 356t221.5 249t331.5 91q108 0 198.5 -33.5t149 -88.5t92 -122.5t36.5 -139.5v-12.5v-16v-13.5z" />
    <glyph glyph-name="egrave" unicode="&#xe8;" horiz-adv-x="1288" 
d="M486 681h423q3 18 3 36q0 74 -50 122t-131 48q-88 0 -155 -56.5t-90 -149.5zM639 -26q-234 0 -374.5 129.5t-140.5 352.5q0 305 171 494t445 189q216 0 355.5 -131t139.5 -342q0 -85 -20 -187h-765q-1 -4 -1 -21q0 -110 58.5 -169.5t153.5 -59.5q71 0 120 28t69 77h332
q-41 -165 -186.5 -262.5t-356.5 -97.5zM913 1288h-299l-214 359h344z" />
    <glyph glyph-name="eacute" unicode="&#xe9;" horiz-adv-x="1288" 
d="M486 681h423q3 18 3 36q0 74 -50 122t-131 48q-88 0 -155 -56.5t-90 -149.5zM639 -26q-234 0 -374.5 129.5t-140.5 352.5q0 305 171 494t445 189q216 0 355.5 -131t139.5 -342q0 -85 -20 -187h-765q-1 -4 -1 -21q0 -110 58.5 -169.5t153.5 -59.5q71 0 120 28t69 77h332
q-41 -165 -186.5 -262.5t-356.5 -97.5zM924 1288h-319l322 359h364z" />
    <glyph glyph-name="ecircumflex" unicode="&#xea;" horiz-adv-x="1288" 
d="M486 681h423q3 18 3 36q0 74 -50 122t-131 48q-88 0 -155 -56.5t-90 -149.5zM639 -26q-234 0 -374.5 129.5t-140.5 352.5q0 305 171 494t445 189q216 0 355.5 -131t139.5 -342q0 -85 -20 -187h-765q-1 -4 -1 -21q0 -110 58.5 -169.5t153.5 -59.5q71 0 120 28t69 77h332
q-41 -165 -186.5 -262.5t-356.5 -97.5zM999 1619l195 -359h-284l-90 202h-19l-177 -202h-311l348 359h338z" />
    <glyph glyph-name="edieresis" unicode="&#xeb;" horiz-adv-x="1288" 
d="M486 681h423q3 18 3 36q0 74 -50 122t-131 48q-88 0 -155 -56.5t-90 -149.5zM639 -26q-234 0 -374.5 129.5t-140.5 352.5q0 305 171 494t445 189q216 0 355.5 -131t139.5 -342q0 -85 -20 -187h-765q-1 -4 -1 -21q0 -110 58.5 -169.5t153.5 -59.5q71 0 120 28t69 77h332
q-41 -165 -186.5 -262.5t-356.5 -97.5zM552 1260q-76 0 -124.5 46t-48.5 118t48.5 118t124.5 46t124.5 -46t48.5 -118t-48.5 -118t-124.5 -46zM1053 1260q-76 0 -124.5 46t-48.5 118t48.5 118t124.5 46t125 -46t49 -118t-49 -118t-125 -46z" />
    <glyph glyph-name="igrave" unicode="&#xec;" horiz-adv-x="643" 
d="M62 0l236 1113h354l-237 -1113h-353zM651 1288h-299l-214 359h344z" />
    <glyph glyph-name="iacute" unicode="&#xed;" horiz-adv-x="643" 
d="M62 0l236 1113h354l-237 -1113h-353zM662 1288h-319l322 359h364z" />
    <glyph glyph-name="icircumflex" unicode="&#xee;" horiz-adv-x="643" 
d="M62 0l236 1113h354l-237 -1113h-353zM737 1619l195 -359h-284l-90 202h-19l-177 -202h-311l348 359h338z" />
    <glyph glyph-name="idieresis" unicode="&#xef;" horiz-adv-x="643" 
d="M62 0l236 1113h354l-237 -1113h-353zM290 1260q-76 0 -124.5 46t-48.5 118t48.5 118t124.5 46t124.5 -46t48.5 -118t-48.5 -118t-124.5 -46zM791 1260q-76 0 -124.5 46t-48.5 118t48.5 118t124.5 46t125 -46t49 -118t-49 -118t-125 -46z" />
    <glyph glyph-name="eth" unicode="&#xf0;" horiz-adv-x="1361" 
d="M656 -26q-233 0 -384 139t-151 352q0 170 68 309.5t188.5 219t267.5 79.5q100 0 184.5 -39t120.5 -101l19 -2q-8 138 -97 286l-291 -89l-33 161l218 67q-73 82 -179 161h403q42 -39 68 -70l262 84l35 -161l-192 -60q158 -248 158 -534q0 -161 -43 -302
q-71 -232 -237 -366t-385 -134zM942 609q0 96 -53.5 154.5t-141.5 58.5q-104 0 -182 -106t-78 -246q0 -97 52 -154.5t139 -57.5q104 0 184 106t80 245z" />
    <glyph glyph-name="ntilde" unicode="&#xf1;" horiz-adv-x="1331" 
d="M50 0l238 1113h343l-39 -181h19q56 93 144 145.5t201 52.5q150 0 238.5 -90t88.5 -232q0 -62 -15 -134l-143 -674h-352l132 619q8 39 8 76q0 68 -41.5 111.5t-114.5 43.5q-81 0 -138.5 -56.5t-76.5 -146.5l-139 -647h-353zM1039 1257q-55 0 -103.5 24.5t-77.5 54
t-61.5 54t-57.5 24.5q-72 0 -86 -119h-205q17 138 93 222.5t184 84.5q55 0 103.5 -24.5t77.5 -53.5t61.5 -53.5t57.5 -24.5q73 0 86 118h206q-17 -138 -93.5 -222.5t-184.5 -84.5z" />
    <glyph glyph-name="ograve" unicode="&#xf2;" horiz-adv-x="1331" 
d="M658 246q108 0 186 115t78 273q0 111 -43 173t-121 62q-111 0 -189 -115.5t-78 -279.5q0 -107 44.5 -167.5t122.5 -60.5zM774 1139q235 0 376 -136t141 -362q0 -141 -49.5 -264.5t-135 -212t-205.5 -139.5t-257 -51q-235 0 -377.5 136t-142.5 361q0 188 84.5 341
t233.5 240t332 87zM937 1288h-299l-214 359h344z" />
    <glyph glyph-name="oacute" unicode="&#xf3;" horiz-adv-x="1331" 
d="M658 246q108 0 186 115t78 273q0 111 -43 173t-121 62q-111 0 -189 -115.5t-78 -279.5q0 -107 44.5 -167.5t122.5 -60.5zM774 1139q235 0 376 -136t141 -362q0 -141 -49.5 -264.5t-135 -212t-205.5 -139.5t-257 -51q-235 0 -377.5 136t-142.5 361q0 188 84.5 341
t233.5 240t332 87zM948 1288h-319l322 359h364z" />
    <glyph glyph-name="ocircumflex" unicode="&#xf4;" horiz-adv-x="1331" 
d="M658 246q108 0 186 115t78 273q0 111 -43 173t-121 62q-111 0 -189 -115.5t-78 -279.5q0 -107 44.5 -167.5t122.5 -60.5zM774 1139q235 0 376 -136t141 -362q0 -141 -49.5 -264.5t-135 -212t-205.5 -139.5t-257 -51q-235 0 -377.5 136t-142.5 361q0 188 84.5 341
t233.5 240t332 87zM1023 1619l195 -359h-284l-90 202h-19l-177 -202h-311l348 359h338z" />
    <glyph glyph-name="otilde" unicode="&#xf5;" horiz-adv-x="1331" 
d="M658 246q108 0 186 115t78 273q0 111 -43 173t-121 62q-111 0 -189 -115.5t-78 -279.5q0 -107 44.5 -167.5t122.5 -60.5zM774 1139q235 0 376 -136t141 -362q0 -141 -49.5 -264.5t-135 -212t-205.5 -139.5t-257 -51q-235 0 -377.5 136t-142.5 361q0 188 84.5 341
t233.5 240t332 87zM991 1257q-55 0 -103.5 24.5t-77.5 54t-61.5 54t-57.5 24.5q-72 0 -86 -119h-205q17 138 93 222.5t184 84.5q55 0 103.5 -24.5t77.5 -53.5t61.5 -53.5t57.5 -24.5q73 0 86 118h206q-17 -138 -93.5 -222.5t-184.5 -84.5z" />
    <glyph glyph-name="odieresis" unicode="&#xf6;" horiz-adv-x="1331" 
d="M658 246q108 0 186 115t78 273q0 111 -43 173t-121 62q-111 0 -189 -115.5t-78 -279.5q0 -107 44.5 -167.5t122.5 -60.5zM774 1139q235 0 376 -136t141 -362q0 -141 -49.5 -264.5t-135 -212t-205.5 -139.5t-257 -51q-235 0 -377.5 136t-142.5 361q0 188 84.5 341
t233.5 240t332 87zM576 1260q-76 0 -124.5 46t-48.5 118t48.5 118t124.5 46t124.5 -46t48.5 -118t-48.5 -118t-124.5 -46zM1077 1260q-76 0 -124.5 46t-48.5 118t48.5 118t124.5 46t125 -46t49 -118t-49 -118t-125 -46z" />
    <glyph glyph-name="divide" unicode="&#xf7;" horiz-adv-x="1461" 
d="M1302 459h-1113l55 255h1113zM849 815q-86 0 -136.5 49t-50.5 120q0 81 50 132.5t137 51.5q85 0 135.5 -49.5t50.5 -120.5q0 -81 -50 -132t-136 -51zM676 4q-86 0 -136.5 49t-50.5 120q0 81 50 132.5t137 51.5q85 0 136 -49.5t51 -120.5q0 -81 -50 -132t-137 -51z" />
    <glyph glyph-name="oslash" unicode="&#xf8;" horiz-adv-x="1344" 
d="M911 731l-361 -442q43 -43 108 -43q108 0 186 115t78 273q0 53 -11 97zM498 398l356 437q-40 34 -96 34q-111 0 -189 -115.5t-78 -279.5q0 -44 7 -76zM1243 1137l-102 -125q150 -136 150 -371q0 -141 -49.5 -264.5t-135 -212t-205.5 -139.5t-257 -51q-169 0 -292 72
l-109 -133l-90 61l112 137q-141 136 -141 360q0 188 84.5 341t233.5 240t332 87q158 0 276 -63l96 118z" />
    <glyph glyph-name="ugrave" unicode="&#xf9;" horiz-adv-x="1332" 
d="M1352 1113l-235 -1113h-344l37 175h-19q-112 -201 -325 -201q-155 0 -250 88t-95 238q0 54 15 141l141 672h355l-131 -615q-7 -35 -7 -73q0 -161 155 -161q83 0 137 54.5t75 151.5l137 643h354zM990 1288h-299l-214 359h344z" />
    <glyph glyph-name="uacute" unicode="&#xfa;" horiz-adv-x="1332" 
d="M1352 1113l-235 -1113h-344l37 175h-19q-112 -201 -325 -201q-155 0 -250 88t-95 238q0 54 15 141l141 672h355l-131 -615q-7 -35 -7 -73q0 -161 155 -161q83 0 137 54.5t75 151.5l137 643h354zM1001 1288h-319l322 359h364z" />
    <glyph glyph-name="ucircumflex" unicode="&#xfb;" horiz-adv-x="1332" 
d="M1352 1113l-235 -1113h-344l37 175h-19q-112 -201 -325 -201q-155 0 -250 88t-95 238q0 54 15 141l141 672h355l-131 -615q-7 -35 -7 -73q0 -161 155 -161q83 0 137 54.5t75 151.5l137 643h354zM1076 1619l195 -359h-284l-90 202h-19l-177 -202h-311l348 359h338z" />
    <glyph glyph-name="udieresis" unicode="&#xfc;" horiz-adv-x="1332" 
d="M1352 1113l-235 -1113h-344l37 175h-19q-112 -201 -325 -201q-155 0 -250 88t-95 238q0 54 15 141l141 672h355l-131 -615q-7 -35 -7 -73q0 -161 155 -161q83 0 137 54.5t75 151.5l137 643h354zM629 1260q-76 0 -124.5 46t-48.5 118t48.5 118t124.5 46t124.5 -46
t48.5 -118t-48.5 -118t-124.5 -46zM1130 1260q-76 0 -124.5 46t-48.5 118t48.5 118t124.5 46t125 -46t49 -118t-49 -118t-125 -46z" />
    <glyph glyph-name="yacute" unicode="&#xfd;" horiz-adv-x="1258" 
d="M117 -407q-129 0 -141 3l57 268q12 -3 70 -3q176 0 215 99l12 33l-127 1120h363l30 -809h19l370 809h377l-600 -1123q-113 -215 -262.5 -306t-382.5 -91zM965 1288h-319l322 359h364z" />
    <glyph glyph-name="thorn" unicode="&#xfe;" horiz-adv-x="1378" 
d="M693 266q113 0 192.5 110t79.5 271q0 100 -50 154.5t-128 54.5q-112 0 -193 -113t-81 -266q0 -100 51 -155.5t129 -55.5zM449 200l-115 -539h-354l393 1847h354l-117 -550h19q54 80 138 126.5t190 46.5q167 0 271 -114.5t104 -309.5q0 -206 -73 -372t-200 -259t-283 -93
q-118 0 -199.5 59.5t-108.5 157.5h-19z" />
    <glyph glyph-name="ydieresis" unicode="&#xff;" horiz-adv-x="1258" 
d="M117 -407q-129 0 -141 3l57 268q12 -3 70 -3q176 0 215 99l12 33l-127 1120h363l30 -809h19l370 809h377l-600 -1123q-113 -215 -262.5 -306t-382.5 -91zM593 1260q-76 0 -124.5 46t-48.5 118t48.5 118t124.5 46t124.5 -46t48.5 -118t-48.5 -118t-124.5 -46zM1094 1260
q-76 0 -124.5 46t-48.5 118t48.5 118t124.5 46t125 -46t49 -118t-49 -118t-125 -46z" />
    <glyph glyph-name="Amacron" unicode="&#x100;" horiz-adv-x="1564" 
d="M933 1117l-274 -536h333l-39 536h-20zM1026 0l-23 317h-473l-162 -317h-378l806 1443h446l166 -1443h-382zM1493 1835l-42 -198h-782l42 198h782z" />
    <glyph glyph-name="amacron" unicode="&#x101;" horiz-adv-x="1241" 
d="M557 229q78 0 139 45.5t76 113.5l18 83l-197 -6q-83 -3 -131 -37.5t-48 -90.5q0 -48 40 -78t103 -30zM398 -17q-140 0 -233.5 86.5t-93.5 216.5q0 171 134.5 271.5t370.5 107.5l257 7l14 67q5 30 5 35q0 48 -43 76.5t-114 28.5q-126 0 -167 -83h-324q34 157 174.5 250
t341.5 93q214 0 346 -92t132 -242q0 -47 -9 -90l-153 -715h-343l28 134h-19q-43 -69 -126 -110t-178 -41zM1200 1525l-42 -198h-767l42 198h767z" />
    <glyph glyph-name="Abreve" unicode="&#x102;" horiz-adv-x="1564" 
d="M933 1117l-274 -536h333l-39 536h-20zM1026 0l-23 317h-473l-162 -317h-378l806 1443h446l166 -1443h-382zM670 1932h233q-1 -9 -1 -25q0 -61 49 -100.5t125 -39.5q163 0 197 165h232q-20 -160 -136 -255.5t-301 -95.5q-175 0 -288 89t-113 222q0 20 3 40z" />
    <glyph glyph-name="abreve" unicode="&#x103;" horiz-adv-x="1241" 
d="M557 229q78 0 139 45.5t76 113.5l18 83l-197 -6q-83 -3 -131 -37.5t-48 -90.5q0 -48 40 -78t103 -30zM398 -17q-140 0 -233.5 86.5t-93.5 216.5q0 171 134.5 271.5t370.5 107.5l257 7l14 67q5 30 5 35q0 48 -43 76.5t-114 28.5q-126 0 -167 -83h-324q34 157 174.5 250
t341.5 93q214 0 346 -92t132 -242q0 -47 -9 -90l-153 -715h-343l28 134h-19q-43 -69 -126 -110t-178 -41zM402 1620h234q-1 -9 -1 -29q0 -64 48 -104.5t125 -40.5q170 0 201 174h233q-17 -166 -134 -263t-308 -97q-177 0 -289 89t-112 224q0 25 3 47z" />
    <glyph glyph-name="Aogonek" unicode="&#x104;" horiz-adv-x="1564" 
d="M1271 -286l-38 -179q-36 -14 -110 -14q-137 0 -220 60.5t-83 159.5q0 79 56.5 153t148.5 113l-22 310h-473l-162 -317h-378l806 1443h446l166 -1443l-66 -3q-106 -8 -180.5 -63t-74.5 -127q0 -45 35.5 -71t96.5 -26q36 0 52 4zM933 1117l-274 -536h333l-39 536h-20z" />
    <glyph glyph-name="aogonek" unicode="&#x105;" horiz-adv-x="1241" 
d="M557 229q78 0 139 45.5t76 113.5l18 83l-197 -6q-83 -3 -131 -37.5t-48 -90.5q0 -48 40 -78t103 -30zM911 -465q-38 -14 -110 -14q-137 0 -220 60.5t-83 159.5q0 79 54 146t138 100l31 147h-19q-43 -69 -126 -110t-178 -41q-140 0 -233.5 86.5t-93.5 216.5
q0 171 134.5 271.5t370.5 107.5l257 7l14 67q5 30 5 35q0 48 -43 76.5t-114 28.5q-126 0 -167 -83h-324q34 157 174.5 250t341.5 93q214 0 346 -92t132 -242q0 -47 -9 -90l-153 -717l-15 -1q-105 -8 -180.5 -63.5t-75.5 -126.5q0 -45 36 -71t97 -26q37 0 51 4z" />
    <glyph glyph-name="Cacute" unicode="&#x106;" horiz-adv-x="1570" 
d="M1224 908q1 3 1 19q-3 110 -77 178.5t-191 68.5q-116 0 -211 -75t-149.5 -208t-54.5 -296q0 -151 73.5 -239t199.5 -88q112 0 200.5 62.5t122.5 165.5h356q-44 -242 -237.5 -388.5t-469.5 -146.5q-282 0 -450 167t-168 446q0 263 103.5 470.5t288 322.5t418.5 115
q167 0 305 -68t217 -186.5t79 -261.5q0 -37 -3 -58h-353zM1137 1597h-315l327 326h362z" />
    <glyph glyph-name="cacute" unicode="&#x107;" horiz-adv-x="1256" 
d="M751 1139q108 0 198.5 -33.5t149 -88.5t92 -122.5t36.5 -139.5v-12.5v-16v-13.5h-329q-1 73 -48 113t-121 40q-116 0 -187.5 -114.5t-71.5 -287.5q0 -108 50.5 -162.5t124.5 -54.5q73 0 125 39t74 113h331q-26 -182 -172.5 -303.5t-376.5 -121.5q-233 0 -369 127
t-136 342q0 198 77 356t221.5 249t331.5 91zM942 1288h-319l322 359h364z" />
    <glyph glyph-name="Ccircumflex" unicode="&#x108;" horiz-adv-x="1570" 
d="M1224 908q1 3 1 19q-3 110 -77 178.5t-191 68.5q-116 0 -211 -75t-149.5 -208t-54.5 -296q0 -151 73.5 -239t199.5 -88q112 0 200.5 62.5t122.5 165.5h356q-44 -242 -237.5 -388.5t-469.5 -146.5q-282 0 -450 167t-168 446q0 263 103.5 470.5t288 322.5t418.5 115
q167 0 305 -68t217 -186.5t79 -261.5q0 -37 -3 -58h-353zM1231 1946l189 -349h-283l-85 193h-19l-167 -193h-310l337 349h338z" />
    <glyph glyph-name="ccircumflex" unicode="&#x109;" horiz-adv-x="1256" 
d="M751 1139q108 0 198.5 -33.5t149 -88.5t92 -122.5t36.5 -139.5v-12.5v-16v-13.5h-329q-1 73 -48 113t-121 40q-116 0 -187.5 -114.5t-71.5 -287.5q0 -108 50.5 -162.5t124.5 -54.5q73 0 125 39t74 113h331q-26 -182 -172.5 -303.5t-376.5 -121.5q-233 0 -369 127
t-136 342q0 198 77 356t221.5 249t331.5 91zM1017 1619l195 -359h-284l-90 202h-19l-177 -202h-311l348 359h338z" />
    <glyph glyph-name="Cdotaccent" unicode="&#x10a;" horiz-adv-x="1570" 
d="M1224 908q1 3 1 19q-3 110 -77 178.5t-191 68.5q-116 0 -211 -75t-149.5 -208t-54.5 -296q0 -151 73.5 -239t199.5 -88q112 0 200.5 62.5t122.5 165.5h356q-44 -242 -237.5 -388.5t-469.5 -146.5q-282 0 -450 167t-168 446q0 263 103.5 470.5t288 322.5t418.5 115
q167 0 305 -68t217 -186.5t79 -261.5q0 -37 -3 -58h-353zM1037 1582q-79 0 -128 48.5t-49 123.5t49 123.5t128 48.5q78 0 127 -48.5t49 -123.5t-49 -123.5t-127 -48.5z" />
    <glyph glyph-name="cdotaccent" unicode="&#x10b;" horiz-adv-x="1256" 
d="M751 1139q108 0 198.5 -33.5t149 -88.5t92 -122.5t36.5 -139.5v-12.5v-16v-13.5h-329q-1 73 -48 113t-121 40q-116 0 -187.5 -114.5t-71.5 -287.5q0 -108 50.5 -162.5t124.5 -54.5q73 0 125 39t74 113h331q-26 -182 -172.5 -303.5t-376.5 -121.5q-233 0 -369 127
t-136 342q0 198 77 356t221.5 249t331.5 91zM826 1269q-76 0 -127 50.5t-51 127.5t51 127.5t127 50.5q77 0 128 -51t51 -127t-51 -127t-128 -51z" />
    <glyph glyph-name="Ccaron" unicode="&#x10c;" horiz-adv-x="1570" 
d="M1224 908q1 3 1 19q-3 110 -77 178.5t-191 68.5q-116 0 -211 -75t-149.5 -208t-54.5 -296q0 -151 73.5 -239t199.5 -88q112 0 200.5 62.5t122.5 165.5h356q-44 -242 -237.5 -388.5t-469.5 -146.5q-282 0 -450 167t-168 446q0 263 103.5 470.5t288 322.5t418.5 115
q167 0 305 -68t217 -186.5t79 -261.5q0 -37 -3 -58h-353zM845 1597l-189 349h283l85 -192h19l166 192h311l-337 -349h-338z" />
    <glyph glyph-name="ccaron" unicode="&#x10d;" horiz-adv-x="1256" 
d="M751 1139q108 0 198.5 -33.5t149 -88.5t92 -122.5t36.5 -139.5v-12.5v-16v-13.5h-329q-1 73 -48 113t-121 40q-116 0 -187.5 -114.5t-71.5 -287.5q0 -108 50.5 -162.5t124.5 -54.5q73 0 125 39t74 113h331q-26 -182 -172.5 -303.5t-376.5 -121.5q-233 0 -369 127
t-136 342q0 198 77 356t221.5 249t331.5 91zM970 1260h-338l-194 359h282l90 -202h20l176 202h312z" />
    <glyph glyph-name="Dcaron" unicode="&#x10e;" horiz-adv-x="1561" 
d="M394 1443h569q264 0 417.5 -151t153.5 -419q0 -251 -95 -449.5t-268.5 -311t-394.5 -112.5h-688zM701 1149l-180 -855h210q188 0 307 146.5t119 389.5q0 147 -77 233t-213 86h-166zM745 1596l-189 349h283l85 -192h19l166 192h311l-337 -349h-338z" />
    <glyph glyph-name="dcaron" unicode="&#x10f;" horiz-adv-x="1666" 
d="M1621 1530h294l-158 -510h-244zM493 -17q-169 0 -273 114.5t-104 313.5q0 154 43.5 288.5t118 228.5t178 148t220.5 54q121 0 201 -56t107 -145h20l127 601h355l-325 -1530h-345l33 155h-19q-125 -172 -337 -172zM663 257q112 0 192.5 113t80.5 266q0 100 -51 155.5
t-129 55.5q-114 0 -193.5 -108t-79.5 -268q0 -101 51 -157.5t129 -56.5z" />
    <glyph glyph-name="Dcroat" unicode="&#x110;" horiz-adv-x="1561" 
d="M521 294h210q188 0 307 146.5t119 389.5q0 147 -77 233t-213 86h-166l-63 -297h192l-54 -252h-191zM394 1443h569q264 0 417.5 -151t153.5 -419q0 -251 -95 -449.5t-268.5 -311t-394.5 -112.5h-688l127 600h-137l54 252h137z" />
    <glyph glyph-name="dcroat" unicode="&#x111;" horiz-adv-x="1390" 
d="M663 257q112 0 192.5 113t80.5 266q0 100 -51 155.5t-129 55.5q-114 0 -193.5 -108t-79.5 -268q0 -101 51 -157.5t129 -56.5zM1617 1413l-34 -164h-157l-265 -1249h-345l33 155h-19q-125 -172 -337 -172q-169 0 -273 114.5t-104 313.5q0 154 43.5 288.5t118 228.5
t178 148t220.5 54q121 0 201 -56t107 -145h20l68 320h-208l34 164h208l25 117h355l-25 -117h156z" />
    <glyph glyph-name="Emacron" unicode="&#x112;" horiz-adv-x="1302" 
d="M1139 295l-63 -295h-989l307 1443h989l-64 -295h-621l-61 -288h584l-57 -270h-584l-63 -295h622zM1364 1835l-42 -198h-782l42 198h782z" />
    <glyph glyph-name="emacron" unicode="&#x113;" horiz-adv-x="1288" 
d="M486 681h423q3 18 3 36q0 74 -50 122t-131 48q-88 0 -155 -56.5t-90 -149.5zM639 -26q-234 0 -374.5 129.5t-140.5 352.5q0 305 171 494t445 189q216 0 355.5 -131t139.5 -342q0 -85 -20 -187h-765q-1 -4 -1 -21q0 -110 58.5 -169.5t153.5 -59.5q71 0 120 28t69 77h332
q-41 -165 -186.5 -262.5t-356.5 -97.5zM1208 1525l-42 -198h-767l42 198h767z" />
    <glyph glyph-name="Ebreve" unicode="&#x114;" horiz-adv-x="1302" 
d="M1139 295l-63 -295h-989l307 1443h989l-64 -295h-621l-61 -288h584l-57 -270h-584l-63 -295h622zM541 1932h233q-1 -9 -1 -25q0 -61 49 -100.5t125 -39.5q163 0 197 165h232q-20 -160 -136 -255.5t-301 -95.5q-175 0 -288 89t-113 222q0 20 3 40z" />
    <glyph glyph-name="ebreve" unicode="&#x115;" horiz-adv-x="1288" 
d="M486 681h423q3 18 3 36q0 74 -50 122t-131 48q-88 0 -155 -56.5t-90 -149.5zM639 -26q-234 0 -374.5 129.5t-140.5 352.5q0 305 171 494t445 189q216 0 355.5 -131t139.5 -342q0 -85 -20 -187h-765q-1 -4 -1 -21q0 -110 58.5 -169.5t153.5 -59.5q71 0 120 28t69 77h332
q-41 -165 -186.5 -262.5t-356.5 -97.5zM410 1620h234q-1 -9 -1 -29q0 -64 48 -104.5t125 -40.5q170 0 201 174h233q-17 -166 -134 -263t-308 -97q-177 0 -289 89t-112 224q0 25 3 47z" />
    <glyph glyph-name="Edotaccent" unicode="&#x116;" horiz-adv-x="1302" 
d="M1139 295l-63 -295h-989l307 1443h989l-64 -295h-621l-61 -288h584l-57 -270h-584l-63 -295h622zM959 1581q-79 0 -128 48.5t-49 123.5t49 123.5t128 48.5q78 0 127 -48.5t49 -123.5t-49 -123.5t-127 -48.5z" />
    <glyph glyph-name="edotaccent" unicode="&#x117;" horiz-adv-x="1288" 
d="M486 681h423q3 18 3 36q0 74 -50 122t-131 48q-88 0 -155 -56.5t-90 -149.5zM639 -26q-234 0 -374.5 129.5t-140.5 352.5q0 305 171 494t445 189q216 0 355.5 -131t139.5 -342q0 -85 -20 -187h-765q-1 -4 -1 -21q0 -110 58.5 -169.5t153.5 -59.5q71 0 120 28t69 77h332
q-41 -165 -186.5 -262.5t-356.5 -97.5zM808 1269q-76 0 -127 50.5t-51 127.5t51 127.5t127 50.5q77 0 128 -51t51 -127t-51 -127t-128 -51z" />
    <glyph glyph-name="Eogonek" unicode="&#x118;" horiz-adv-x="1302" 
d="M87 0l307 1443h989l-64 -295h-621l-61 -288h584l-57 -270h-584l-63 -295h622l-63 -295l-43 -3q-107 -7 -181.5 -63t-74.5 -127q0 -45 35.5 -71t97.5 -26q37 0 51 4l-38 -179q-36 -14 -109 -14q-137 0 -220.5 60.5t-83.5 159.5q0 76 50.5 142t126.5 98l4 19h-604z" />
    <glyph glyph-name="eogonek" unicode="&#x119;" horiz-adv-x="1290" 
d="M797 -479q-136 0 -219.5 60.5t-83.5 159.5q0 66 47 128t116 87l4 20q-12 -2 -22 -2q-236 0 -375.5 130.5t-139.5 351.5q0 304 171 493.5t445 189.5q218 0 356.5 -132.5t138.5 -340.5q0 -83 -20 -187h-765q-1 -6 -1 -21q0 -106 57 -167.5t155 -61.5q70 0 119.5 27.5
t69.5 77.5h332q-41 -172 -219 -282q-108 -68 -155 -124.5t-47 -120.5q0 -45 35.5 -71t96.5 -26q36 0 52 4l-38 -179q-40 -14 -110 -14zM486 681h423q3 18 3 36q0 75 -50.5 122.5t-130.5 47.5q-87 0 -154 -56t-91 -150z" />
    <glyph glyph-name="Ecaron" unicode="&#x11a;" horiz-adv-x="1302" 
d="M1139 295l-63 -295h-989l307 1443h989l-64 -295h-621l-61 -288h584l-57 -270h-584l-63 -295h622zM767 1596l-189 349h283l85 -192h19l166 192h311l-337 -349h-338z" />
    <glyph glyph-name="ecaron" unicode="&#x11b;" horiz-adv-x="1288" 
d="M486 681h423q3 18 3 36q0 74 -50 122t-131 48q-88 0 -155 -56.5t-90 -149.5zM639 -26q-234 0 -374.5 129.5t-140.5 352.5q0 305 171 494t445 189q216 0 355.5 -131t139.5 -342q0 -85 -20 -187h-765q-1 -4 -1 -21q0 -110 58.5 -169.5t153.5 -59.5q71 0 120 28t69 77h332
q-41 -165 -186.5 -262.5t-356.5 -97.5zM952 1260h-338l-194 359h282l90 -202h20l176 202h312z" />
    <glyph glyph-name="Gcircumflex" unicode="&#x11c;" horiz-adv-x="1588" 
d="M1557 770l-35 -180q-58 -306 -244.5 -467.5t-480.5 -161.5q-283 0 -454.5 169t-171.5 449q0 263 102 469t285.5 320t417.5 114q163 0 301.5 -64t219.5 -174t83 -240q1 -14 -1 -33h-353q-3 87 -80 144t-192 57q-177 0 -293.5 -161.5t-116.5 -410.5q0 -151 76 -240t206 -89
q125 0 212.5 63.5t108.5 169.5l2 13h-258l53 253h613zM1228 1947l189 -349h-283l-85 193h-19l-167 -193h-310l337 349h338z" />
    <glyph glyph-name="gcircumflex" unicode="&#x11d;" horiz-adv-x="1369" 
d="M544 -419q-241 0 -388 97t-140 248h345q3 -49 58 -79t146 -30q195 0 231 166l41 193h-19q-104 -152 -324 -152q-166 0 -270.5 113t-104.5 297q0 191 73.5 351.5t200 252.5t277.5 92q114 0 200 -56.5t115 -150.5h19l42 190h345l-247 -1154q-38 -178 -196 -278t-404 -100z
M660 264q111 0 190.5 109.5t79.5 262.5q0 96 -49.5 153.5t-132.5 57.5q-113 0 -190.5 -106t-77.5 -263q0 -98 49 -156t131 -58zM1002 1620l195 -359h-284l-90 202h-19l-177 -202h-311l348 359h338z" />
    <glyph glyph-name="Gbreve" unicode="&#x11e;" horiz-adv-x="1588" 
d="M1557 770l-35 -180q-58 -306 -244.5 -467.5t-480.5 -161.5q-283 0 -454.5 169t-171.5 449q0 263 102 469t285.5 320t417.5 114q163 0 301.5 -64t219.5 -174t83 -240q1 -14 -1 -33h-353q-3 87 -80 144t-192 57q-177 0 -293.5 -161.5t-116.5 -410.5q0 -151 76 -240t206 -89
q125 0 212.5 63.5t108.5 169.5l2 13h-258l53 253h613zM616 1934h233q-1 -9 -1 -25q0 -61 49 -100.5t125 -39.5q163 0 197 165h232q-20 -160 -136 -255.5t-301 -95.5q-175 0 -288 89t-113 222q0 20 3 40z" />
    <glyph glyph-name="gbreve" unicode="&#x11f;" horiz-adv-x="1369" 
d="M544 -419q-241 0 -388 97t-140 248h345q3 -49 58 -79t146 -30q195 0 231 166l41 193h-19q-104 -152 -324 -152q-166 0 -270.5 113t-104.5 297q0 191 73.5 351.5t200 252.5t277.5 92q114 0 200 -56.5t115 -150.5h19l42 190h345l-247 -1154q-38 -178 -196 -278t-404 -100z
M660 264q111 0 190.5 109.5t79.5 262.5q0 96 -49.5 153.5t-132.5 57.5q-113 0 -190.5 -106t-77.5 -263q0 -98 49 -156t131 -58zM413 1621h234q-1 -9 -1 -29q0 -64 48 -104.5t125 -40.5q170 0 201 174h233q-17 -166 -134 -263t-308 -97q-177 0 -289 89t-112 224q0 24 3 47z
" />
    <glyph glyph-name="Gdotaccent" unicode="&#x120;" horiz-adv-x="1588" 
d="M1557 770l-35 -180q-58 -306 -244.5 -467.5t-480.5 -161.5q-283 0 -454.5 169t-171.5 449q0 263 102 469t285.5 320t417.5 114q163 0 301.5 -64t219.5 -174t83 -240q1 -14 -1 -33h-353q-3 87 -80 144t-192 57q-177 0 -293.5 -161.5t-116.5 -410.5q0 -151 76 -240t206 -89
q125 0 212.5 63.5t108.5 169.5l2 13h-258l53 253h613zM1034 1583q-79 0 -128 48.5t-49 123.5t49 123.5t128 48.5q78 0 127 -48.5t49 -123.5t-49 -123.5t-127 -48.5z" />
    <glyph glyph-name="gdotaccent" unicode="&#x121;" horiz-adv-x="1369" 
d="M544 -419q-241 0 -388 97t-140 248h345q3 -49 58 -79t146 -30q195 0 231 166l41 193h-19q-104 -152 -324 -152q-166 0 -270.5 113t-104.5 297q0 191 73.5 351.5t200 252.5t277.5 92q114 0 200 -56.5t115 -150.5h19l42 190h345l-247 -1154q-38 -178 -196 -278t-404 -100z
M660 264q111 0 190.5 109.5t79.5 262.5q0 96 -49.5 153.5t-132.5 57.5q-113 0 -190.5 -106t-77.5 -263q0 -98 49 -156t131 -58zM811 1270q-77 0 -127.5 51t-50.5 127t50.5 127t127.5 51t128 -51t51 -127t-51 -127t-128 -51z" />
    <glyph glyph-name="Gcommaaccent" unicode="&#x122;" horiz-adv-x="1588" 
d="M1557 770l-35 -180q-58 -306 -244.5 -467.5t-480.5 -161.5q-283 0 -454.5 169t-171.5 449q0 263 102 469t285.5 320t417.5 114q163 0 301.5 -64t219.5 -174t83 -240q1 -14 -1 -33h-353q-3 87 -80 144t-192 57q-177 0 -293.5 -161.5t-116.5 -410.5q0 -151 76 -240t206 -89
q125 0 212.5 63.5t108.5 169.5l2 13h-258l53 253h613zM762 -505h-306l167 350h350z" />
    <glyph glyph-name="gcommaaccent" unicode="&#x123;" horiz-adv-x="1369" 
d="M544 -419q-241 0 -388 97t-140 248h345q3 -49 58 -79t146 -30q195 0 231 166l41 193h-19q-104 -152 -324 -152q-166 0 -270.5 113t-104.5 297q0 191 73.5 351.5t200 252.5t277.5 92q114 0 200 -56.5t115 -150.5h19l42 190h345l-247 -1154q-38 -178 -196 -278t-404 -100z
M660 264q111 0 190.5 109.5t79.5 262.5q0 96 -49.5 153.5t-132.5 57.5q-113 0 -190.5 -106t-77.5 -263q0 -98 49 -156t131 -58zM1098 1643h306l-167 -350h-350z" />
    <glyph glyph-name="Hcircumflex" unicode="&#x124;" horiz-adv-x="1650" 
d="M1396 0h-368l123 582h-574l-124 -582h-366l307 1443h367l-120 -566h574l121 566h367zM1313 1945l189 -349h-283l-85 193h-19l-167 -193h-310l337 349h338z" />
    <glyph glyph-name="hcircumflex" unicode="&#x125;" horiz-adv-x="1346" 
d="M57 0l323 1519h353l-124 -574h19q117 189 338 189q154 0 243.5 -87.5t89.5 -226.5q0 -62 -15 -134l-144 -686h-352l132 631q9 45 9 76q0 70 -44.5 111t-116.5 41q-83 0 -141 -55t-77 -145l-140 -659h-353zM817 2021l189 -349h-283l-85 193h-19l-167 -193h-310l337 349
h338z" />
    <glyph glyph-name="Hbar" unicode="&#x126;" horiz-adv-x="1649" 
d="M1215 877l36 170h-574l-36 -170h574zM1792 1278l-49 -231h-124l-223 -1047h-368l123 582h-574l-124 -582h-366l223 1047h-124l49 231h124l35 165h367l-35 -165h575l35 165h367l-35 -165h124z" />
    <glyph glyph-name="hbar" unicode="&#x127;" horiz-adv-x="1346" 
d="M609 945h19q117 189 338 189q154 0 243.5 -87.5t89.5 -226.5q0 -62 -15 -134l-144 -686h-352l132 631q9 45 9 76q0 70 -44.5 111t-116.5 41q-83 0 -141 -55t-77 -145l-140 -659h-353l266 1249h-155l36 172h155l21 98h353l-21 -98h210l-37 -172h-210z" />
    <glyph glyph-name="Itilde" unicode="&#x128;" horiz-adv-x="707" 
d="M454 0h-367l307 1443h367zM798 1571q-55 0 -103.5 24.5t-77.5 54t-61.5 54t-57.5 24.5q-72 0 -86 -119h-205q17 138 93 222.5t184 84.5q55 0 103.5 -24.5t77.5 -53.5t61.5 -53.5t57.5 -24.5q73 0 86 118h206q-17 -138 -93.5 -222.5t-184.5 -84.5z" />
    <glyph glyph-name="itilde" unicode="&#x129;" horiz-adv-x="643" 
d="M62 0l236 1113h354l-237 -1113h-353zM705 1257q-55 0 -103.5 24.5t-77.5 54t-61.5 54t-57.5 24.5q-72 0 -86 -119h-205q17 138 93 222.5t184 84.5q55 0 103.5 -24.5t77.5 -53.5t61.5 -53.5t57.5 -24.5q73 0 86 118h206q-17 -138 -93.5 -222.5t-184.5 -84.5z" />
    <glyph glyph-name="Imacron" unicode="&#x12a;" horiz-adv-x="707" 
d="M454 0h-367l307 1443h367zM1053 1835l-42 -198h-782l42 198h782z" />
    <glyph glyph-name="imacron" unicode="&#x12b;" horiz-adv-x="643" 
d="M62 0l236 1113h354l-237 -1113h-353zM852 1525l-35 -198h-652l35 198h652z" />
    <glyph glyph-name="Ibreve" unicode="&#x12c;" horiz-adv-x="707" 
d="M454 0h-367l307 1443h367zM230 1932h233q-1 -9 -1 -25q0 -61 49 -100.5t125 -39.5q163 0 197 165h232q-20 -160 -136 -255.5t-301 -95.5q-175 0 -288 89t-113 222q0 20 3 40z" />
    <glyph glyph-name="ibreve" unicode="&#x12d;" horiz-adv-x="643" 
d="M62 0l236 1113h354l-237 -1113h-353zM148 1620h234q-1 -9 -1 -29q0 -64 48 -104.5t125 -40.5q170 0 201 174h233q-17 -166 -134 -263t-308 -97q-177 0 -289 89t-112 224q0 25 3 47z" />
    <glyph glyph-name="Iogonek" unicode="&#x12e;" horiz-adv-x="707" 
d="M231 -479q-146 0 -228 60t-82 150q0 75 43.5 139.5t117.5 105.5l312 1467h367l-307 -1445l-28 -1q-94 -8 -164 -63t-70 -127q0 -45 35.5 -71t97.5 -26q23 0 51 4l-39 -179q-42 -14 -106 -14z" />
    <glyph glyph-name="iogonek" unicode="&#x12f;" horiz-adv-x="643" 
d="M309 -465q-41 -14 -107 -14q-138 0 -223.5 58t-85.5 152q0 74 42.5 139t121.5 108l241 1135h354l-237 -1115l-17 -1q-96 -7 -165 -63t-69 -127q0 -45 35.5 -71t96.5 -26q23 0 51 4zM537 1242q-90 0 -145 41.5t-55 109.5q0 73 55.5 118.5t144.5 45.5q90 0 144.5 -41.5
t54.5 -109.5q0 -73 -55 -118.5t-144 -45.5z" />
    <glyph glyph-name="Idotaccent" unicode="&#x130;" horiz-adv-x="708" 
d="M454 0h-367l307 1443h367zM648 1581q-79 0 -128 48.5t-49 123.5t49 123.5t128 48.5q78 0 127 -48.5t49 -123.5t-49 -123.5t-127 -48.5z" />
    <glyph glyph-name="dotlessi" unicode="&#x131;" horiz-adv-x="643" 
d="M62 0l236 1113h354l-237 -1113h-353z" />
    <glyph glyph-name="IJ" unicode="&#x132;" horiz-adv-x="2003" 
d="M454 0h-367l307 1443h367zM786 400q0 22 3 43h351v-13q1 -70 43 -112t114 -42q146 0 185 186l209 981h366l-218 -1027q-47 -221 -187 -338t-362 -117q-229 0 -367.5 121t-136.5 318z" />
    <glyph glyph-name="ij" unicode="&#x133;" horiz-adv-x="1286" 
d="M62 0l236 1113h354l-237 -1113h-353zM537 1242q-92 0 -146 42t-54 109q0 71 54 117.5t146 46.5t145.5 -42t53.5 -109q0 -72 -53.5 -118t-145.5 -46zM1180 1242q-91 0 -145 42t-54 109q0 71 54 117.5t145 46.5q92 0 146 -42t54 -109q0 -71 -54 -117.5t-146 -46.5z
M1296 1113l-246 -1161q-35 -164 -147 -247t-289 -83q-87 0 -166 15l57 255q25 -7 69 -7q107 0 129 103l239 1125h354z" />
    <glyph glyph-name="Jcircumflex" unicode="&#x134;" horiz-adv-x="1295" 
d="M78 400q0 22 3 43h351v-13q1 -70 43 -112t114 -42q146 0 185 186l209 981h366l-218 -1027q-47 -221 -187 -338t-362 -117q-229 0 -367.5 121t-136.5 318zM1430 1945l189 -349h-283l-85 193h-19l-167 -193h-310l337 349h338z" />
    <glyph glyph-name="jcircumflex" unicode="&#x135;" horiz-adv-x="643" 
d="M652 1113l-246 -1161q-35 -164 -147 -247t-289 -83q-87 0 -166 15l57 255q24 -7 69 -7q107 0 129 103l239 1125h354zM737 1619l195 -359h-284l-90 202h-19l-177 -202h-311l348 359h338z" />
    <glyph glyph-name="Kcommaaccent" unicode="&#x136;" horiz-adv-x="1509" 
d="M454 0h-367l307 1443h366l-130 -609h19l601 609h422l-653 -660l347 -783h-409l-246 570l-173 -172zM648 -505h-306l167 350h350z" />
    <glyph glyph-name="kcommaaccent" unicode="&#x137;" horiz-adv-x="1275" 
d="M411 0h-354l325 1530h353l-172 -818h19l396 401h399l-509 -489l309 -624h-385l-210 434l-100 -94zM543 -505h-306l167 350h350z" />
    <glyph glyph-name="Lacute" unicode="&#x139;" horiz-adv-x="1248" 
d="M1131 303l-64 -303h-980l307 1443h367l-243 -1140h613zM748 1596h-315l327 326h362z" />
    <glyph glyph-name="lacute" unicode="&#x13a;" horiz-adv-x="634" 
d="M57 0l325 1530h355l-326 -1530h-354zM729 1683h-315l327 326h362z" />
    <glyph glyph-name="Lcommaaccent" unicode="&#x13b;" horiz-adv-x="1248" 
d="M1131 303l-64 -303h-980l307 1443h367l-243 -1140h613zM528 -505h-306l167 350h350z" />
    <glyph glyph-name="lcommaaccent" unicode="&#x13c;" horiz-adv-x="634" 
d="M57 0l325 1530h355l-326 -1530h-354zM184 -505h-306l167 350h350z" />
    <glyph glyph-name="Lcaron" unicode="&#x13d;" horiz-adv-x="1248" 
d="M999 1443h287l-159 -511h-236zM1131 303l-64 -303h-980l307 1443h367l-243 -1140h613z" />
    <glyph glyph-name="lcaron" unicode="&#x13e;" horiz-adv-x="918" 
d="M873 1530h293l-158 -510h-244zM57 0l325 1530h355l-326 -1530h-354z" />
    <glyph glyph-name="Lslash" unicode="&#x141;" horiz-adv-x="1276" 
d="M546 303h613l-64 -303h-980l137 646l-181 -86l49 229l181 86l121 568h367l-80 -375l212 100l-49 -229l-212 -100z" />
    <glyph glyph-name="lslash" unicode="&#x142;" horiz-adv-x="634" 
d="M765 1127l-48 -229l-128 -62l-178 -836h-354l137 646l-127 -61l49 229l127 61l139 655h355l-99 -464z" />
    <glyph glyph-name="Nacute" unicode="&#x143;" horiz-adv-x="1600" 
d="M439 0h-352l307 1443h260l450 -842h19l179 842h352l-307 -1443h-256l-456 834h-19zM1161 1596h-315l327 326h362z" />
    <glyph glyph-name="nacute" unicode="&#x144;" horiz-adv-x="1331" 
d="M50 0l238 1113h343l-39 -181h19q56 93 144 145.5t201 52.5q150 0 238.5 -90t88.5 -232q0 -62 -15 -134l-143 -674h-352l132 619q8 39 8 76q0 68 -41.5 111.5t-114.5 43.5q-81 0 -138.5 -56.5t-76.5 -146.5l-139 -647h-353zM996 1288h-319l322 359h364z" />
    <glyph glyph-name="Ncommaaccent" unicode="&#x145;" horiz-adv-x="1600" 
d="M439 0h-352l307 1443h260l450 -842h19l179 842h352l-307 -1443h-256l-456 834h-19zM703 -505h-306l167 350h350z" />
    <glyph glyph-name="ncommaaccent" unicode="&#x146;" horiz-adv-x="1331" 
d="M50 0l238 1113h343l-39 -181h19q56 93 144 145.5t201 52.5q150 0 238.5 -90t88.5 -232q0 -62 -15 -134l-143 -674h-352l132 619q8 39 8 76q0 68 -41.5 111.5t-114.5 43.5q-81 0 -138.5 -56.5t-76.5 -146.5l-139 -647h-353zM538 -505h-306l167 350h350z" />
    <glyph glyph-name="Ncaron" unicode="&#x147;" horiz-adv-x="1600" 
d="M439 0h-352l307 1443h260l450 -842h19l179 842h352l-307 -1443h-256l-456 834h-19zM869 1596l-189 349h283l85 -192h19l166 192h311l-337 -349h-338z" />
    <glyph glyph-name="ncaron" unicode="&#x148;" horiz-adv-x="1331" 
d="M50 0l238 1113h343l-39 -181h19q56 93 144 145.5t201 52.5q150 0 238.5 -90t88.5 -232q0 -62 -15 -134l-143 -674h-352l132 619q8 39 8 76q0 68 -41.5 111.5t-114.5 43.5q-81 0 -138.5 -56.5t-76.5 -146.5l-139 -647h-353zM1024 1260h-338l-194 359h282l90 -202h20
l176 202h312z" />
    <glyph glyph-name="Omacron" unicode="&#x14c;" horiz-adv-x="1638" 
d="M954 1169q-111 0 -205.5 -74.5t-149.5 -204t-55 -284.5q0 -152 76.5 -243.5t204.5 -91.5q170 0 290 163.5t120 401.5q0 152 -77 242.5t-204 90.5zM815 -39q-147 0 -269 47.5t-204 130.5t-127 196.5t-45 245.5q0 196 61.5 365t167.5 286t252.5 183.5t313.5 66.5
q149 0 271.5 -47.5t203 -130.5t124.5 -196.5t44 -245.5q0 -197 -61 -366t-167 -286t-252.5 -183t-312.5 -66zM1444 1835l-42 -198h-782l42 198h782z" />
    <glyph glyph-name="omacron" unicode="&#x14d;" horiz-adv-x="1331" 
d="M658 246q108 0 186 115t78 273q0 111 -43 173t-121 62q-111 0 -189 -115.5t-78 -279.5q0 -107 44.5 -167.5t122.5 -60.5zM774 1139q235 0 376 -136t141 -362q0 -141 -49.5 -264.5t-135 -212t-205.5 -139.5t-257 -51q-235 0 -377.5 136t-142.5 361q0 188 84.5 341
t233.5 240t332 87zM1232 1525l-42 -198h-767l42 198h767z" />
    <glyph glyph-name="Obreve" unicode="&#x14e;" horiz-adv-x="1638" 
d="M954 1169q-111 0 -205.5 -74.5t-149.5 -204t-55 -284.5q0 -152 76.5 -243.5t204.5 -91.5q170 0 290 163.5t120 401.5q0 152 -77 242.5t-204 90.5zM815 -39q-147 0 -269 47.5t-204 130.5t-127 196.5t-45 245.5q0 196 61.5 365t167.5 286t252.5 183.5t313.5 66.5
q149 0 271.5 -47.5t203 -130.5t124.5 -196.5t44 -245.5q0 -197 -61 -366t-167 -286t-252.5 -183t-312.5 -66zM621 1932h233q-1 -9 -1 -25q0 -61 49 -100.5t125 -39.5q163 0 197 165h232q-20 -160 -136 -255.5t-301 -95.5q-175 0 -288 89t-113 222q0 20 3 40z" />
    <glyph glyph-name="obreve" unicode="&#x14f;" horiz-adv-x="1331" 
d="M658 246q108 0 186 115t78 273q0 111 -43 173t-121 62q-111 0 -189 -115.5t-78 -279.5q0 -107 44.5 -167.5t122.5 -60.5zM774 1139q235 0 376 -136t141 -362q0 -141 -49.5 -264.5t-135 -212t-205.5 -139.5t-257 -51q-235 0 -377.5 136t-142.5 361q0 188 84.5 341
t233.5 240t332 87zM434 1620h234q-1 -9 -1 -29q0 -64 48 -104.5t125 -40.5q170 0 201 174h233q-17 -166 -134 -263t-308 -97q-177 0 -289 89t-112 224q0 25 3 47z" />
    <glyph glyph-name="Ohungarumlaut" unicode="&#x150;" horiz-adv-x="1638" 
d="M954 1169q-111 0 -205.5 -74.5t-149.5 -204t-55 -284.5q0 -152 76.5 -243.5t204.5 -91.5q170 0 290 163.5t120 401.5q0 152 -77 242.5t-204 90.5zM815 -39q-147 0 -269 47.5t-204 130.5t-127 196.5t-45 245.5q0 196 61.5 365t167.5 286t252.5 183.5t313.5 66.5
q149 0 271.5 -47.5t203 -130.5t124.5 -196.5t44 -245.5q0 -197 -61 -366t-167 -286t-252.5 -183t-312.5 -66zM1274 1596h-265l289 326h293zM824 1596h-265l290 326h293z" />
    <glyph glyph-name="ohungarumlaut" unicode="&#x151;" horiz-adv-x="1331" 
d="M658 246q108 0 186 115t78 273q0 111 -43 173t-121 62q-111 0 -189 -115.5t-78 -279.5q0 -107 44.5 -167.5t122.5 -60.5zM774 1139q235 0 376 -136t141 -362q0 -141 -49.5 -264.5t-135 -212t-205.5 -139.5t-257 -51q-235 0 -377.5 136t-142.5 361q0 188 84.5 341
t233.5 240t332 87zM890 1288l268 359h287l-297 -359h-258zM435 1288l268 359h287l-297 -359h-258z" />
    <glyph glyph-name="OE" unicode="&#x152;" horiz-adv-x="2305" 
d="M1174 0l18 87h-14q-51 -55 -150 -90.5t-207 -35.5q-287 0 -465.5 172t-178.5 448q0 193 60 360.5t165 286t252.5 186.5t317.5 68q149 0 267.5 -58t183.5 -161l19 1l39 179h903l-63 -295h-621l-61 -288h584l-57 -270h-584l-64 -295h622l-62 -295h-904zM1246 840
q0 153 -77.5 245.5t-206.5 92.5q-113 0 -209 -76.5t-151.5 -209t-55.5 -288.5q0 -154 78 -246.5t207 -92.5q114 0 209.5 76.5t150.5 209t55 289.5z" />
    <glyph glyph-name="oe" unicode="&#x153;" horiz-adv-x="2078" 
d="M1428 -26q-115 0 -213.5 46t-159.5 128h-19q-143 -174 -393 -174q-236 0 -377.5 135t-141.5 360q0 189 84 342.5t231.5 240.5t329.5 87q114 0 210 -46t154 -128h19q152 174 376 174q218 0 356.5 -132t138.5 -341q0 -83 -20 -187h-765q0 -3 -0.5 -11.5t-0.5 -9.5
q0 -106 57 -167.5t155 -61.5q70 0 119.5 27.5t70.5 77.5h332q-41 -166 -187.5 -263t-355.5 -97zM1274 681h423q3 9 3 36q0 75 -50.5 122.5t-130.5 47.5q-87 0 -154 -56t-91 -150zM491 472q0 -106 44.5 -167t122.5 -61q108 0 186 115.5t78 274.5q0 111 -43 173t-121 62
q-111 0 -189 -116t-78 -281z" />
    <glyph glyph-name="Racute" unicode="&#x154;" horiz-adv-x="1460" 
d="M87 0l307 1443h609q203 0 333 -118t130 -301q0 -158 -92 -291t-249 -191l194 -542h-394l-163 505h-200l-108 -505h-367zM703 1166l-87 -402h219q118 0 190 64t72 165q0 84 -51.5 128.5t-145.5 44.5h-197zM1000 1596h-315l327 326h362z" />
    <glyph glyph-name="racute" unicode="&#x155;" horiz-adv-x="969" 
d="M47 0l238 1113h346l-32 -157h18q41 82 111 128t156 46q89 0 149 -27l-69 -308q-83 36 -184 36q-200 0 -250 -234l-128 -597h-355zM807 1288h-319l322 359h364z" />
    <glyph glyph-name="Rcommaaccent" unicode="&#x156;" horiz-adv-x="1460" 
d="M87 0l307 1443h609q203 0 333 -118t130 -301q0 -158 -92 -291t-249 -191l194 -542h-394l-163 505h-200l-108 -505h-367zM703 1166l-87 -402h219q118 0 190 64t72 165q0 84 -51.5 128.5t-145.5 44.5h-197zM625 -505h-306l167 350h350z" />
    <glyph glyph-name="rcommaaccent" unicode="&#x157;" horiz-adv-x="969" 
d="M47 0l238 1113h346l-32 -157h18q41 82 111 128t156 46q89 0 149 -27l-69 -308q-83 36 -184 36q-200 0 -250 -234l-128 -597h-355zM178 -505h-306l167 350h350z" />
    <glyph glyph-name="Rcaron" unicode="&#x158;" horiz-adv-x="1460" 
d="M87 0l307 1443h609q203 0 333 -118t130 -301q0 -158 -92 -291t-249 -191l194 -542h-394l-163 505h-200l-108 -505h-367zM703 1166l-87 -402h219q118 0 190 64t72 165q0 84 -51.5 128.5t-145.5 44.5h-197zM708 1596l-189 349h283l85 -192h19l166 192h311l-337 -349h-338z
" />
    <glyph glyph-name="rcaron" unicode="&#x159;" horiz-adv-x="969" 
d="M47 0l238 1113h346l-32 -157h18q41 82 111 128t156 46q89 0 149 -27l-69 -308q-83 36 -184 36q-200 0 -250 -234l-128 -597h-355zM835 1260h-338l-194 359h282l90 -202h20l176 202h312z" />
    <glyph glyph-name="Sacute" unicode="&#x15a;" horiz-adv-x="1407" 
d="M101 416h350q10 -78 84 -127.5t176 -49.5q108 0 175.5 45t67.5 117q0 54 -43 89t-148 67l-157 47q-167 50 -257 154t-90 250q0 205 170 339.5t429 134.5q254 0 411.5 -127.5t159.5 -331.5h-339q-7 79 -75.5 130.5t-169.5 51.5q-92 0 -154.5 -44t-62.5 -110
q0 -55 41 -94.5t132 -66.5l158 -46q187 -55 273 -149t86 -244q0 -222 -173.5 -356t-458.5 -134q-260 0 -420 122.5t-165 332.5zM1026 1596h-315l327 326h362z" />
    <glyph glyph-name="sacute" unicode="&#x15b;" horiz-adv-x="1201" 
d="M203 768q0 169 132.5 270t352.5 101q215 0 346 -93.5t136 -248.5h-318q-8 46 -52.5 74t-111.5 28q-65 0 -106.5 -26.5t-41.5 -69.5q0 -31 24.5 -53t82.5 -42l196 -69q133 -46 194 -115.5t61 -173.5q0 -170 -139 -273t-368 -103t-372 98t-145 257h335q8 -51 57.5 -83.5
t121.5 -32.5q73 0 115 26t42 71q0 30 -22 50.5t-79 40.5l-177 62q-135 47 -199.5 121.5t-64.5 183.5zM864 1288h-319l322 359h364z" />
    <glyph glyph-name="Scircumflex" unicode="&#x15c;" horiz-adv-x="1407" 
d="M101 416h350q10 -78 84 -127.5t176 -49.5q108 0 175.5 45t67.5 117q0 54 -43 89t-148 67l-157 47q-167 50 -257 154t-90 250q0 205 170 339.5t429 134.5q254 0 411.5 -127.5t159.5 -331.5h-339q-7 79 -75.5 130.5t-169.5 51.5q-92 0 -154.5 -44t-62.5 -110
q0 -55 41 -94.5t132 -66.5l158 -46q187 -55 273 -149t86 -244q0 -222 -173.5 -356t-458.5 -134q-260 0 -420 122.5t-165 332.5zM1120 1945l189 -349h-283l-85 193h-19l-167 -193h-310l337 349h338z" />
    <glyph glyph-name="scircumflex" unicode="&#x15d;" horiz-adv-x="1201" 
d="M203 768q0 169 132.5 270t352.5 101q215 0 346 -93.5t136 -248.5h-318q-8 46 -52.5 74t-111.5 28q-65 0 -106.5 -26.5t-41.5 -69.5q0 -31 24.5 -53t82.5 -42l196 -69q133 -46 194 -115.5t61 -173.5q0 -170 -139 -273t-368 -103t-372 98t-145 257h335q8 -51 57.5 -83.5
t121.5 -32.5q73 0 115 26t42 71q0 30 -22 50.5t-79 40.5l-177 62q-135 47 -199.5 121.5t-64.5 183.5zM939 1619l195 -359h-284l-90 202h-19l-177 -202h-311l348 359h338z" />
    <glyph glyph-name="Scedilla" unicode="&#x15e;" horiz-adv-x="1407" 
d="M801 890l158 -46q187 -55 273 -149t86 -244q0 -200 -142.5 -330t-384.5 -155l-51 -78q148 -29 148 -167q0 -100 -73.5 -159t-197.5 -59q-114 0 -192 35l31 142q64 -25 139 -25q85 0 85 52q0 57 -106 57h-59l20 126l49 76q-218 24 -348.5 143t-134.5 307h350
q10 -78 84 -127.5t176 -49.5q108 0 175.5 45t67.5 117q0 54 -43 89t-148 67l-157 47q-167 50 -257 154t-90 250q0 205 170 339.5t429 134.5q254 0 411.5 -127.5t159.5 -331.5h-339q-7 79 -75.5 130.5t-169.5 51.5q-92 0 -154.5 -44t-62.5 -110q0 -55 41 -94.5t132 -66.5z
" />
    <glyph glyph-name="scedilla" unicode="&#x15f;" horiz-adv-x="1201" 
d="M647 708l196 -69q133 -46 194 -115.5t61 -173.5q0 -154 -114.5 -253.5t-309.5 -118.5l-58 -90q148 -29 148 -167q0 -100 -73.5 -159t-197.5 -59q-114 0 -192 35l31 142q64 -25 139 -25q85 0 85 52q0 57 -106 57h-59l20 126l59 92q-180 25 -287 117.5t-109 229.5h335
q8 -51 57.5 -83.5t121.5 -32.5q73 0 115 26t42 71q0 30 -22 50.5t-79 40.5l-177 62q-135 47 -199.5 121.5t-64.5 183.5q0 169 132.5 270t352.5 101q215 0 346 -93.5t136 -248.5h-318q-8 46 -52.5 74t-111.5 28q-65 0 -106.5 -26.5t-41.5 -69.5q0 -31 24.5 -53t82.5 -42z" />
    <glyph glyph-name="Scaron" unicode="&#x160;" horiz-adv-x="1407" 
d="M101 416h350q10 -78 84 -127.5t176 -49.5q108 0 175.5 45t67.5 117q0 54 -43 89t-148 67l-157 47q-167 50 -257 154t-90 250q0 205 170 339.5t429 134.5q254 0 411.5 -127.5t159.5 -331.5h-339q-7 79 -75.5 130.5t-169.5 51.5q-92 0 -154.5 -44t-62.5 -110
q0 -55 41 -94.5t132 -66.5l158 -46q187 -55 273 -149t86 -244q0 -222 -173.5 -356t-458.5 -134q-260 0 -420 122.5t-165 332.5zM734 1596l-189 349h283l85 -192h19l166 192h311l-337 -349h-338z" />
    <glyph glyph-name="scaron" unicode="&#x161;" horiz-adv-x="1201" 
d="M203 768q0 169 132.5 270t352.5 101q215 0 346 -93.5t136 -248.5h-318q-8 46 -52.5 74t-111.5 28q-65 0 -106.5 -26.5t-41.5 -69.5q0 -31 24.5 -53t82.5 -42l196 -69q133 -46 194 -115.5t61 -173.5q0 -170 -139 -273t-368 -103t-372 98t-145 257h335q8 -51 57.5 -83.5
t121.5 -32.5q73 0 115 26t42 71q0 30 -22 50.5t-79 40.5l-177 62q-135 47 -199.5 121.5t-64.5 183.5zM892 1260h-338l-194 359h282l90 -202h20l176 202h312z" />
    <glyph glyph-name="Tcedilla" unicode="&#x162;" horiz-adv-x="1381" 
d="M315 1443h1198l-63 -295h-415l-244 -1148h-78l-73 -112q148 -29 148 -167q0 -100 -73.5 -159t-197.5 -59q-114 0 -192 35l31 142q64 -25 139 -25q85 0 85 52q0 57 -106 57h-59l20 126l71 110h-82l243 1148h-415z" />
    <glyph glyph-name="tcedilla" unicode="&#x163;" horiz-adv-x="900" 
d="M674 835l-94 -441q-6 -38 -6 -51q0 -90 115 -90q43 0 93 6l-53 -247q-53 -14 -182 -14l-71 -110q148 -29 148 -167q0 -100 -73.5 -159t-197.5 -59q-114 0 -192 35l31 142q64 -25 139 -25q85 0 85 52q0 57 -106 57h-59l20 126l89 139q-75 29 -116 83t-41 127q0 44 11 96
l105 500h-175l58 263h173l58 270h355l-58 -270h230l-58 -263h-228z" />
    <glyph glyph-name="Tcaron" unicode="&#x164;" horiz-adv-x="1381" 
d="M791 0h-367l243 1148h-415l63 295h1198l-63 -295h-415zM793 1596l-189 349h283l85 -192h19l166 192h311l-337 -349h-338z" />
    <glyph glyph-name="tcaron" unicode="&#x165;" horiz-adv-x="900" 
d="M1130 1230h-244l108 511h294zM545 -2q-157 0 -249.5 64.5t-92.5 176.5q0 44 11 96l105 500h-175l58 263h173l58 270h355l-58 -270h230l-58 -263h-228l-94 -441q-6 -38 -6 -51q0 -90 115 -90q43 0 93 6l-53 -247q-53 -14 -184 -14z" />
    <glyph glyph-name="Tbar" unicode="&#x166;" horiz-adv-x="1381" 
d="M1450 1148h-415l-73 -344h274l-53 -247h-274l-118 -557h-367l118 557h-270l53 247h269l73 344h-415l63 295h1198z" />
    <glyph glyph-name="tbar" unicode="&#x167;" horiz-adv-x="898" 
d="M902 835h-228l-37 -175h236l-35 -169h-237l-21 -97q-6 -38 -6 -51q0 -90 115 -90q43 0 93 6l-53 -247q-53 -14 -184 -14q-157 0 -249.5 64.5t-92.5 176.5q0 44 11 96l33 156h-171l35 169h171l37 175h-175l58 263h173l58 270h355l-58 -270h230z" />
    <glyph glyph-name="Utilde" unicode="&#x168;" horiz-adv-x="1585" 
d="M796 -39q-273 0 -435.5 133t-162.5 346q0 63 13 125l186 878h368l-185 -872q-10 -47 -10 -91q1 -96 66.5 -151.5t171.5 -55.5q108 0 180 64t97 185l195 921h368l-211 -1002q-48 -226 -218 -353t-423 -127zM1236 1571q-55 0 -103.5 24.5t-77.5 54t-61.5 54t-57.5 24.5
q-72 0 -86 -119h-205q17 138 93 222.5t184 84.5q55 0 103.5 -24.5t77.5 -53.5t61.5 -53.5t57.5 -24.5q73 0 86 118h206q-17 -138 -93.5 -222.5t-184.5 -84.5z" />
    <glyph glyph-name="utilde" unicode="&#x169;" horiz-adv-x="1332" 
d="M1352 1113l-235 -1113h-344l37 175h-19q-112 -201 -325 -201q-155 0 -250 88t-95 238q0 54 15 141l141 672h355l-131 -615q-7 -35 -7 -73q0 -161 155 -161q83 0 137 54.5t75 151.5l137 643h354zM1044 1257q-55 0 -103.5 24.5t-77.5 54t-61.5 54t-57.5 24.5
q-72 0 -86 -119h-205q17 138 93 222.5t184 84.5q55 0 103.5 -24.5t77.5 -53.5t61.5 -53.5t57.5 -24.5q73 0 86 118h206q-17 -138 -93.5 -222.5t-184.5 -84.5z" />
    <glyph glyph-name="Umacron" unicode="&#x16a;" horiz-adv-x="1585" 
d="M796 -39q-273 0 -435.5 133t-162.5 346q0 63 13 125l186 878h368l-185 -872q-10 -47 -10 -91q1 -96 66.5 -151.5t171.5 -55.5q108 0 180 64t97 185l195 921h368l-211 -1002q-48 -226 -218 -353t-423 -127zM1491 1835l-42 -198h-782l42 198h782z" />
    <glyph glyph-name="umacron" unicode="&#x16b;" horiz-adv-x="1332" 
d="M1352 1113l-235 -1113h-344l37 175h-19q-112 -201 -325 -201q-155 0 -250 88t-95 238q0 54 15 141l141 672h355l-131 -615q-7 -35 -7 -73q0 -161 155 -161q83 0 137 54.5t75 151.5l137 643h354zM1285 1525l-42 -198h-767l42 198h767z" />
    <glyph glyph-name="Ubreve" unicode="&#x16c;" horiz-adv-x="1585" 
d="M796 -39q-273 0 -435.5 133t-162.5 346q0 63 13 125l186 878h368l-185 -872q-10 -47 -10 -91q1 -96 66.5 -151.5t171.5 -55.5q108 0 180 64t97 185l195 921h368l-211 -1002q-48 -226 -218 -353t-423 -127zM668 1932h233q-1 -9 -1 -25q0 -61 49 -100.5t125 -39.5
q163 0 197 165h232q-20 -160 -136 -255.5t-301 -95.5q-175 0 -288 89t-113 222q0 20 3 40z" />
    <glyph glyph-name="ubreve" unicode="&#x16d;" horiz-adv-x="1332" 
d="M1352 1113l-235 -1113h-344l37 175h-19q-112 -201 -325 -201q-155 0 -250 88t-95 238q0 54 15 141l141 672h355l-131 -615q-7 -35 -7 -73q0 -161 155 -161q83 0 137 54.5t75 151.5l137 643h354zM487 1620h234q-1 -9 -1 -29q0 -64 48 -104.5t125 -40.5q170 0 201 174h233
q-17 -166 -134 -263t-308 -97q-177 0 -289 89t-112 224q0 25 3 47z" />
    <glyph glyph-name="Uring" unicode="&#x16e;" horiz-adv-x="1585" 
d="M796 -39q-273 0 -435.5 133t-162.5 346q0 63 13 125l186 878h368l-185 -872q-10 -47 -10 -91q1 -96 66.5 -151.5t171.5 -55.5q108 0 180 64t97 185l195 921h368l-211 -1002q-48 -226 -218 -353t-423 -127zM1091 1543q-110 0 -181.5 69t-71.5 176q0 106 71.5 174t181.5 68
t181 -68t71 -174q0 -107 -71 -176t-181 -69zM1090 1690q43 0 70 27.5t27 69.5q0 41 -27.5 68.5t-69.5 27.5q-42 -1 -69 -28t-27 -68q0 -43 27 -70t69 -27z" />
    <glyph glyph-name="uring" unicode="&#x16f;" horiz-adv-x="1332" 
d="M1352 1113l-235 -1113h-344l37 175h-19q-112 -201 -325 -201q-155 0 -250 88t-95 238q0 54 15 141l141 672h355l-131 -615q-7 -35 -7 -73q0 -161 155 -161q83 0 137 54.5t75 151.5l137 643h354zM897 1260q-110 0 -181.5 69t-71.5 176q0 106 71.5 174t181.5 68t181 -68
t71 -174q0 -107 -71 -176t-181 -69zM896 1407q43 0 70 27.5t27 69.5q0 41 -27.5 68.5t-69.5 27.5q-42 -1 -69 -28t-27 -68q0 -43 27 -70t69 -27z" />
    <glyph glyph-name="Uhungarumlaut" unicode="&#x170;" horiz-adv-x="1585" 
d="M796 -39q-273 0 -435.5 133t-162.5 346q0 63 13 125l186 878h368l-185 -872q-10 -47 -10 -91q1 -96 66.5 -151.5t171.5 -55.5q108 0 180 64t97 185l195 921h368l-211 -1002q-48 -226 -218 -353t-423 -127zM1321 1596h-265l289 326h293zM871 1596h-265l290 326h293z" />
    <glyph glyph-name="uhungarumlaut" unicode="&#x171;" horiz-adv-x="1332" 
d="M1352 1113l-235 -1113h-344l37 175h-19q-112 -201 -325 -201q-155 0 -250 88t-95 238q0 54 15 141l141 672h355l-131 -615q-7 -35 -7 -73q0 -161 155 -161q83 0 137 54.5t75 151.5l137 643h354zM943 1288l268 359h287l-297 -359h-258zM488 1288l268 359h287l-297 -359
h-258z" />
    <glyph glyph-name="Uogonek" unicode="&#x172;" horiz-adv-x="1585" 
d="M1080 -465q-38 -14 -110 -14q-137 0 -220 61t-83 159q0 66 46 123t115 82l5 20q-17 -5 -37 -5q-273 0 -435.5 133t-162.5 346q0 63 13 125l186 878h368l-185 -872q-10 -53 -10 -88q0 -98 65.5 -154t172.5 -56q108 0 180 64t97 185l195 921h368l-211 -1002
q-30 -140 -111 -244.5t-202 -166.5q-85 -43 -137.5 -102t-52.5 -121q0 -45 35.5 -71t96.5 -26q36 0 52 4z" />
    <glyph glyph-name="uogonek" unicode="&#x173;" horiz-adv-x="1332" 
d="M991 -465q-38 -14 -110 -14q-137 0 -220 60.5t-83 159.5q0 79 54 146t138 101l40 187h-19q-112 -201 -325 -201q-155 0 -250 88t-95 238q0 54 15 141l141 672h355l-131 -615q-7 -35 -7 -73q0 -161 155 -161q83 0 137 54.5t75 151.5l137 643h354l-236 -1115l-15 -1
q-106 -8 -181 -63.5t-75 -126.5q0 -45 35.5 -71t96.5 -26q36 0 52 4z" />
    <glyph glyph-name="Wcircumflex" unicode="&#x174;" horiz-adv-x="2112" 
d="M1144 884l-422 -884h-341l-71 1443h375l-6 -957h18l435 957h289l40 -957h18l394 957h377l-682 -1443h-351l-55 884h-18zM1543 1945l189 -349h-283l-85 193h-19l-167 -193h-310l337 349h338z" />
    <glyph glyph-name="wcircumflex" unicode="&#x175;" horiz-adv-x="1814" 
d="M1910 1113l-524 -1113h-385l-16 732h-19l-326 -732h-375l-54 1113h350l-18 -761h19l326 761h340l8 -763h20l300 763h354zM1320 1619l195 -359h-284l-90 202h-19l-177 -202h-311l348 359h338z" />
    <glyph glyph-name="Ycircumflex" unicode="&#x176;" horiz-adv-x="1507" 
d="M856 0h-368l105 496l-296 947h383l159 -591h19l405 591h396l-700 -953zM1238 1945l189 -349h-283l-85 193h-19l-167 -193h-310l337 349h338z" />
    <glyph glyph-name="ycircumflex" unicode="&#x177;" horiz-adv-x="1258" 
d="M117 -407q-129 0 -141 3l57 268q12 -3 70 -3q176 0 215 99l12 33l-127 1120h363l30 -809h19l370 809h377l-600 -1123q-113 -215 -262.5 -306t-382.5 -91zM1040 1619l195 -359h-284l-90 202h-19l-177 -202h-311l348 359h338z" />
    <glyph glyph-name="Ydieresis" unicode="&#x178;" horiz-adv-x="1507" 
d="M856 0h-368l105 496l-296 947h383l159 -591h19l405 591h396l-700 -953zM789 1581q-76 0 -124.5 46t-48.5 118t48.5 118t124.5 46t124.5 -46t48.5 -118t-48.5 -118t-124.5 -46zM1290 1581q-76 0 -124.5 46t-48.5 118t48.5 118t124.5 46t125 -46t49 -118t-49 -118t-125 -46
z" />
    <glyph glyph-name="Zacute" unicode="&#x179;" horiz-adv-x="1399" 
d="M48 0l50 233l845 896l1 19h-642l63 295h1106l-50 -233l-844 -896l-1 -19h672l-62 -295h-1138zM1085 1596h-315l327 326h362z" />
    <glyph glyph-name="zacute" unicode="&#x17a;" horiz-adv-x="1190" 
d="M29 0l40 189l649 639l1 19h-499l58 266h936l-47 -217l-596 -611l-1 -19h481l-57 -266h-965zM933 1288h-319l322 359h364z" />
    <glyph glyph-name="Zdotaccent" unicode="&#x17b;" horiz-adv-x="1399" 
d="M48 0l50 233l845 896l1 19h-642l63 295h1106l-50 -233l-844 -896l-1 -19h672l-62 -295h-1138zM985 1581q-79 0 -128 48.5t-49 123.5t49 123.5t128 48.5q78 0 127 -48.5t49 -123.5t-49 -123.5t-127 -48.5z" />
    <glyph glyph-name="zdotaccent" unicode="&#x17c;" horiz-adv-x="1190" 
d="M29 0l40 189l649 639l1 19h-499l58 266h936l-47 -217l-596 -611l-1 -19h481l-57 -266h-965zM817 1269q-77 0 -127.5 50.5t-50.5 127.5t50.5 127.5t127.5 50.5t128 -51t51 -127t-51 -127t-128 -51z" />
    <glyph glyph-name="Zcaron" unicode="&#x17d;" horiz-adv-x="1399" 
d="M48 0l50 233l845 896l1 19h-642l63 295h1106l-50 -233l-844 -896l-1 -19h672l-62 -295h-1138zM793 1596l-189 349h283l85 -192h19l166 192h311l-337 -349h-338z" />
    <glyph glyph-name="zcaron" unicode="&#x17e;" horiz-adv-x="1190" 
d="M29 0l40 189l649 639l1 19h-499l58 266h936l-47 -217l-596 -611l-1 -19h481l-57 -266h-965zM961 1260h-338l-194 359h282l90 -202h20l176 202h312z" />
    <glyph glyph-name="uni04D8" unicode="&#x18f;" horiz-adv-x="1590" 
d="M794 -39q-281 0 -450 164t-169 438q0 136 25 242h976q4 25 4 67q0 133 -71.5 218t-217.5 85q-106 0 -182.5 -46.5t-112.5 -125.5h-357q57 210 237.5 344.5t436.5 134.5q306 0 472.5 -173.5t166.5 -483.5q0 -243 -96.5 -440t-270 -310.5t-391.5 -113.5zM802 273
q132 0 214.5 74.5t111.5 203.5h-589q-3 -21 -3 -31q0 -115 71.5 -181t194.5 -66z" />
    <glyph glyph-name="uni04D8" unicode="&#x4d8;" horiz-adv-x="1590" 
d="M794 -39q-281 0 -450 164t-169 438q0 136 25 242h976q4 25 4 67q0 133 -71.5 218t-217.5 85q-106 0 -182.5 -46.5t-112.5 -125.5h-357q57 210 237.5 344.5t436.5 134.5q306 0 472.5 -173.5t166.5 -483.5q0 -243 -96.5 -440t-270 -310.5t-391.5 -113.5zM802 273
q132 0 214.5 74.5t111.5 203.5h-589q-3 -21 -3 -31q0 -115 71.5 -181t194.5 -66z" />
    <glyph glyph-name="florin" unicode="&#x192;" horiz-adv-x="1461" 
d="M258 -23q-107 0 -214 34l59 271q76 -29 164 -29q173 0 237 173l75 201h-321l52 245h361l64 173q77 208 231.5 310t393.5 102q104 0 196 -26l-60 -272q-59 23 -155 23t-156 -43.5t-94 -134.5l-48 -132h323l-53 -245h-363l-80 -217q-85 -223 -233.5 -328t-378.5 -105z" />
    <glyph glyph-name="Ohorn" unicode="&#x1a0;" horiz-adv-x="1664" 
d="M1235 836q0 152 -77 242.5t-204 90.5q-111 0 -205.5 -74.5t-149.5 -204t-55 -284.5q0 -152 76.5 -243.5t204.5 -91.5q170 0 290 163.5t120 401.5zM1608 862q0 -197 -61 -366t-167 -286t-252.5 -183t-312.5 -66q-147 0 -269 47.5t-204 130.5t-127 196.5t-45 245.5
q0 196 61.5 365t167.5 286t252.5 183.5t313.5 66.5q105 0 238 -24t209 -24q121 0 140 85l40 171h269l-53 -243q-24 -111 -97.5 -171t-185.5 -60q-19 0 -43 8l-9 -16q62 -54 98.5 -146t36.5 -200z" />
    <glyph glyph-name="ohorn" unicode="&#x1a1;" horiz-adv-x="1438" 
d="M1291 641q0 -141 -49.5 -264.5t-135 -212t-205.5 -139.5t-257 -51q-235 0 -377.5 136t-142.5 361q0 188 84.5 341t233.5 240t332 87q58 0 169 -17.5t168 -17.5q70 0 98.5 18.5t40.5 67.5l41 173h270l-59 -273q-41 -189 -245 -189q-21 0 -45 12l-9 -14q41 -43 64.5 -113.5
t23.5 -144.5zM491 474q0 -107 44.5 -167.5t122.5 -60.5q108 0 186 115t78 273q0 111 -43 173t-121 62q-111 0 -189 -115.5t-78 -279.5z" />
    <glyph glyph-name="Uhorn" unicode="&#x1af;" horiz-adv-x="1799" 
d="M796 -39q-273 0 -435.5 133t-162.5 346q0 63 13 125l186 878h368l-185 -872q-10 -47 -10 -91q0 -95 65.5 -151t172.5 -56q108 0 180 64t97 185l195 921h365q77 0 93 73l40 174h270l-54 -246q-23 -109 -96 -168.5t-184 -59.5h-114l-163 -775q-48 -226 -218 -353t-423 -127
z" />
    <glyph glyph-name="uhorn" unicode="&#x1b0;" horiz-adv-x="1582" 
d="M791 175q-112 -201 -325 -201q-155 0 -250 88t-95 238q0 54 15 141l141 672h355l-131 -615q-7 -35 -7 -73q0 -161 155 -161q83 0 137 54.5t75 151.5l138 643h346q76 0 93 71l41 179h270l-55 -251q-24 -109 -96.5 -168t-183.5 -59h-110l-187 -885h-344l37 175h-19z" />
    <glyph glyph-name="uni01C4" unicode="&#x1c4;" horiz-adv-x="2976" 
d="M394 1443h569q264 0 417.5 -151t153.5 -419q0 -251 -95 -449.5t-268.5 -311t-394.5 -112.5h-688zM701 1149l-180 -855h210q188 0 307 146.5t119 389.5q0 147 -77 233t-213 86h-166zM1624 0l50 233l845 896l1 19h-642l63 295h1106l-50 -233l-844 -896l-1 -19h672l-62 -295
h-1138zM2369 1596l-189 349h283l85 -192h19l166 192h311l-337 -349h-338z" />
    <glyph glyph-name="uni01C5" unicode="&#x1c5;" horiz-adv-x="2766" 
d="M394 1443h569q264 0 417.5 -151t153.5 -419q0 -251 -95 -449.5t-268.5 -311t-394.5 -112.5h-688zM701 1149l-180 -855h210q188 0 307 146.5t119 389.5q0 147 -77 233t-213 86h-166zM1605 0l40 189l649 639l1 19h-499l58 266h936l-47 -217l-596 -611l-1 -19h481l-57 -266
h-965zM2537 1260h-338l-194 359h282l90 -202h20l176 202h312z" />
    <glyph glyph-name="uni01C6" unicode="&#x1c6;" horiz-adv-x="2568" 
d="M493 -17q-169 0 -273 114.5t-104 313.5q0 154 43.5 288.5t118 228.5t178 148t220.5 54q121 0 201 -56t107 -145h20l127 601h355l-325 -1530h-345l33 155h-19q-125 -172 -337 -172zM663 257q112 0 192.5 113t80.5 266q0 100 -51 155.5t-129 55.5q-114 0 -193.5 -108
t-79.5 -268q0 -101 51 -157.5t129 -56.5zM1407 0l40 189l649 639l1 19h-499l58 266h936l-47 -217l-596 -611l-1 -19h481l-57 -266h-965zM2339 1260h-338l-194 359h282l90 -202h20l176 202h312z" />
    <glyph glyph-name="uni01C7" unicode="&#x1c7;" horiz-adv-x="2543" 
d="M1131 303l-64 -303h-980l307 1443h367l-243 -1140h613zM1326 400q0 22 3 43h351v-13q1 -70 43 -112t114 -42q146 0 185 186l209 981h366l-218 -1027q-47 -221 -187 -338t-362 -117q-229 0 -367.5 121t-136.5 318z" />
    <glyph glyph-name="uni01C8" unicode="&#x1c8;" horiz-adv-x="1891" 
d="M1131 303l-64 -303h-980l307 1443h367l-243 -1140h613zM1784 1242q-91 0 -145 42t-54 109q0 71 54 117.5t145 46.5q92 0 146 -42t54 -109q0 -71 -54 -117.5t-146 -46.5zM1900 1113l-246 -1161q-35 -164 -147 -247t-289 -83q-87 0 -166 15l57 255q25 -7 69 -7
q107 0 129 103l239 1125h354z" />
    <glyph glyph-name="uni01C9" unicode="&#x1c9;" horiz-adv-x="1276" 
d="M57 0l325 1530h355l-326 -1530h-354zM1170 1242q-91 0 -145 42t-54 109q0 71 54 117.5t145 46.5q92 0 146 -42t54 -109q0 -71 -54 -117.5t-146 -46.5zM1286 1113l-246 -1161q-35 -164 -147 -247t-289 -83q-87 0 -166 15l57 255q25 -7 69 -7q107 0 129 103l239 1125h354z
" />
    <glyph glyph-name="uni01CA" unicode="&#x1ca;" horiz-adv-x="2897" 
d="M439 0h-352l307 1443h260l450 -842h19l179 842h352l-307 -1443h-256l-456 834h-19zM1680 400q0 22 3 43h351v-13q1 -70 43 -112t114 -42q146 0 185 186l209 981h366l-218 -1027q-47 -221 -187 -338t-362 -117q-229 0 -367.5 121t-136.5 318z" />
    <glyph glyph-name="uni01CB" unicode="&#x1cb;" horiz-adv-x="2245" 
d="M439 0h-352l307 1443h260l450 -842h19l179 842h352l-307 -1443h-256l-456 834h-19zM2138 1242q-91 0 -145 42t-54 109q0 71 54 117.5t145 46.5q92 0 146 -42t54 -109q0 -71 -54 -117.5t-146 -46.5zM2254 1113l-246 -1161q-35 -164 -147 -247t-289 -83q-87 0 -166 15
l57 255q25 -7 69 -7q107 0 129 103l239 1125h354z" />
    <glyph glyph-name="uni01CC" unicode="&#x1cc;" horiz-adv-x="1989" 
d="M50 0l238 1113h343l-39 -181h19q56 93 144 145.5t201 52.5q150 0 238.5 -90t88.5 -232q0 -62 -15 -134l-143 -674h-352l132 619q8 39 8 76q0 68 -41.5 111.5t-114.5 43.5q-81 0 -138.5 -56.5t-76.5 -146.5l-139 -647h-353zM1882 1242q-91 0 -145 42t-54 109
q0 71 54 117.5t145 46.5q92 0 146 -42t54 -109q0 -71 -54 -117.5t-146 -46.5zM1998 1113l-246 -1161q-35 -164 -147 -247t-289 -83q-87 0 -166 15l57 255q25 -7 69 -7q107 0 129 103l239 1125h354z" />
    <glyph glyph-name="Acaron" unicode="&#x1cd;" horiz-adv-x="1564" 
d="M933 1117l-274 -536h333l-39 536h-20zM1026 0l-23 317h-473l-162 -317h-378l806 1443h446l166 -1443h-382zM896 1596l-189 349h283l85 -192h19l166 192h311l-337 -349h-338z" />
    <glyph glyph-name="acaron" unicode="&#x1ce;" horiz-adv-x="1241" 
d="M557 229q78 0 139 45.5t76 113.5l18 83l-197 -6q-83 -3 -131 -37.5t-48 -90.5q0 -48 40 -78t103 -30zM398 -17q-140 0 -233.5 86.5t-93.5 216.5q0 171 134.5 271.5t370.5 107.5l257 7l14 67q5 30 5 35q0 48 -43 76.5t-114 28.5q-126 0 -167 -83h-324q34 157 174.5 250
t341.5 93q214 0 346 -92t132 -242q0 -47 -9 -90l-153 -715h-343l28 134h-19q-43 -69 -126 -110t-178 -41zM944 1260h-338l-194 359h282l90 -202h20l176 202h312z" />
    <glyph glyph-name="Icaron" unicode="&#x1cf;" horiz-adv-x="707" 
d="M454 0h-367l307 1443h367zM456 1596l-189 349h283l85 -192h19l166 192h311l-337 -349h-338z" />
    <glyph glyph-name="icaron" unicode="&#x1d0;" horiz-adv-x="643" 
d="M62 0l236 1113h354l-237 -1113h-353zM690 1260h-338l-194 359h282l90 -202h20l176 202h312z" />
    <glyph glyph-name="Ocaron" unicode="&#x1d1;" horiz-adv-x="1638" 
d="M954 1169q-111 0 -205.5 -74.5t-149.5 -204t-55 -284.5q0 -152 76.5 -243.5t204.5 -91.5q170 0 290 163.5t120 401.5q0 152 -77 242.5t-204 90.5zM815 -39q-147 0 -269 47.5t-204 130.5t-127 196.5t-45 245.5q0 196 61.5 365t167.5 286t252.5 183.5t313.5 66.5
q149 0 271.5 -47.5t203 -130.5t124.5 -196.5t44 -245.5q0 -197 -61 -366t-167 -286t-252.5 -183t-312.5 -66zM847 1596l-189 349h283l85 -192h19l166 192h311l-337 -349h-338z" />
    <glyph glyph-name="ocaron" unicode="&#x1d2;" horiz-adv-x="1331" 
d="M658 246q108 0 186 115t78 273q0 111 -43 173t-121 62q-111 0 -189 -115.5t-78 -279.5q0 -107 44.5 -167.5t122.5 -60.5zM774 1139q235 0 376 -136t141 -362q0 -141 -49.5 -264.5t-135 -212t-205.5 -139.5t-257 -51q-235 0 -377.5 136t-142.5 361q0 188 84.5 341
t233.5 240t332 87zM976 1260h-338l-194 359h282l90 -202h20l176 202h312z" />
    <glyph glyph-name="Ucaron" unicode="&#x1d3;" horiz-adv-x="1585" 
d="M796 -39q-273 0 -435.5 133t-162.5 346q0 63 13 125l186 878h368l-185 -872q-10 -47 -10 -91q1 -96 66.5 -151.5t171.5 -55.5q108 0 180 64t97 185l195 921h368l-211 -1002q-48 -226 -218 -353t-423 -127zM894 1596l-189 349h283l85 -192h19l166 192h311l-337 -349h-338z
" />
    <glyph glyph-name="ucaron" unicode="&#x1d4;" horiz-adv-x="1332" 
d="M1352 1113l-235 -1113h-344l37 175h-19q-112 -201 -325 -201q-155 0 -250 88t-95 238q0 54 15 141l141 672h355l-131 -615q-7 -35 -7 -73q0 -161 155 -161q83 0 137 54.5t75 151.5l137 643h354zM1029 1260h-338l-194 359h282l90 -202h20l176 202h312z" />
    <glyph glyph-name="Udieresismacron" unicode="&#x1d5;" horiz-adv-x="1585" 
d="M796 -39q-273 0 -435.5 133t-162.5 346q0 63 13 125l186 878h368l-185 -872q-10 -47 -10 -91q1 -96 66.5 -151.5t171.5 -55.5q108 0 180 64t97 185l195 921h368l-211 -1002q-48 -226 -218 -353t-423 -127zM830 1907q76 0 124 -45.5t48 -117.5t-48 -117.5t-124 -45.5
t-124.5 45.5t-48.5 117.5t48.5 117.5t124.5 45.5zM1570 2204l-40 -183h-782l39 183h783zM1332 1907q76 0 124 -45.5t48 -117.5t-48 -117.5t-124 -45.5t-124 45.5t-48 117.5t48 117.5t124 45.5z" />
    <glyph glyph-name="udieresismacron" unicode="&#x1d6;" horiz-adv-x="1332" 
d="M1352 1113l-235 -1113h-344l37 175h-19q-112 -201 -325 -201q-155 0 -250 88t-95 238q0 54 15 141l141 672h355l-131 -615q-7 -35 -7 -73q0 -161 155 -161q83 0 137 54.5t75 151.5l137 643h354zM646 1260q-72 0 -117.5 44.5t-45.5 110.5q0 68 45.5 112.5t117.5 44.5
q71 0 115.5 -44.5t44.5 -112.5q0 -66 -44.5 -110.5t-115.5 -44.5zM1108 1260q-72 0 -116.5 44.5t-44.5 110.5q0 68 44.5 112.5t116.5 44.5q71 0 116.5 -44.5t45.5 -112.5q0 -66 -45.5 -110.5t-116.5 -44.5zM1364 1897l-42 -198h-767l42 198h767z" />
    <glyph glyph-name="Udieresisacute" unicode="&#x1d7;" horiz-adv-x="1585" 
d="M796 -39q-273 0 -435.5 133t-162.5 346q0 63 13 125l186 878h368l-185 -872q-10 -47 -10 -91q1 -96 66.5 -151.5t171.5 -55.5q108 0 180 64t97 185l195 921h368l-211 -1002q-48 -226 -218 -353t-423 -127zM950 1962l246 250h337l-294 -250h-289zM831 1581
q-76 0 -124.5 46t-48.5 118t48.5 118t124.5 46t124.5 -46t48.5 -118t-48.5 -118t-124.5 -46zM1332 1581q-76 0 -124.5 46t-48.5 118t48.5 118t124.5 46q77 0 125.5 -46t48.5 -118t-48.5 -118t-125.5 -46z" />
    <glyph glyph-name="udieresisacute" unicode="&#x1d8;" horiz-adv-x="1332" 
d="M1352 1113l-235 -1113h-344l37 175h-19q-112 -201 -325 -201q-155 0 -250 88t-95 238q0 54 15 141l141 672h355l-131 -615q-7 -35 -7 -73q0 -161 155 -161q83 0 137 54.5t75 151.5l137 643h354zM745 1689l268 303h324l-307 -303h-285zM629 1269q-76 0 -124.5 46
t-48.5 118t48.5 118t124.5 46t124.5 -46t48.5 -118t-48.5 -118t-124.5 -46zM1130 1269q-76 0 -124.5 46t-48.5 118t48.5 118t124.5 46t125 -46t49 -118t-49 -118t-125 -46z" />
    <glyph glyph-name="Udieresiscaron" unicode="&#x1d9;" horiz-adv-x="1585" 
d="M796 -39q-273 0 -435.5 133t-162.5 346q0 63 13 125l186 878h368l-185 -872q-10 -47 -10 -91q1 -96 66.5 -151.5t171.5 -55.5q108 0 180 64t97 185l195 921h368l-211 -1002q-48 -226 -218 -353t-423 -127zM962 1929l-203 326h289l92 -181h19l169 181h317l-345 -326h-338z
M823 1870q75 0 122.5 -44t47.5 -111q0 -68 -47.5 -111.5t-122.5 -43.5t-122.5 43.5t-47.5 111.5q0 67 47.5 111t122.5 44zM1325 1870q75 0 122.5 -44t47.5 -111q0 -68 -47.5 -111.5t-122.5 -43.5t-122.5 43.5t-47.5 111.5q0 67 47.5 111t122.5 44z" />
    <glyph glyph-name="udieresiscaron" unicode="&#x1da;" horiz-adv-x="1332" 
d="M1352 1113l-235 -1113h-344l37 175h-19q-112 -201 -325 -201q-155 0 -250 88t-95 238q0 54 15 141l141 672h355l-131 -615q-7 -35 -7 -73q0 -161 155 -161q83 0 137 54.5t75 151.5l137 643h354zM647 1260q-71 0 -116.5 44.5t-45.5 110.5q0 68 45.5 112.5t116.5 44.5
t116 -44.5t45 -112.5q0 -66 -45 -110.5t-116 -44.5zM1109 1260q-71 0 -115.5 44.5t-44.5 110.5q0 68 44.5 112.5t115.5 44.5t116.5 -44.5t45.5 -112.5q0 -66 -45.5 -110.5t-116.5 -44.5zM757 1640l-192 354h283l88 -197h19l171 197h312l-343 -354h-338z" />
    <glyph glyph-name="Udieresisgrave" unicode="&#x1db;" horiz-adv-x="1585" 
d="M796 -39q-273 0 -435.5 133t-162.5 346q0 63 13 125l186 878h368l-185 -872q-10 -47 -10 -91q1 -96 66.5 -151.5t171.5 -55.5q108 0 180 64t97 185l195 921h368l-211 -1002q-48 -226 -218 -353t-423 -127zM1246 1962h-284l-149 250h322zM831 1581q-76 0 -124.5 46
t-48.5 118t48.5 118t124.5 46t124.5 -46t48.5 -118t-48.5 -118t-124.5 -46zM1332 1581q-76 0 -124.5 46t-48.5 118t48.5 118t124.5 46q77 0 125.5 -46t48.5 -118t-48.5 -118t-125.5 -46z" />
    <glyph glyph-name="udieresisgrave" unicode="&#x1dc;" horiz-adv-x="1332" 
d="M1352 1113l-235 -1113h-344l37 175h-19q-112 -201 -325 -201q-155 0 -250 88t-95 238q0 54 15 141l141 672h355l-131 -615q-7 -35 -7 -73q0 -161 155 -161q83 0 137 54.5t75 151.5l137 643h354zM1053 1689h-277l-186 303h324zM629 1269q-76 0 -124.5 46t-48.5 118
t48.5 118t124.5 46t124.5 -46t48.5 -118t-48.5 -118t-124.5 -46zM1130 1269q-76 0 -124.5 46t-48.5 118t48.5 118t124.5 46t125 -46t49 -118t-49 -118t-125 -46z" />
    <glyph glyph-name="uni04D9" unicode="&#x1dd;" horiz-adv-x="1298" 
d="M510 778h-329q45 166 188 263.5t349 97.5q243 0 382 -134t139 -374q0 -189 -77 -338.5t-216.5 -234t-316.5 -84.5q-234 0 -368 127.5t-134 346.5q0 79 21 188h765q2 16 2 32q0 98 -58 157t-161 59q-68 0 -118 -29t-68 -77zM632 226q98 0 163 58.5t83 150.5h-426
q-3 -15 -3 -33q0 -78 50.5 -127t132.5 -49z" />
    <glyph glyph-name="uni04D9" unicode="&#x4d9;" horiz-adv-x="1298" 
d="M510 778h-329q45 166 188 263.5t349 97.5q243 0 382 -134t139 -374q0 -189 -77 -338.5t-216.5 -234t-316.5 -84.5q-234 0 -368 127.5t-134 346.5q0 79 21 188h765q2 16 2 32q0 98 -58 157t-161 59q-68 0 -118 -29t-68 -77zM632 226q98 0 163 58.5t83 150.5h-426
q-3 -15 -3 -33q0 -78 50.5 -127t132.5 -49z" />
    <glyph glyph-name="uni04D9" unicode="&#x259;" horiz-adv-x="1298" 
d="M510 778h-329q45 166 188 263.5t349 97.5q243 0 382 -134t139 -374q0 -189 -77 -338.5t-216.5 -234t-316.5 -84.5q-234 0 -368 127.5t-134 346.5q0 79 21 188h765q2 16 2 32q0 98 -58 157t-161 59q-68 0 -118 -29t-68 -77zM632 226q98 0 163 58.5t83 150.5h-426
q-3 -15 -3 -33q0 -78 50.5 -127t132.5 -49z" />
    <glyph glyph-name="Adieresismacron" unicode="&#x1de;" horiz-adv-x="1564" 
d="M933 1117l-274 -536h333l-39 536h-20zM1026 0l-23 317h-473l-162 -317h-378l806 1443h446l166 -1443h-382zM832 1907q76 0 124 -45.5t48 -117.5t-48 -117.5t-124 -45.5t-124.5 45.5t-48.5 117.5t48.5 117.5t124.5 45.5zM1572 2204l-40 -183h-782l39 183h783zM1334 1907
q76 0 124 -45.5t48 -117.5t-48 -117.5t-124 -45.5t-124 45.5t-48 117.5t48 117.5t124 45.5z" />
    <glyph glyph-name="adieresismacron" unicode="&#x1df;" horiz-adv-x="1241" 
d="M557 229q78 0 139 45.5t76 113.5l18 83l-197 -6q-83 -3 -131 -37.5t-48 -90.5q0 -48 40 -78t103 -30zM398 -17q-140 0 -233.5 86.5t-93.5 216.5q0 171 134.5 271.5t370.5 107.5l257 7l14 67q5 30 5 35q0 48 -43 76.5t-114 28.5q-126 0 -167 -83h-324q34 157 174.5 250
t341.5 93q214 0 346 -92t132 -242q0 -47 -9 -90l-153 -715h-343l28 134h-19q-43 -69 -126 -110t-178 -41zM561 1260q-72 0 -117.5 44.5t-45.5 110.5q0 68 45.5 112.5t117.5 44.5q71 0 115.5 -44.5t44.5 -112.5q0 -66 -44.5 -110.5t-115.5 -44.5zM1023 1260
q-72 0 -116.5 44.5t-44.5 110.5q0 68 44.5 112.5t116.5 44.5q71 0 116.5 -44.5t45.5 -112.5q0 -66 -45.5 -110.5t-116.5 -44.5zM1279 1897l-42 -198h-767l42 198h767z" />
    <glyph glyph-name="Adotmacron" unicode="&#x1e0;" horiz-adv-x="1564" 
d="M933 1117l-274 -536h333l-39 536h-20zM1026 0l-23 317h-473l-162 -317h-378l806 1443h446l166 -1443h-382zM1082 1575q-78 0 -127 45.5t-49 115.5q0 69 49 114.5t127 45.5t127 -45.5t49 -114.5q0 -70 -49 -115.5t-127 -45.5zM1572 2204l-39 -183h-782l38 183h783z" />
    <glyph glyph-name="adotmacron" unicode="&#x1e1;" horiz-adv-x="1241" 
d="M557 229q78 0 139 45.5t76 113.5l18 83l-197 -6q-83 -3 -131 -37.5t-48 -90.5q0 -48 40 -78t103 -30zM398 -17q-140 0 -233.5 86.5t-93.5 216.5q0 171 134.5 271.5t370.5 107.5l257 7l14 67q5 30 5 35q0 48 -43 76.5t-114 28.5q-126 0 -167 -83h-324q34 157 174.5 250
t341.5 93q214 0 346 -92t132 -242q0 -47 -9 -90l-153 -715h-343l28 134h-19q-43 -69 -126 -110t-178 -41zM795 1260q-74 0 -120.5 45.5t-46.5 114.5q0 71 46.5 117.5t120.5 46.5t120.5 -46.5t46.5 -117.5q0 -69 -46.5 -114.5t-120.5 -45.5zM1279 1897l-42 -198h-767l42 198
h767z" />
    <glyph glyph-name="AEmacron" unicode="&#x1e2;" horiz-adv-x="2108" 
d="M1165 1167h-120l-339 -575h337zM917 0l69 327h-432l-195 -327h-369l873 1443h1337l-63 -295h-647l-61 -290h610l-58 -270h-610l-62 -293h646l-62 -295h-976zM2192 1835l-42 -198h-782l42 198h782z" />
    <glyph glyph-name="aemacron" unicode="&#x1e3;" horiz-adv-x="1955" 
d="M1309 -26q-122 0 -232.5 53t-155.5 134h-19q-57 -81 -169 -134t-246 -53q-179 0 -296.5 91.5t-117.5 226.5q0 178 131.5 277t374.5 106l257 7l13 57q5 17 5 35q0 48 -43 76.5t-114 28.5q-127 0 -166 -83h-324q35 162 171 252.5t335 90.5q112 0 202 -42t131 -109h19
q68 73 160 112t198 39q204 0 341 -133t137 -340q0 -85 -20 -187h-764v-21q0 -110 58.5 -169.5t153.5 -59.5q70 0 118.5 27.5t69.5 77.5h332q-41 -164 -186.5 -262t-353.5 -98zM1153 681h423q4 12 4 36q0 74 -50 122t-131 48q-88 0 -155 -56.5t-91 -149.5zM560 220
q76 0 138 49t76 119l18 83l-197 -6q-83 -3 -131 -37.5t-48 -92.5q0 -49 40.5 -82t103.5 -33zM1438 1525l-42 -198h-767l42 198h767z" />
    <glyph glyph-name="Gcaron" unicode="&#x1e6;" horiz-adv-x="1588" 
d="M1557 770l-35 -180q-58 -306 -244.5 -467.5t-480.5 -161.5q-283 0 -454.5 169t-171.5 449q0 263 102 469t285.5 320t417.5 114q163 0 301.5 -64t219.5 -174t83 -240q1 -14 -1 -33h-353q-3 87 -80 144t-192 57q-177 0 -293.5 -161.5t-116.5 -410.5q0 -151 76 -240t206 -89
q125 0 212.5 63.5t108.5 169.5l2 13h-258l53 253h613zM842 1598l-189 349h283l85 -192h19l166 192h311l-337 -349h-338z" />
    <glyph glyph-name="gcaron" unicode="&#x1e7;" horiz-adv-x="1369" 
d="M544 -419q-241 0 -388 97t-140 248h345q3 -49 58 -79t146 -30q195 0 231 166l41 193h-19q-104 -152 -324 -152q-166 0 -270.5 113t-104.5 297q0 191 73.5 351.5t200 252.5t277.5 92q114 0 200 -56.5t115 -150.5h19l42 190h345l-247 -1154q-38 -178 -196 -278t-404 -100z
M660 264q111 0 190.5 109.5t79.5 262.5q0 96 -49.5 153.5t-132.5 57.5q-113 0 -190.5 -106t-77.5 -263q0 -98 49 -156t131 -58zM955 1261h-338l-194 359h282l90 -202h20l176 202h312z" />
    <glyph glyph-name="Kcaron" unicode="&#x1e8;" horiz-adv-x="1509" 
d="M454 0h-367l307 1443h366l-130 -609h19l601 609h422l-653 -660l347 -783h-409l-246 570l-173 -172zM858 1596l-189 349h283l85 -192h19l166 192h311l-337 -349h-338z" />
    <glyph glyph-name="kcaron" unicode="&#x1e9;" horiz-adv-x="1275" 
d="M411 0h-354l325 1530h353l-172 -818h19l396 401h399l-509 -489l309 -624h-385l-210 434l-100 -94zM424 1683l-189 349h283l85 -192h19l166 192h311l-337 -349h-338z" />
    <glyph glyph-name="Oogonek" unicode="&#x1ea;" horiz-adv-x="1638" 
d="M1098 -465q-38 -14 -110 -14q-137 0 -220 61t-83 159q0 65 45.5 122.5t115.5 82.5l4 20q-20 -5 -35 -5q-147 0 -269 47.5t-204 130.5t-127 196.5t-45 245.5q0 196 61.5 365t167.5 286t252.5 183.5t313.5 66.5q149 0 271.5 -47.5t203 -130.5t124.5 -196.5t44 -245.5
q0 -280 -123.5 -500.5t-331.5 -329.5q-98 -53 -149.5 -106.5t-51.5 -118.5q0 -45 35.5 -71t96.5 -26q36 0 52 4zM1235 836q0 152 -77 242.5t-204 90.5q-111 0 -205.5 -74.5t-149.5 -204t-55 -284.5q0 -152 76.5 -243.5t204.5 -91.5q170 0 290 163.5t120 401.5z" />
    <glyph glyph-name="oogonek" unicode="&#x1eb;" horiz-adv-x="1344" 
d="M909 -465q-39 -14 -110 -14q-136 0 -219.5 60.5t-83.5 159.5q0 66 47.5 128t116.5 87l4 20q-14 -2 -20 -2q-235 0 -377.5 136t-142.5 361q0 188 84.5 341t233.5 240t332 87q235 0 376 -136t141 -362q0 -193 -87 -342t-239 -242q-202 -125 -202 -250q0 -45 36 -71t97 -26
q37 0 51 4zM491 474q0 -107 44.5 -167.5t122.5 -60.5q108 0 186 115t78 273q0 111 -43 173t-121 62q-111 0 -189 -115.5t-78 -279.5z" />
    <glyph glyph-name="Oogonekmacron" unicode="&#x1ec;" horiz-adv-x="1653" 
d="M1098 -465q-38 -14 -110 -14q-137 0 -220 61t-83 159q0 65 45.5 122.5t115.5 82.5l4 20q-20 -5 -35 -5q-147 0 -269 47.5t-204 130.5t-127 196.5t-45 245.5q0 196 61.5 365t167.5 286t252.5 183.5t313.5 66.5q149 0 271.5 -47.5t203 -130.5t124.5 -196.5t44 -245.5
q0 -280 -123.5 -500.5t-331.5 -329.5q-98 -53 -149.5 -106.5t-51.5 -118.5q0 -45 35.5 -71t96.5 -26q36 0 52 4zM1235 836q0 152 -77 242.5t-204 90.5q-111 0 -205.5 -74.5t-149.5 -204t-55 -284.5q0 -152 76.5 -243.5t204.5 -91.5q170 0 290 163.5t120 401.5zM1444 1835
l-42 -198h-782l42 198h782z" />
    <glyph glyph-name="oogonekmacron" unicode="&#x1ed;" horiz-adv-x="1331" 
d="M1232 1525l-42 -198h-767l42 198h767zM909 -465q-39 -14 -110 -14q-136 0 -219.5 60.5t-83.5 159.5q0 66 47.5 128t116.5 87l4 20q-14 -2 -20 -2q-235 0 -377.5 136t-142.5 361q0 188 84.5 341t233.5 240t332 87q235 0 376 -136t141 -362q0 -193 -87 -342t-239 -242
q-202 -125 -202 -250q0 -45 36 -71t97 -26q37 0 51 4zM491 474q0 -107 44.5 -167.5t122.5 -60.5q108 0 186 115t78 273q0 111 -43 173t-121 62q-111 0 -189 -115.5t-78 -279.5z" />
    <glyph glyph-name="uni01F1" unicode="&#x1f1;" horiz-adv-x="2976" 
d="M394 1443h569q264 0 417.5 -151t153.5 -419q0 -251 -95 -449.5t-268.5 -311t-394.5 -112.5h-688zM701 1149l-180 -855h210q188 0 307 146.5t119 389.5q0 147 -77 233t-213 86h-166zM1624 0l50 233l845 896l1 19h-642l63 295h1106l-50 -233l-844 -896l-1 -19h672l-62 -295
h-1138z" />
    <glyph glyph-name="uni01F2" unicode="&#x1f2;" horiz-adv-x="2766" 
d="M394 1443h569q264 0 417.5 -151t153.5 -419q0 -251 -95 -449.5t-268.5 -311t-394.5 -112.5h-688zM701 1149l-180 -855h210q188 0 307 146.5t119 389.5q0 147 -77 233t-213 86h-166zM1605 0l40 189l649 639l1 19h-499l58 266h936l-47 -217l-596 -611l-1 -19h481l-57 -266
h-965z" />
    <glyph glyph-name="uni01F3" unicode="&#x1f3;" horiz-adv-x="2568" 
d="M493 -17q-169 0 -273 114.5t-104 313.5q0 154 43.5 288.5t118 228.5t178 148t220.5 54q121 0 201 -56t107 -145h20l127 601h355l-325 -1530h-345l33 155h-19q-125 -172 -337 -172zM663 257q112 0 192.5 113t80.5 266q0 100 -51 155.5t-129 55.5q-114 0 -193.5 -108
t-79.5 -268q0 -101 51 -157.5t129 -56.5zM1407 0l40 189l649 639l1 19h-499l58 266h936l-47 -217l-596 -611l-1 -19h481l-57 -266h-965z" />
    <glyph glyph-name="Gacute" unicode="&#x1f4;" horiz-adv-x="1588" 
d="M1557 770l-35 -180q-58 -306 -244.5 -467.5t-480.5 -161.5q-283 0 -454.5 169t-171.5 449q0 263 102 469t285.5 320t417.5 114q163 0 301.5 -64t219.5 -174t83 -240q1 -14 -1 -33h-353q-3 87 -80 144t-192 57q-177 0 -293.5 -161.5t-116.5 -410.5q0 -151 76 -240t206 -89
q125 0 212.5 63.5t108.5 169.5l2 13h-258l53 253h613zM1134 1598h-315l327 326h362z" />
    <glyph glyph-name="gacute" unicode="&#x1f5;" horiz-adv-x="1369" 
d="M544 -419q-241 0 -388 97t-140 248h345q3 -49 58 -79t146 -30q195 0 231 166l41 193h-19q-104 -152 -324 -152q-166 0 -270.5 113t-104.5 297q0 191 73.5 351.5t200 252.5t277.5 92q114 0 200 -56.5t115 -150.5h19l42 190h345l-247 -1154q-38 -178 -196 -278t-404 -100z
M660 264q111 0 190.5 109.5t79.5 262.5q0 96 -49.5 153.5t-132.5 57.5q-113 0 -190.5 -106t-77.5 -263q0 -98 49 -156t131 -58zM927 1289h-319l322 359h364z" />
    <glyph glyph-name="Ngrave" unicode="&#x1f8;" horiz-adv-x="1600" 
d="M439 0h-352l307 1443h260l450 -842h19l179 842h352l-307 -1443h-256l-456 834h-19zM883 1596l-199 326h352l151 -326h-304z" />
    <glyph glyph-name="ngrave" unicode="&#x1f9;" horiz-adv-x="1331" 
d="M50 0l238 1113h343l-39 -181h19q56 93 144 145.5t201 52.5q150 0 238.5 -90t88.5 -232q0 -62 -15 -134l-143 -674h-352l132 619q8 39 8 76q0 68 -41.5 111.5t-114.5 43.5q-81 0 -138.5 -56.5t-76.5 -146.5l-139 -647h-353zM985 1288h-299l-214 359h344z" />
    <glyph glyph-name="Aringacute" unicode="&#x1fa;" horiz-adv-x="1564" 
d="M933 1117l-274 -536h333l-39 536h-20zM1026 0l-23 317h-473l-162 -317h-378l806 1443h446l166 -1443h-382zM1084 1530q-97 0 -160.5 61t-63.5 155q0 93 63 152.5t161 59.5q96 0 159 -59.5t63 -152.5q0 -94 -63 -155t-159 -61zM1083 1666q34 0 56 22t22 56t-22 56t-56 22
t-56.5 -22.5t-22.5 -55.5q0 -34 22.5 -56t56.5 -22zM1159 2230h305l-201 -195h-276z" />
    <glyph glyph-name="aringacute" unicode="&#x1fb;" horiz-adv-x="1241" 
d="M557 229q78 0 139 45.5t76 113.5l18 83l-197 -6q-83 -3 -131 -37.5t-48 -90.5q0 -48 40 -78t103 -30zM398 -17q-140 0 -233.5 86.5t-93.5 216.5q0 171 134.5 271.5t370.5 107.5l257 7l14 67q5 30 5 35q0 48 -43 76.5t-114 28.5q-126 0 -167 -83h-324q34 157 174.5 250
t341.5 93q214 0 346 -92t132 -242q0 -47 -9 -90l-153 -715h-343l28 134h-19q-43 -69 -126 -110t-178 -41zM775 1760l217 241h279l-262 -241h-234zM854 1221q-105 0 -172.5 65.5t-67.5 166.5t67.5 166.5t172.5 65.5q104 0 172 -65.5t68 -166.5t-68 -166.5t-172 -65.5z
M767 1453q0 -38 24.5 -62.5t62.5 -24.5t62.5 24.5t24.5 62.5q0 37 -24.5 61.5t-62.5 24.5t-62.5 -24.5t-24.5 -61.5z" />
    <glyph glyph-name="AEacute" unicode="&#x1fc;" horiz-adv-x="2108" 
d="M1165 1167h-120l-339 -575h337zM917 0l69 327h-432l-195 -327h-369l873 1443h1337l-63 -295h-647l-61 -290h610l-58 -270h-610l-62 -293h646l-62 -295h-976zM1887 1596h-315l327 326h362z" />
    <glyph glyph-name="aeacute" unicode="&#x1fd;" horiz-adv-x="1955" 
d="M1309 -26q-122 0 -232.5 53t-155.5 134h-19q-57 -81 -169 -134t-246 -53q-179 0 -296.5 91.5t-117.5 226.5q0 178 131.5 277t374.5 106l257 7l13 57q5 17 5 35q0 48 -43 76.5t-114 28.5q-127 0 -166 -83h-324q35 162 171 252.5t335 90.5q112 0 202 -42t131 -109h19
q68 73 160 112t198 39q204 0 341 -133t137 -340q0 -85 -20 -187h-764v-21q0 -110 58.5 -169.5t153.5 -59.5q70 0 118.5 27.5t69.5 77.5h332q-41 -164 -186.5 -262t-353.5 -98zM1153 681h423q4 12 4 36q0 74 -50 122t-131 48q-88 0 -155 -56.5t-91 -149.5zM560 220
q76 0 138 49t76 119l18 83l-197 -6q-83 -3 -131 -37.5t-48 -92.5q0 -49 40.5 -82t103.5 -33zM1154 1288h-319l322 359h364z" />
    <glyph glyph-name="Oslashacute" unicode="&#x1fe;" horiz-adv-x="1614" 
d="M1364 1922l-374 -326h-315l327 326h362zM1180 1049l-465 -757q49 -21 110 -21q170 0 290 163.5t120 401.5q0 127 -55 213zM618 366l469 770q-57 33 -133 33q-111 0 -205.5 -74.5t-149.5 -204t-55 -284.5q0 -149 74 -240zM1432 1459l-60 -97q114 -84 175 -213.5t61 -286.5
q0 -197 -61 -366t-167 -286t-252.5 -183t-312.5 -66q-150 0 -274 49l-53 -87l-102 62l48 80q-127 82 -195.5 216.5t-68.5 299.5q0 196 61.5 365t167.5 286t252.5 183.5t313.5 66.5q163 0 298 -58l55 91z" />
    <glyph glyph-name="oslashacute" unicode="&#x1ff;" horiz-adv-x="1344" 
d="M1324 1647l-367 -359h-319l322 359h364zM911 731l-361 -442q43 -43 108 -43q108 0 186 115t78 273q0 53 -11 97zM498 398l356 437q-40 34 -96 34q-111 0 -189 -115.5t-78 -279.5q0 -44 7 -76zM1243 1137l-102 -125q150 -136 150 -371q0 -141 -49.5 -264.5t-135 -212
t-205.5 -139.5t-257 -51q-169 0 -292 72l-109 -133l-90 61l112 137q-141 136 -141 360q0 188 84.5 341t233.5 240t332 87q158 0 276 -63l96 118z" />
    <glyph glyph-name="Adblgrave" unicode="&#x200;" horiz-adv-x="1564" 
d="M933 1117l-274 -536h333l-39 536h-20zM1026 0l-23 317h-473l-162 -317h-378l806 1443h446l166 -1443h-382zM708 1596l-171 326h293l143 -326h-265zM1157 1596l-171 326h293l143 -326h-265z" />
    <glyph glyph-name="adblgrave" unicode="&#x201;" horiz-adv-x="1241" 
d="M557 229q78 0 139 45.5t76 113.5l18 83l-197 -6q-83 -3 -131 -37.5t-48 -90.5q0 -48 40 -78t103 -30zM398 -17q-140 0 -233.5 86.5t-93.5 216.5q0 171 134.5 271.5t370.5 107.5l257 7l14 67q5 30 5 35q0 48 -43 76.5t-114 28.5q-126 0 -167 -83h-324q34 157 174.5 250
t341.5 93q214 0 346 -92t132 -242q0 -47 -9 -90l-153 -715h-343l28 134h-19q-43 -69 -126 -110t-178 -41zM664 1288h-250l-151 359h280zM1119 1288h-250l-151 359h280z" />
    <glyph glyph-name="Ainvertedbreve" unicode="&#x202;" horiz-adv-x="1564" 
d="M933 1117l-274 -536h333l-39 536h-20zM1026 0l-23 317h-473l-162 -317h-378l806 1443h446l166 -1443h-382zM1485 1581h-233q1 9 1 25q0 61 -49.5 100.5t-123.5 39.5q-77 0 -129.5 -43.5t-67.5 -121.5h-232q20 155 136.5 253t299.5 98q175 0 288.5 -89t113.5 -222
q0 -23 -4 -40z" />
    <glyph glyph-name="ainvertedbreve" unicode="&#x203;" horiz-adv-x="1241" 
d="M557 229q78 0 139 45.5t76 113.5l18 83l-197 -6q-83 -3 -131 -37.5t-48 -90.5q0 -48 40 -78t103 -30zM398 -17q-140 0 -233.5 86.5t-93.5 216.5q0 171 134.5 271.5t370.5 107.5l257 7l14 67q5 30 5 35q0 48 -43 76.5t-114 28.5q-126 0 -167 -83h-324q34 157 174.5 250
t341.5 93q214 0 346 -92t132 -242q0 -47 -9 -90l-153 -715h-343l28 134h-19q-43 -69 -126 -110t-178 -41zM1220 1260h-234q2 14 2 29q0 64 -48.5 104.5t-125.5 40.5q-170 0 -201 -174h-232q17 166 133.5 263t307.5 97q176 0 289 -89t113 -224q0 -27 -4 -47z" />
    <glyph glyph-name="Edblgrave" unicode="&#x204;" horiz-adv-x="1302" 
d="M1139 295l-63 -295h-989l307 1443h989l-64 -295h-621l-61 -288h584l-57 -270h-584l-63 -295h622zM579 1596l-171 326h293l143 -326h-265zM1028 1596l-171 326h293l143 -326h-265z" />
    <glyph glyph-name="edblgrave" unicode="&#x205;" horiz-adv-x="1288" 
d="M486 681h423q3 18 3 36q0 74 -50 122t-131 48q-88 0 -155 -56.5t-90 -149.5zM639 -26q-234 0 -374.5 129.5t-140.5 352.5q0 305 171 494t445 189q216 0 355.5 -131t139.5 -342q0 -85 -20 -187h-765q-1 -4 -1 -21q0 -110 58.5 -169.5t153.5 -59.5q71 0 120 28t69 77h332
q-41 -165 -186.5 -262.5t-356.5 -97.5zM672 1288h-250l-151 359h280zM1127 1288h-250l-151 359h280z" />
    <glyph glyph-name="Einvertedbreve" unicode="&#x206;" horiz-adv-x="1302" 
d="M1139 295l-63 -295h-989l307 1443h989l-64 -295h-621l-61 -288h584l-57 -270h-584l-63 -295h622zM1356 1581h-233q1 9 1 25q0 61 -49.5 100.5t-123.5 39.5q-77 0 -129.5 -43.5t-67.5 -121.5h-232q20 155 136.5 253t299.5 98q175 0 288.5 -89t113.5 -222q0 -23 -4 -40z
" />
    <glyph glyph-name="einvertedbreve" unicode="&#x207;" horiz-adv-x="1288" 
d="M486 681h423q3 18 3 36q0 74 -50 122t-131 48q-88 0 -155 -56.5t-90 -149.5zM639 -26q-234 0 -374.5 129.5t-140.5 352.5q0 305 171 494t445 189q216 0 355.5 -131t139.5 -342q0 -85 -20 -187h-765q-1 -4 -1 -21q0 -110 58.5 -169.5t153.5 -59.5q71 0 120 28t69 77h332
q-41 -165 -186.5 -262.5t-356.5 -97.5zM1228 1260h-234q2 14 2 29q0 64 -48.5 104.5t-125.5 40.5q-170 0 -201 -174h-232q17 166 133.5 263t307.5 97q176 0 289 -89t113 -224q0 -27 -4 -47z" />
    <glyph glyph-name="Idblgrave" unicode="&#x208;" horiz-adv-x="707" 
d="M454 0h-367l307 1443h367zM268 1596l-171 326h293l143 -326h-265zM717 1596l-171 326h293l143 -326h-265z" />
    <glyph glyph-name="idblgrave" unicode="&#x209;" horiz-adv-x="643" 
d="M62 0l236 1113h354l-237 -1113h-353zM410 1288h-250l-151 359h280zM865 1288h-250l-151 359h280z" />
    <glyph glyph-name="Iinvertedbreve" unicode="&#x20a;" horiz-adv-x="707" 
d="M454 0h-367l307 1443h367zM1045 1581h-233q1 9 1 25q0 61 -49.5 100.5t-123.5 39.5q-77 0 -129.5 -43.5t-67.5 -121.5h-232q20 155 136.5 253t299.5 98q175 0 288.5 -89t113.5 -222q0 -23 -4 -40z" />
    <glyph glyph-name="iinvertedbreve" unicode="&#x20b;" horiz-adv-x="643" 
d="M62 0l236 1113h354l-237 -1113h-353zM966 1260h-234q2 14 2 29q0 64 -48.5 104.5t-125.5 40.5q-170 0 -201 -174h-232q17 166 133.5 263t307.5 97q176 0 289 -89t113 -224q0 -27 -4 -47z" />
    <glyph glyph-name="Odblgrave" unicode="&#x20c;" horiz-adv-x="1638" 
d="M954 1169q-111 0 -205.5 -74.5t-149.5 -204t-55 -284.5q0 -152 76.5 -243.5t204.5 -91.5q170 0 290 163.5t120 401.5q0 152 -77 242.5t-204 90.5zM815 -39q-147 0 -269 47.5t-204 130.5t-127 196.5t-45 245.5q0 196 61.5 365t167.5 286t252.5 183.5t313.5 66.5
q149 0 271.5 -47.5t203 -130.5t124.5 -196.5t44 -245.5q0 -197 -61 -366t-167 -286t-252.5 -183t-312.5 -66zM659 1596l-171 326h293l143 -326h-265zM1108 1596l-171 326h293l143 -326h-265z" />
    <glyph glyph-name="odblgrave" unicode="&#x20d;" horiz-adv-x="1331" 
d="M658 246q108 0 186 115t78 273q0 111 -43 173t-121 62q-111 0 -189 -115.5t-78 -279.5q0 -107 44.5 -167.5t122.5 -60.5zM774 1139q235 0 376 -136t141 -362q0 -141 -49.5 -264.5t-135 -212t-205.5 -139.5t-257 -51q-235 0 -377.5 136t-142.5 361q0 188 84.5 341
t233.5 240t332 87zM696 1288h-250l-151 359h280zM1151 1288h-250l-151 359h280z" />
    <glyph glyph-name="Oinvertedbreve" unicode="&#x20e;" horiz-adv-x="1638" 
d="M954 1169q-111 0 -205.5 -74.5t-149.5 -204t-55 -284.5q0 -152 76.5 -243.5t204.5 -91.5q170 0 290 163.5t120 401.5q0 152 -77 242.5t-204 90.5zM815 -39q-147 0 -269 47.5t-204 130.5t-127 196.5t-45 245.5q0 196 61.5 365t167.5 286t252.5 183.5t313.5 66.5
q149 0 271.5 -47.5t203 -130.5t124.5 -196.5t44 -245.5q0 -197 -61 -366t-167 -286t-252.5 -183t-312.5 -66zM1436 1581h-233q1 9 1 25q0 61 -49.5 100.5t-123.5 39.5q-77 0 -129.5 -43.5t-67.5 -121.5h-232q20 155 136.5 253t299.5 98q175 0 288.5 -89t113.5 -222
q0 -23 -4 -40z" />
    <glyph glyph-name="oinvertedbreve" unicode="&#x20f;" horiz-adv-x="1331" 
d="M658 246q108 0 186 115t78 273q0 111 -43 173t-121 62q-111 0 -189 -115.5t-78 -279.5q0 -107 44.5 -167.5t122.5 -60.5zM774 1139q235 0 376 -136t141 -362q0 -141 -49.5 -264.5t-135 -212t-205.5 -139.5t-257 -51q-235 0 -377.5 136t-142.5 361q0 188 84.5 341
t233.5 240t332 87zM1252 1260h-234q2 14 2 29q0 64 -48.5 104.5t-125.5 40.5q-170 0 -201 -174h-232q17 166 133.5 263t307.5 97q176 0 289 -89t113 -224q0 -27 -4 -47z" />
    <glyph glyph-name="Rdblgrave" unicode="&#x210;" horiz-adv-x="1460" 
d="M87 0l307 1443h609q203 0 333 -118t130 -301q0 -158 -92 -291t-249 -191l194 -542h-394l-163 505h-200l-108 -505h-367zM703 1166l-87 -402h219q118 0 190 64t72 165q0 84 -51.5 128.5t-145.5 44.5h-197zM520 1596l-171 326h293l143 -326h-265zM969 1596l-171 326h293
l143 -326h-265z" />
    <glyph glyph-name="rdblgrave" unicode="&#x211;" horiz-adv-x="969" 
d="M47 0l238 1113h346l-32 -157h18q41 82 111 128t156 46q89 0 149 -27l-69 -308q-83 36 -184 36q-200 0 -250 -234l-128 -597h-355zM555 1288h-250l-151 359h280zM1010 1288h-250l-151 359h280z" />
    <glyph glyph-name="Rinvertedbreve" unicode="&#x212;" horiz-adv-x="1460" 
d="M87 0l307 1443h609q203 0 333 -118t130 -301q0 -158 -92 -291t-249 -191l194 -542h-394l-163 505h-200l-108 -505h-367zM703 1166l-87 -402h219q118 0 190 64t72 165q0 84 -51.5 128.5t-145.5 44.5h-197zM1297 1581h-233q1 9 1 25q0 61 -49.5 100.5t-123.5 39.5
q-77 0 -129.5 -43.5t-67.5 -121.5h-232q20 155 136.5 253t299.5 98q175 0 288.5 -89t113.5 -222q0 -23 -4 -40z" />
    <glyph glyph-name="rinvertedbreve" unicode="&#x213;" horiz-adv-x="969" 
d="M47 0l238 1113h346l-32 -157h18q41 82 111 128t156 46q89 0 149 -27l-69 -308q-83 36 -184 36q-200 0 -250 -234l-128 -597h-355zM1111 1260h-234q2 14 2 29q0 64 -48.5 104.5t-125.5 40.5q-170 0 -201 -174h-232q17 166 133.5 263t307.5 97q176 0 289 -89t113 -224
q0 -27 -4 -47z" />
    <glyph glyph-name="Udblgrave" unicode="&#x214;" horiz-adv-x="1585" 
d="M796 -39q-273 0 -435.5 133t-162.5 346q0 63 13 125l186 878h368l-185 -872q-10 -47 -10 -91q1 -96 66.5 -151.5t171.5 -55.5q108 0 180 64t97 185l195 921h368l-211 -1002q-48 -226 -218 -353t-423 -127zM706 1596l-171 326h293l143 -326h-265zM1155 1596l-171 326h293
l143 -326h-265z" />
    <glyph glyph-name="udblgrave" unicode="&#x215;" horiz-adv-x="1332" 
d="M1352 1113l-235 -1113h-344l37 175h-19q-112 -201 -325 -201q-155 0 -250 88t-95 238q0 54 15 141l141 672h355l-131 -615q-7 -35 -7 -73q0 -161 155 -161q83 0 137 54.5t75 151.5l137 643h354zM749 1288h-250l-151 359h280zM1204 1288h-250l-151 359h280z" />
    <glyph glyph-name="Uinvertedbreve" unicode="&#x216;" horiz-adv-x="1585" 
d="M796 -39q-273 0 -435.5 133t-162.5 346q0 63 13 125l186 878h368l-185 -872q-10 -47 -10 -91q1 -96 66.5 -151.5t171.5 -55.5q108 0 180 64t97 185l195 921h368l-211 -1002q-48 -226 -218 -353t-423 -127zM1483 1581h-233q1 9 1 25q0 61 -49.5 100.5t-123.5 39.5
q-77 0 -129.5 -43.5t-67.5 -121.5h-232q20 155 136.5 253t299.5 98q175 0 288.5 -89t113.5 -222q0 -23 -4 -40z" />
    <glyph glyph-name="uinvertedbreve" unicode="&#x217;" horiz-adv-x="1332" 
d="M1352 1113l-235 -1113h-344l37 175h-19q-112 -201 -325 -201q-155 0 -250 88t-95 238q0 54 15 141l141 672h355l-131 -615q-7 -35 -7 -73q0 -161 155 -161q83 0 137 54.5t75 151.5l137 643h354zM1305 1260h-234q2 14 2 29q0 64 -48.5 104.5t-125.5 40.5q-170 0 -201 -174
h-232q17 166 133.5 263t307.5 97q176 0 289 -89t113 -224q0 -27 -4 -47z" />
    <glyph glyph-name="Scommaaccent" unicode="&#x218;" horiz-adv-x="1407" 
d="M101 416h350q10 -78 84 -127.5t176 -49.5q108 0 175.5 45t67.5 117q0 54 -43 89t-148 67l-157 47q-167 50 -257 154t-90 250q0 205 170 339.5t429 134.5q254 0 411.5 -127.5t159.5 -331.5h-339q-7 79 -75.5 130.5t-169.5 51.5q-92 0 -154.5 -44t-62.5 -110
q0 -55 41 -94.5t132 -66.5l158 -46q187 -55 273 -149t86 -244q0 -222 -173.5 -356t-458.5 -134q-260 0 -420 122.5t-165 332.5zM656 -505h-306l167 350h350z" />
    <glyph glyph-name="scommaaccent" unicode="&#x219;" horiz-adv-x="1201" 
d="M203 768q0 169 132.5 270t352.5 101q215 0 346 -93.5t136 -248.5h-318q-8 46 -52.5 74t-111.5 28q-65 0 -106.5 -26.5t-41.5 -69.5q0 -31 24.5 -53t82.5 -42l196 -69q133 -46 194 -115.5t61 -173.5q0 -170 -139 -273t-368 -103t-372 98t-145 257h335q8 -51 57.5 -83.5
t121.5 -32.5q73 0 115 26t42 71q0 30 -22 50.5t-79 40.5l-177 62q-135 47 -199.5 121.5t-64.5 183.5zM532 -505h-306l167 350h350z" />
    <glyph glyph-name="Tcommaaccent" unicode="&#x21a;" horiz-adv-x="1381" 
d="M791 0h-367l243 1148h-415l63 295h1198l-63 -295h-415zM558 -505h-306l167 350h350z" />
    <glyph glyph-name="tcommaaccent" unicode="&#x21b;" horiz-adv-x="900" 
d="M545 -2q-157 0 -249.5 64.5t-92.5 176.5q0 44 11 96l105 500h-175l58 263h173l58 270h355l-58 -270h230l-58 -263h-228l-94 -441q-6 -38 -6 -51q0 -90 115 -90q43 0 93 6l-53 -247q-53 -14 -184 -14zM392 -505h-306l167 350h350z" />
    <glyph glyph-name="Hcaron" unicode="&#x21e;" horiz-adv-x="1650" 
d="M1396 0h-368l123 582h-574l-124 -582h-366l307 1443h367l-120 -566h574l121 566h367zM927 1596l-189 349h283l85 -192h19l166 192h311l-337 -349h-338z" />
    <glyph glyph-name="hcaron" unicode="&#x21f;" horiz-adv-x="1346" 
d="M57 0l323 1519h353l-124 -574h19q117 189 338 189q154 0 243.5 -87.5t89.5 -226.5q0 -62 -15 -134l-144 -686h-352l132 631q9 45 9 76q0 70 -44.5 111t-116.5 41q-83 0 -141 -55t-77 -145l-140 -659h-353zM431 1672l-189 349h283l85 -192h19l166 192h311l-337 -349h-338z
" />
    <glyph glyph-name="Adotaccent" unicode="&#x226;" horiz-adv-x="1564" 
d="M933 1117l-274 -536h333l-39 536h-20zM1026 0l-23 317h-473l-162 -317h-378l806 1443h446l166 -1443h-382zM1088 1581q-79 0 -128 48.5t-49 123.5t49 123.5t128 48.5q78 0 127 -48.5t49 -123.5t-49 -123.5t-127 -48.5z" />
    <glyph glyph-name="adotaccent" unicode="&#x227;" horiz-adv-x="1241" 
d="M557 229q78 0 139 45.5t76 113.5l18 83l-197 -6q-83 -3 -131 -37.5t-48 -90.5q0 -48 40 -78t103 -30zM398 -17q-140 0 -233.5 86.5t-93.5 216.5q0 171 134.5 271.5t370.5 107.5l257 7l14 67q5 30 5 35q0 48 -43 76.5t-114 28.5q-126 0 -167 -83h-324q34 157 174.5 250
t341.5 93q214 0 346 -92t132 -242q0 -47 -9 -90l-153 -715h-343l28 134h-19q-43 -69 -126 -110t-178 -41zM800 1269q-76 0 -127 50.5t-51 127.5t51 127.5t127 50.5q77 0 128 -51t51 -127t-51 -127t-128 -51z" />
    <glyph glyph-name="Ecedilla" unicode="&#x228;" horiz-adv-x="1302" 
d="M1319 1148h-621l-61 -288h584l-57 -270h-584l-63 -295h622l-63 -295h-372l-73 -112q148 -29 148 -167q0 -100 -73.5 -159t-197.5 -59q-114 0 -192 35l31 142q64 -25 139 -25q85 0 85 52q0 57 -106 57h-59l20 126l71 110h-410l307 1443h989z" />
    <glyph glyph-name="ecedilla" unicode="&#x229;" horiz-adv-x="1288" 
d="M486 681h423q3 18 3 36q0 74 -50 122t-131 48q-88 0 -155 -56.5t-90 -149.5zM1215 479h-765q-1 -4 -1 -21q0 -110 58.5 -169.5t153.5 -59.5q71 0 120 28t69 77h332q-36 -145 -155 -239t-294 -115l-59 -92q148 -29 148 -167q0 -100 -73.5 -159t-197.5 -59q-114 0 -192 35
l31 142q64 -25 139 -25q85 0 85 52q0 57 -106 57h-59l20 126l59 92q-187 30 -295.5 154.5t-108.5 319.5q0 305 171 494t445 189q216 0 355.5 -131t139.5 -342q0 -85 -20 -187z" />
    <glyph glyph-name="Odieresismacron" unicode="&#x22a;" horiz-adv-x="1638" 
d="M954 1169q-111 0 -205.5 -74.5t-149.5 -204t-55 -284.5q0 -152 76.5 -243.5t204.5 -91.5q170 0 290 163.5t120 401.5q0 152 -77 242.5t-204 90.5zM815 -39q-147 0 -269 47.5t-204 130.5t-127 196.5t-45 245.5q0 196 61.5 365t167.5 286t252.5 183.5t313.5 66.5
q149 0 271.5 -47.5t203 -130.5t124.5 -196.5t44 -245.5q0 -197 -61 -366t-167 -286t-252.5 -183t-312.5 -66zM783 1907q76 0 124 -45.5t48 -117.5t-48 -117.5t-124 -45.5t-124.5 45.5t-48.5 117.5t48.5 117.5t124.5 45.5zM1523 2204l-40 -183h-782l39 183h783zM1285 1907
q76 0 124 -45.5t48 -117.5t-48 -117.5t-124 -45.5t-124 45.5t-48 117.5t48 117.5t124 45.5z" />
    <glyph glyph-name="odieresismacron" unicode="&#x22b;" horiz-adv-x="1331" 
d="M658 246q108 0 186 115t78 273q0 111 -43 173t-121 62q-111 0 -189 -115.5t-78 -279.5q0 -107 44.5 -167.5t122.5 -60.5zM774 1139q235 0 376 -136t141 -362q0 -141 -49.5 -264.5t-135 -212t-205.5 -139.5t-257 -51q-235 0 -377.5 136t-142.5 361q0 188 84.5 341
t233.5 240t332 87zM593 1260q-72 0 -117.5 44.5t-45.5 110.5q0 68 45.5 112.5t117.5 44.5q71 0 115.5 -44.5t44.5 -112.5q0 -66 -44.5 -110.5t-115.5 -44.5zM1055 1260q-72 0 -116.5 44.5t-44.5 110.5q0 68 44.5 112.5t116.5 44.5q71 0 116.5 -44.5t45.5 -112.5
q0 -66 -45.5 -110.5t-116.5 -44.5zM1311 1897l-42 -198h-767l42 198h767z" />
    <glyph glyph-name="Otildemacron" unicode="&#x22c;" horiz-adv-x="1638" 
d="M954 1169q-111 0 -205.5 -74.5t-149.5 -204t-55 -284.5q0 -152 76.5 -243.5t204.5 -91.5q170 0 290 163.5t120 401.5q0 152 -77 242.5t-204 90.5zM815 -39q-147 0 -269 47.5t-204 130.5t-127 196.5t-45 245.5q0 196 61.5 365t167.5 286t252.5 183.5t313.5 66.5
q149 0 271.5 -47.5t203 -130.5t124.5 -196.5t44 -245.5q0 -197 -61 -366t-167 -286t-252.5 -183t-312.5 -66zM1522 2204l-42 -196h-782l42 196h782zM1189 1579q-51 0 -98 20t-75.5 43.5t-62 43.5t-60.5 20q-76 0 -88 -94h-201q16 131 90.5 206.5t181.5 75.5q51 0 98.5 -20
t76 -43.5t61.5 -43.5t60 -20q76 0 88 93h201q-15 -131 -90 -206t-182 -75z" />
    <glyph glyph-name="otildemacron" unicode="&#x22d;" horiz-adv-x="1331" 
d="M658 246q108 0 186 115t78 273q0 111 -43 173t-121 62q-111 0 -189 -115.5t-78 -279.5q0 -107 44.5 -167.5t122.5 -60.5zM774 1139q235 0 376 -136t141 -362q0 -141 -49.5 -264.5t-135 -212t-205.5 -139.5t-257 -51q-235 0 -377.5 136t-142.5 361q0 188 84.5 341
t233.5 240t332 87zM987 1257q-55 0 -103.5 24.5t-77.5 54t-61.5 54t-57.5 24.5q-72 0 -86 -119h-205q17 138 93 222.5t184 84.5q55 0 103.5 -24.5t77.5 -53.5t61.5 -53.5t57.5 -24.5q73 0 86 118h206q-17 -138 -93.5 -222.5t-184.5 -84.5zM1309 1899l-42 -198h-767l42 198
h767z" />
    <glyph glyph-name="Odotaccent" unicode="&#x22e;" horiz-adv-x="1638" 
d="M954 1169q-111 0 -205.5 -74.5t-149.5 -204t-55 -284.5q0 -152 76.5 -243.5t204.5 -91.5q170 0 290 163.5t120 401.5q0 152 -77 242.5t-204 90.5zM815 -39q-147 0 -269 47.5t-204 130.5t-127 196.5t-45 245.5q0 196 61.5 365t167.5 286t252.5 183.5t313.5 66.5
q149 0 271.5 -47.5t203 -130.5t124.5 -196.5t44 -245.5q0 -197 -61 -366t-167 -286t-252.5 -183t-312.5 -66zM1039 1581q-79 0 -128 48.5t-49 123.5t49 123.5t128 48.5q78 0 127 -48.5t49 -123.5t-49 -123.5t-127 -48.5z" />
    <glyph glyph-name="odotaccent" unicode="&#x22f;" horiz-adv-x="1331" 
d="M658 246q108 0 186 115t78 273q0 111 -43 173t-121 62q-111 0 -189 -115.5t-78 -279.5q0 -107 44.5 -167.5t122.5 -60.5zM774 1139q235 0 376 -136t141 -362q0 -141 -49.5 -264.5t-135 -212t-205.5 -139.5t-257 -51q-235 0 -377.5 136t-142.5 361q0 188 84.5 341
t233.5 240t332 87zM832 1269q-76 0 -127 50.5t-51 127.5t51 127.5t127 50.5q77 0 128 -51t51 -127t-51 -127t-128 -51z" />
    <glyph glyph-name="Odotaccentmacron" unicode="&#x230;" horiz-adv-x="1638" 
d="M954 1169q-111 0 -205.5 -74.5t-149.5 -204t-55 -284.5q0 -152 76.5 -243.5t204.5 -91.5q170 0 290 163.5t120 401.5q0 152 -77 242.5t-204 90.5zM815 -39q-147 0 -269 47.5t-204 130.5t-127 196.5t-45 245.5q0 196 61.5 365t167.5 286t252.5 183.5t313.5 66.5
q149 0 271.5 -47.5t203 -130.5t124.5 -196.5t44 -245.5q0 -197 -61 -366t-167 -286t-252.5 -183t-312.5 -66zM1033 1575q-78 0 -127 45.5t-49 115.5q0 69 49 114.5t127 45.5t127 -45.5t49 -114.5q0 -70 -49 -115.5t-127 -45.5zM1523 2204l-39 -183h-782l38 183h783z" />
    <glyph glyph-name="odotaccentmacron" unicode="&#x231;" horiz-adv-x="1331" 
d="M658 246q108 0 186 115t78 273q0 111 -43 173t-121 62q-111 0 -189 -115.5t-78 -279.5q0 -107 44.5 -167.5t122.5 -60.5zM774 1139q235 0 376 -136t141 -362q0 -141 -49.5 -264.5t-135 -212t-205.5 -139.5t-257 -51q-235 0 -377.5 136t-142.5 361q0 188 84.5 341
t233.5 240t332 87zM827 1260q-74 0 -120.5 45.5t-46.5 114.5q0 71 46.5 117.5t120.5 46.5t120.5 -46.5t46.5 -117.5q0 -69 -46.5 -114.5t-120.5 -45.5zM1311 1897l-42 -198h-767l42 198h767z" />
    <glyph glyph-name="Ymacron" unicode="&#x232;" horiz-adv-x="1507" 
d="M856 0h-368l105 496l-296 947h383l159 -591h19l405 591h396l-700 -953zM1449 1835l-42 -198h-782l42 198h782z" />
    <glyph glyph-name="ymacron" unicode="&#x233;" horiz-adv-x="1258" 
d="M117 -407q-129 0 -141 3l57 268q12 -3 70 -3q176 0 215 99l12 33l-127 1120h363l30 -809h19l370 809h377l-600 -1123q-113 -215 -262.5 -306t-382.5 -91zM1249 1525l-42 -198h-767l42 198h767z" />
    <glyph glyph-name="dotlessj" unicode="&#x237;" horiz-adv-x="643" 
d="M652 1113l-246 -1161q-35 -164 -147 -247t-289 -83q-87 0 -166 15l57 255q24 -7 69 -7q107 0 129 103l239 1125h354z" />
    <glyph glyph-name="quoteright" unicode="&#x2bc;" horiz-adv-x="675" 
d="M469 804h-243l232 639h336z" />
    <glyph glyph-name="quoteright" unicode="&#x2019;" horiz-adv-x="675" 
d="M469 804h-243l232 639h336z" />
    <glyph glyph-name="circumflex" unicode="&#x2c6;" horiz-adv-x="1059" 
d="M960 1619l195 -359h-284l-90 202h-19l-177 -202h-311l348 359h338z" />
    <glyph glyph-name="caron" unicode="&#x2c7;" horiz-adv-x="1059" 
d="M883 1260h-338l-194 359h282l90 -202h20l176 202h312z" />
    <glyph glyph-name="breve" unicode="&#x2d8;" horiz-adv-x="1060" 
d="M381 1620h234q-1 -9 -1 -29q0 -64 48 -104.5t125 -40.5q170 0 201 174h233q-17 -166 -134 -263t-308 -97q-177 0 -289 89t-112 224q0 25 3 47z" />
    <glyph glyph-name="dotaccent" unicode="&#x2d9;" horiz-adv-x="1059" 
d="M754 1269q-76 0 -127 50.5t-51 127.5t51 127.5t127 50.5q77 0 128 -51t51 -127t-51 -127t-128 -51z" />
    <glyph glyph-name="ring" unicode="&#x2da;" horiz-adv-x="1059" 
d="M767 1260q-110 0 -181.5 69t-71.5 176q0 106 71.5 174t181.5 68t181 -68t71 -174q0 -107 -71 -176t-181 -69zM766 1407q43 0 70 27.5t27 69.5q0 41 -27.5 68.5t-69.5 27.5q-42 -1 -69 -28t-27 -68q0 -43 27 -70t69 -27z" />
    <glyph glyph-name="ogonek" unicode="&#x2db;" horiz-adv-x="1059" 
d="M616 -275l-37 -177q-44 -12 -111 -12q-124 0 -199.5 57t-75.5 150q0 88 68 173.5t187 132.5l189 -22q-197 -99 -197 -213q0 -46 36 -69t98 -23q32 0 42 3z" />
    <glyph glyph-name="tilde" unicode="&#x2dc;" horiz-adv-x="1059" 
d="M913 1265q-55 0 -103.5 24.5t-77.5 54t-61.5 54t-57.5 24.5q-72 0 -86 -119h-205q17 138 93 222.5t184 84.5q55 0 103.5 -24.5t77.5 -53.5t61.5 -53.5t57.5 -24.5q73 0 86 118h206q-17 -138 -93.5 -222.5t-184.5 -84.5z" />
    <glyph glyph-name="hungarumlaut" unicode="&#x2dd;" horiz-adv-x="1059" 
d="M708 1288l268 359h287l-297 -359h-258zM253 1288l268 359h287l-297 -359h-258z" />
    <glyph glyph-name="gravecmb" unicode="&#x300;" 
d="M330 1288h-299l-214 359h344z" />
    <glyph glyph-name="acutecmb" unicode="&#x301;" 
d="M341 1288h-319l322 359h364z" />
    <glyph glyph-name="circumflexcmb" unicode="&#x302;" 
d="M416 1619l195 -359h-284l-90 202h-19l-177 -202h-311l348 359h338z" />
    <glyph glyph-name="tildecmb" unicode="&#x303;" 
d="M384 1257q-55 0 -103.5 24.5t-77.5 54t-61.5 54t-57.5 24.5q-72 0 -86 -119h-205q17 138 93 222.5t184 84.5q55 0 103.5 -24.5t77.5 -53.5t61.5 -53.5t57.5 -24.5q73 0 86 118h206q-17 -138 -93.5 -222.5t-184.5 -84.5z" />
    <glyph glyph-name="macroncmb" unicode="&#x304;" 
d="M625 1525l-42 -198h-767l42 198h767z" />
    <glyph glyph-name="brevecmb" unicode="&#x306;" 
d="M-173 1620h234q-1 -9 -1 -29q0 -64 48 -104.5t125 -40.5q170 0 201 174h233q-17 -166 -134 -263t-308 -97q-177 0 -289 89t-112 224q0 25 3 47z" />
    <glyph glyph-name="dotaccentcmb" unicode="&#x307;" 
d="M225 1269q-77 0 -127.5 50.5t-50.5 127.5t50.5 127.5t127.5 50.5t128 -51t51 -127t-51 -127t-128 -51z" />
    <glyph glyph-name="dieresiscmb" unicode="&#x308;" 
d="M-31 1260q-76 0 -124.5 46t-48.5 118t48.5 118t124.5 46t124.5 -46t48.5 -118t-48.5 -118t-124.5 -46zM470 1260q-76 0 -124.5 46t-48.5 118t48.5 118t124.5 46t125 -46t49 -118t-49 -118t-125 -46z" />
    <glyph glyph-name="hookabovecmb" unicode="&#x309;" 
d="M101 1534l34 156q69 19 132 19q103 0 171 -52.5t68 -141.5q0 -98 -69.5 -177.5t-182.5 -114.5l-77 134q60 16 92.5 48t32.5 73q0 72 -97 72q-58 0 -104 -16z" />
    <glyph glyph-name="ringcmb" unicode="&#x30a;" 
d="M237 1260q-110 0 -181.5 69t-71.5 176q0 106 71.5 174t181.5 68t181 -68t71 -174q0 -107 -71 -176t-181 -69zM236 1407q43 0 70 27.5t27 69.5q0 41 -27.5 68.5t-69.5 27.5q-42 -1 -69 -28t-27 -68q0 -43 27 -70t69 -27z" />
    <glyph glyph-name="hungarumlautcmb" unicode="&#x30b;" 
d="M283 1288l268 359h287l-297 -359h-258zM-172 1288l268 359h287l-297 -359h-258z" />
    <glyph glyph-name="caroncmb" unicode="&#x30c;" 
d="M369 1260h-338l-194 359h282l90 -202h20l176 202h312z" />
    <glyph glyph-name="dblgravecmb" unicode="&#x30f;" 
d="M89 1288h-250l-151 359h280zM544 1288h-250l-151 359h280z" />
    <glyph glyph-name="invertedbrevecmb" unicode="&#x311;" 
d="M645 1260h-234q2 14 2 29q0 64 -48.5 104.5t-125.5 40.5q-170 0 -201 -174h-232q17 166 133.5 263t307.5 97q176 0 289 -89t113 -224q0 -27 -4 -47z" />
    <glyph glyph-name="horncmb" unicode="&#x31b;" 
d="M-71 919l49 228q23 -2 34 -1q31 2 50 21t28 63l32 157h268l-44 -211q-27 -132 -106 -201.5t-193 -69.5q-81 0 -118 14z" />
    <glyph glyph-name="dotbelowcmb" unicode="&#x323;" 
d="M-142 -449q-79 0 -128 48.5t-49 123.5t49 123.5t128 48.5q78 0 127 -48.5t49 -123.5t-49 -123.5t-127 -48.5z" />
    <glyph glyph-name="dieresisbelowcmb" unicode="&#x324;" 
d="M-394 -432q-81 0 -128 40.5t-47 105.5t47 105.5t128 40.5t128.5 -40.5t47.5 -105.5t-47.5 -105.5t-128.5 -40.5zM107 -432q-81 0 -128.5 40.5t-47.5 105.5t47.5 105.5t128.5 40.5t128 -40.5t47 -105.5t-47 -105.5t-128 -40.5z" />
    <glyph glyph-name="ringbelowcmb" unicode="&#x325;" 
d="M-150 -569q-110 0 -181.5 69t-71.5 176q0 106 71.5 174t181.5 68t181 -68t71 -174q0 -107 -71 -176t-181 -69zM-151 -422q43 0 70 27.5t27 69.5q0 41 -27.5 68.5t-69.5 27.5q-42 -1 -69 -28t-27 -68q0 -43 27 -70t69 -27z" />
    <glyph glyph-name="commabelowcmb" unicode="&#x326;" 
d="M-133 -505h-306l167 350h350z" />
    <glyph glyph-name="cedillacmb" unicode="&#x327;" 
d="M-274 -236l20 126l90 140h207l-92 -142q148 -29 148 -167q0 -100 -73.5 -159t-197.5 -59q-114 0 -192 35l31 142q64 -25 139 -25q85 0 85 52q0 57 -106 57h-59z" />
    <glyph glyph-name="ogonekcmb" unicode="&#x328;" 
d="M33 -279l-37 -177q-44 -12 -111 -12q-124 0 -199.5 57t-75.5 150q0 88 68 173.5t187 132.5l189 -22q-197 -99 -197 -213q0 -46 36 -69t98 -23q32 0 42 3z" />
    <glyph glyph-name="circumflexbelowcmb" unicode="&#x32d;" 
d="M74 -156l177 -276h-296l-86 153h-20l-159 -153h-323l312 276h395z" />
    <glyph glyph-name="brevebelowcmb" unicode="&#x32e;" 
d="M-520 -104h236q4 -63 51.5 -102.5t121.5 -39.5q75 0 125.5 37t65.5 105h235q-21 -149 -138 -238.5t-295 -89.5q-175 0 -288.5 89t-113.5 222v17z" />
    <glyph glyph-name="tildebelowcmb" unicode="&#x330;" 
d="M17 -451q-55 0 -103.5 24.5t-77.5 54t-61.5 54t-57.5 24.5q-72 0 -86 -119h-205q17 138 93 222.5t184 84.5q55 0 103.5 -24.5t77.5 -53.5t61.5 -53.5t57.5 -24.5q73 0 86 118h206q-17 -138 -93.5 -222.5t-184.5 -84.5z" />
    <glyph glyph-name="macronbelowcmb" unicode="&#x331;" 
d="M261 -224l-42 -198h-782l42 198h782z" />
    <glyph glyph-name="macronbelowcmb" unicode="&#x332;" 
d="M261 -224l-42 -198h-782l42 198h782z" />
    <glyph glyph-name="greekquestionmark" unicode="&#x37e;" horiz-adv-x="767" 
d="M482 693q-91 0 -146.5 53t-55.5 129q0 87 54.5 142.5t147.5 55.5q91 0 146.5 -53t55.5 -129q0 -87 -54.5 -142.5t-147.5 -55.5zM223 -400h-244l234 646h335z" />
    <glyph glyph-name="tonosgreek" unicode="&#x384;" horiz-adv-x="941" 
d="M440 1268l167 394h349l-222 -394h-294z" />
    <glyph glyph-name="dieresistonosgreek" unicode="&#x385;" horiz-adv-x="1497" 
d="M1039 1268h-256l88 394h316zM1350 1268q-68 0 -111 40.5t-43 105.5q0 67 45 110t117 43q68 0 111 -40.5t43 -104.5q0 -67 -45 -110.5t-117 -43.5zM561 1268q-69 0 -112 40.5t-43 105.5q0 67 45.5 110t117.5 43q68 0 111 -40.5t43 -104.5q0 -67 -45 -110.5t-117 -43.5z
" />
    <glyph glyph-name="Alphatonosgreek" unicode="&#x386;" horiz-adv-x="1693" 
d="M1062 1117l-274 -536h333l-39 536h-20zM1155 0l-23 317h-473l-162 -317h-378l806 1443h446l166 -1443h-382zM213 1049l167 394h349l-222 -394h-294z" />
    <glyph glyph-name="anoteleia" unicode="&#x387;" horiz-adv-x="771" 
d="M498 730q-91 0 -146.5 53.5t-55.5 129.5q0 86 55 142t147 56q91 0 146.5 -53.5t55.5 -129.5q0 -86 -55 -142t-147 -56z" />
    <glyph glyph-name="Epsilontonosgreek" unicode="&#x388;" horiz-adv-x="1836" 
d="M1673 295l-63 -295h-989l307 1443h989l-64 -295h-621l-61 -288h584l-57 -270h-584l-63 -295h622zM254 1049l167 394h349l-222 -394h-294z" />
    <glyph glyph-name="Etatonosgreek" unicode="&#x389;" horiz-adv-x="2183" 
d="M1930 0h-368l123 582h-574l-124 -582h-366l307 1443h367l-120 -566h574l121 566h367zM254 1049l167 394h349l-222 -394h-294z" />
    <glyph glyph-name="Iotatonosgreek" unicode="&#x38a;" horiz-adv-x="1242" 
d="M988 0h-367l307 1443h367zM254 1049l167 394h349l-222 -394h-294z" />
    <glyph glyph-name="Omicrontonosgreek" unicode="&#x38c;" horiz-adv-x="2061" 
d="M1377 1169q-111 0 -205.5 -74.5t-149.5 -204t-55 -284.5q0 -152 76.5 -243.5t204.5 -91.5q170 0 290 163.5t120 401.5q0 152 -77 242.5t-204 90.5zM1238 -39q-147 0 -269 47.5t-204 130.5t-127 196.5t-45 245.5q0 196 61.5 365t167.5 286t252.5 183.5t313.5 66.5
q149 0 271.5 -47.5t203 -130.5t124.5 -196.5t44 -245.5q0 -197 -61 -366t-167 -286t-252.5 -183t-312.5 -66zM254 1049l167 394h349l-222 -394h-294z" />
    <glyph glyph-name="Upsilontonosgreek" unicode="&#x38e;" horiz-adv-x="2031" 
d="M1379 0h-368l105 496l-296 947h383l159 -591h19l405 591h396l-700 -953zM238 1049l167 394h349l-222 -394h-294z" />
    <glyph glyph-name="Omegatonosgreek" unicode="&#x38f;" horiz-adv-x="2124" 
d="M1310 0l76 354q153 68 240.5 205t87.5 313q0 140 -80.5 223t-220.5 83q-184 0 -302 -136.5t-118 -349.5q0 -109 47.5 -196.5t138.5 -141.5l-76 -354h-603l60 280h273l4 19q-99 62 -152 171.5t-53 242.5q0 227 105.5 402.5t291 271t420.5 95.5q290 0 465.5 -155.5
t175.5 -412.5q0 -193 -101 -362.5t-278 -252.5l-4 -19h290l-60 -280h-627zM254 1049l167 394h349l-222 -394h-294z" />
    <glyph glyph-name="iotadieresistonosgreek" unicode="&#x390;" horiz-adv-x="738" 
d="M626 1113l-152 -721q-6 -25 -6 -47q0 -86 114 -86q65 0 96 4l-56 -255q-62 -10 -180 -10q-346 0 -346 240q0 46 11 96l165 779h354zM599 1268h-256l88 394h316zM910 1268q-68 0 -111 40.5t-43 105.5q0 67 45 110t117 43q68 0 111 -40.5t43 -104.5q0 -67 -45 -110.5
t-117 -43.5zM121 1268q-69 0 -112 40.5t-43 105.5q0 67 45.5 110t117.5 43q68 0 111 -40.5t43 -104.5q0 -67 -45 -110.5t-117 -43.5z" />
    <glyph glyph-name="Alphagreek" unicode="&#x391;" horiz-adv-x="1564" 
d="M933 1117l-274 -536h333l-39 536h-20zM1026 0l-23 317h-473l-162 -317h-378l806 1443h446l166 -1443h-382z" />
    <glyph glyph-name="Betagreek" unicode="&#x392;" horiz-adv-x="1459" 
d="M831 0h-744l307 1443h636q187 0 302 -85.5t115 -223.5q0 -144 -95.5 -249t-238.5 -120l-1 -19q121 -22 192 -100.5t71 -189.5q0 -200 -153 -328t-391 -128zM709 1193l-71 -330h209q102 0 167.5 54.5t65.5 138.5q0 65 -46.5 101t-131.5 36h-193zM511 267h245q112 0 183 60
t71 156q0 74 -53 115.5t-149 41.5h-218z" />
    <glyph glyph-name="Gammagreek" unicode="&#x393;" horiz-adv-x="1249" 
d="M453 0h-366l307 1443h961l-63 -295h-594z" />
    <glyph glyph-name="Deltagreek" unicode="&#x394;" horiz-adv-x="1486" 
d="M1321 0h-1323l41 196l716 1247h445l163 -1249zM894 1128l-433 -814l-4 -19h528l4 18l-77 815h-18z" />
    <glyph glyph-name="Deltagreek" unicode="&#x2206;" horiz-adv-x="1486" 
d="M1321 0h-1323l41 196l716 1247h445l163 -1249zM894 1128l-433 -814l-4 -19h528l4 18l-77 815h-18z" />
    <glyph glyph-name="Epsilongreek" unicode="&#x395;" horiz-adv-x="1302" 
d="M1139 295l-63 -295h-989l307 1443h989l-64 -295h-621l-61 -288h584l-57 -270h-584l-63 -295h622z" />
    <glyph glyph-name="Zetagreek" unicode="&#x396;" horiz-adv-x="1399" 
d="M48 0l50 233l845 896l1 19h-642l63 295h1106l-50 -233l-844 -896l-1 -19h672l-62 -295h-1138z" />
    <glyph glyph-name="Etagreek" unicode="&#x397;" horiz-adv-x="1650" 
d="M1396 0h-368l123 582h-574l-124 -582h-366l307 1443h367l-120 -566h574l121 566h367z" />
    <glyph glyph-name="Thetagreek" unicode="&#x398;" horiz-adv-x="1726" 
d="M1132 572h-462l60 288h463zM832 -39q-307 0 -484 169t-177 461q0 196 63 362t175.5 282.5t273 181.5t350.5 65q310 0 486.5 -168.5t176.5 -463.5q0 -195 -63.5 -360.5t-176 -282t-273.5 -181.5t-351 -65zM1326 836q0 168 -84 258t-240 90q-130 0 -235.5 -75.5
t-165.5 -208.5t-60 -296q0 -164 84 -254.5t239 -90.5q130 0 236 75.5t166 207.5t60 294z" />
    <glyph glyph-name="Iotagreek" unicode="&#x399;" horiz-adv-x="708" 
d="M454 0h-367l307 1443h367z" />
    <glyph glyph-name="Kappagreek" unicode="&#x39a;" horiz-adv-x="1509" 
d="M454 0h-367l307 1443h366l-130 -609h19l601 609h422l-653 -660l347 -783h-409l-246 570l-173 -172z" />
    <glyph glyph-name="Lambdagreek" unicode="&#x39b;" horiz-adv-x="1531" 
d="M916 1117l-529 -1117h-394l786 1443h446l146 -1443h-397l-38 1117h-20z" />
    <glyph glyph-name="Mugreek" unicode="&#x39c;" horiz-adv-x="1924" 
d="M427 0h-340l307 1443h425l159 -882h19l536 882h445l-307 -1443h-339l193 911h-18l-491 -800h-226l-151 800h-18z" />
    <glyph glyph-name="Nugreek" unicode="&#x39d;" horiz-adv-x="1600" 
d="M439 0h-352l307 1443h260l450 -842h19l179 842h352l-307 -1443h-256l-456 834h-19z" />
    <glyph glyph-name="Xigreek" unicode="&#x39e;" horiz-adv-x="1389" 
d="M367 1443h1102l-64 -304h-1103zM1201 584h-929l59 279h929zM126 304h1101l-64 -304h-1102z" />
    <glyph glyph-name="Omicrongreek" unicode="&#x39f;" horiz-adv-x="1638" 
d="M954 1169q-111 0 -205.5 -74.5t-149.5 -204t-55 -284.5q0 -152 76.5 -243.5t204.5 -91.5q170 0 290 163.5t120 401.5q0 152 -77 242.5t-204 90.5zM815 -39q-147 0 -269 47.5t-204 130.5t-127 196.5t-45 245.5q0 196 61.5 365t167.5 286t252.5 183.5t313.5 66.5
q149 0 271.5 -47.5t203 -130.5t124.5 -196.5t44 -245.5q0 -197 -61 -366t-167 -286t-252.5 -183t-312.5 -66z" />
    <glyph glyph-name="Pigreek" unicode="&#x3a0;" horiz-adv-x="1629" 
d="M1376 0h-368l246 1148h-554l-247 -1148h-366l307 1443h1289z" />
    <glyph glyph-name="Rhogreek" unicode="&#x3a1;" horiz-adv-x="1401" 
d="M394 1443h538q234 0 369 -118.5t135 -316.5q0 -269 -176.5 -427t-472.5 -158h-242l-90 -423h-366zM701 1161l-98 -461h183q127 0 204 76.5t77 198.5q0 92 -54.5 139t-156.5 47h-155z" />
    <glyph glyph-name="Sigmagreek" unicode="&#x3a3;" horiz-adv-x="1377" 
d="M576 312l-4 -17h654l-64 -295h-1114l45 213l448 517l-215 464l53 249h1069l-63 -295h-603l-3 -17l155 -364l-13 -57z" />
    <glyph glyph-name="Taugreek" unicode="&#x3a4;" horiz-adv-x="1381" 
d="M791 0h-367l243 1148h-415l63 295h1198l-63 -295h-415z" />
    <glyph glyph-name="Upsilongreek" unicode="&#x3a5;" horiz-adv-x="1507" 
d="M856 0h-368l105 496l-296 947h383l159 -591h19l405 591h396l-700 -953z" />
    <glyph glyph-name="Phigreek" unicode="&#x3a6;" horiz-adv-x="1965" 
d="M705 -131l33 153q-276 35 -426.5 196.5t-150.5 403.5q0 158 59 295.5t168.5 241.5t275 169t368.5 76l33 151h332l-35 -159q272 -33 424.5 -193t152.5 -410q0 -157 -59.5 -294t-169.5 -240.5t-275 -168t-366 -75.5l-32 -146h-332zM798 303l174 821q-208 -26 -332 -156
t-124 -343q0 -134 74.5 -218t207.5 -104zM1128 294q213 27 334.5 158.5t121.5 340.5q0 136 -74.5 219.5t-206.5 102.5z" />
    <glyph glyph-name="Chigreek" unicode="&#x3a7;" horiz-adv-x="1549" 
d="M5 0l614 741l-303 702h411l191 -462h19l342 462h408l-628 -735l318 -708h-407l-196 446h-19l-352 -446h-398z" />
    <glyph glyph-name="Psigreek" unicode="&#x3a8;" horiz-adv-x="1856" 
d="M1017 0h-343l62 292q-246 19 -374.5 130.5t-128.5 306.5q0 63 13 125l124 589h345l-117 -552q-17 -84 -17 -122q0 -94 52 -139t164 -50l184 863h343l-186 -874q150 13 222 76t101 200l127 598h345l-135 -636q-54 -258 -225 -383.5t-496 -141.5z" />
    <glyph glyph-name="Omegagreek" unicode="&#x3a9;" horiz-adv-x="1684" 
d="M870 0l76 354q153 68 240.5 205t87.5 313q0 140 -80.5 223t-220.5 83q-184 0 -302 -136.5t-118 -349.5q0 -109 47.5 -196.5t138.5 -141.5l-76 -354h-603l60 280h273l4 19q-99 62 -152 171.5t-53 242.5q0 227 105.5 402.5t291 271t420.5 95.5q290 0 465.5 -155.5
t175.5 -412.5q0 -193 -101 -362.5t-278 -252.5l-4 -19h290l-60 -280h-627z" />
    <glyph glyph-name="Omegagreek" unicode="&#x2126;" horiz-adv-x="1684" 
d="M870 0l76 354q153 68 240.5 205t87.5 313q0 140 -80.5 223t-220.5 83q-184 0 -302 -136.5t-118 -349.5q0 -109 47.5 -196.5t138.5 -141.5l-76 -354h-603l60 280h273l4 19q-99 62 -152 171.5t-53 242.5q0 227 105.5 402.5t291 271t420.5 95.5q290 0 465.5 -155.5
t175.5 -412.5q0 -193 -101 -362.5t-278 -252.5l-4 -19h290l-60 -280h-627z" />
    <glyph glyph-name="Iotadieresisgreek" unicode="&#x3aa;" horiz-adv-x="707" 
d="M454 0h-367l307 1443h367zM393 1581q-76 0 -124.5 46t-48.5 118t48.5 118t124.5 46t124.5 -46t48.5 -118t-48.5 -118t-124.5 -46zM894 1581q-76 0 -124.5 46t-48.5 118t48.5 118t124.5 46t125 -46t49 -118t-49 -118t-125 -46z" />
    <glyph glyph-name="Upsilondieresisgreek" unicode="&#x3ab;" horiz-adv-x="1507" 
d="M856 0h-368l105 496l-296 947h383l159 -591h19l405 591h396l-700 -953zM789 1581q-76 0 -124.5 46t-48.5 118t48.5 118t124.5 46t124.5 -46t48.5 -118t-48.5 -118t-124.5 -46zM1290 1581q-76 0 -124.5 46t-48.5 118t48.5 118t124.5 46t125 -46t49 -118t-49 -118t-125 -46
z" />
    <glyph glyph-name="alphatonosgreek" unicode="&#x3ac;" horiz-adv-x="1416" 
d="M456 -17q-169 0 -265.5 114t-96.5 313q0 207 69.5 371.5t194.5 256.5t282 92q125 0 203 -55.5t115 -172.5h19l46 211h345l-158 -741q-8 -37 -8 -59q0 -62 81 -62q27 0 60 9l-55 -250q-64 -20 -159 -20q-153 0 -218.5 45.5t-65.5 149.5v11l-19 1q-50 -100 -149 -157
t-221 -57zM624 261q116 0 195 107t79 265q0 104 -48 162t-132 58q-111 0 -188 -109t-77 -269q0 -98 47 -156t124 -58zM627 1268l167 394h349l-222 -394h-294z" />
    <glyph glyph-name="epsilontonosgreek" unicode="&#x3ad;" horiz-adv-x="1251" 
d="M557 -28q-238 0 -363 76.5t-125 228.5q0 102 66 177.5t179 106.5l4 19q-144 69 -144 198q0 168 149.5 263.5t405.5 95.5q257 0 385.5 -94.5t143.5 -286.5h-351q-10 64 -54 91.5t-144 27.5q-80 0 -128.5 -30t-48.5 -77q0 -89 158 -89h141l-50 -241h-160q-87 0 -133 -27
t-46 -79q0 -47 42.5 -73t122.5 -26q91 0 158 36.5t99 107.5h364q-29 -119 -124 -211.5t-237.5 -143t-309.5 -50.5zM599 1268l167 394h349l-222 -394h-294z" />
    <glyph glyph-name="etatonosgreek" unicode="&#x3ae;" horiz-adv-x="1424" 
d="M775 -368l211 992q7 36 7 74q0 68 -42.5 110t-113.5 42q-76 0 -134.5 -53.5t-77.5 -140.5l-141 -656h-353l156 734q8 40 8 59q0 36 -18.5 52.5t-58.5 16.5q-37 0 -62 -9l54 250q65 20 179 20q133 0 196 -49t73 -149l3 -17h19q55 107 147 164.5t214 57.5q142 0 232 -88.5
t90 -232.5q0 -62 -14 -134l-222 -1043h-352zM655 1268l167 394h349l-222 -394h-294z" />
    <glyph glyph-name="iotatonosgreek" unicode="&#x3af;" horiz-adv-x="738" 
d="M626 1113l-152 -721q-6 -25 -6 -47q0 -86 114 -86q65 0 96 4l-56 -255q-62 -10 -180 -10q-346 0 -346 240q0 46 11 96l165 779h354zM329 1268l167 394h349l-222 -394h-294z" />
    <glyph glyph-name="upsilondieresistonosgreek" unicode="&#x3b0;" horiz-adv-x="1281" 
d="M873 1113h330q35 -118 35 -280q0 -424 -167.5 -641.5t-490.5 -217.5q-217 0 -337 97.5t-120 273.5q0 70 28 203l118 565h331l-127 -605q-13 -61 -13 -107q0 -70 38 -103.5t117 -33.5q138 0 211 145.5t73 417.5q0 162 -26 286zM858 1268h-256l88 394h316zM1169 1268
q-68 0 -111 40.5t-43 105.5q0 67 45 110t117 43q68 0 111 -40.5t43 -104.5q0 -67 -45 -110.5t-117 -43.5zM380 1268q-69 0 -112 40.5t-43 105.5q0 67 45.5 110t117.5 43q68 0 111 -40.5t43 -104.5q0 -67 -45 -110.5t-117 -43.5z" />
    <glyph glyph-name="alphagreek" unicode="&#x3b1;" horiz-adv-x="1416" 
d="M456 -17q-169 0 -265.5 114t-96.5 313q0 207 69.5 371.5t194.5 256.5t282 92q125 0 203 -55.5t115 -172.5h19l46 211h345l-158 -741q-8 -37 -8 -59q0 -62 81 -62q27 0 60 9l-55 -250q-64 -20 -159 -20q-153 0 -218.5 45.5t-65.5 149.5v11l-19 1q-50 -100 -149 -157
t-221 -57zM624 261q116 0 195 107t79 265q0 104 -48 162t-132 58q-111 0 -188 -109t-77 -269q0 -98 47 -156t124 -58z" />
    <glyph glyph-name="betagreek" unicode="&#x3b2;" horiz-adv-x="1361" 
d="M251 993q63 297 205 430t399 133q213 0 342 -101.5t129 -273.5q0 -116 -69 -205.5t-197 -141.5l-4 -19q128 -36 196 -121t68 -213q0 -220 -145.5 -359t-373.5 -139q-127 0 -215.5 55t-128.5 162h-19l-122 -568h-353zM649 682l53 249h66q104 0 163.5 56t59.5 155
q0 69 -40 106.5t-117 37.5q-85 0 -137.5 -54.5t-77.5 -172.5l-107 -494q-11 -50 -11 -90q0 -102 58 -158t162 -56q103 0 168 63t65 163q0 92 -60.5 143.5t-168.5 51.5h-76z" />
    <glyph glyph-name="gammagreek" unicode="&#x3b3;" horiz-adv-x="1273" 
d="M1298 1113q3 -13 3 -50q0 -239 -144 -496.5t-472 -614.5l-67 -317h-354l59 277l-142 1201h359l62 -803h20q162 202 253.5 401.5t91.5 352.5q0 44 -1 49h332z" />
    <glyph glyph-name="deltagreek" unicode="&#x3b4;" horiz-adv-x="1265" 
d="M587 -26q-237 0 -376 120.5t-139 328.5q0 212 130.5 367t342.5 193l4 21q-149 87 -149 228q0 148 122 236t329 88q129 0 249.5 -29.5t191.5 -78.5l-63 -233q-175 94 -332 94q-61 0 -91 -24t-30 -64q0 -29 21.5 -55.5t76.5 -61.5q201 -139 280 -259.5t79 -274.5
q0 -124 -49.5 -234.5t-135 -189.5t-205.5 -125.5t-256 -46.5zM600 221q112 0 184.5 106t72.5 267q0 97 -43.5 152.5t-119.5 55.5q-110 0 -184 -107t-74 -270q0 -96 43.5 -150t120.5 -54z" />
    <glyph glyph-name="epsilongreek" unicode="&#x3b5;" horiz-adv-x="1251" 
d="M557 -26q-238 0 -363 76.5t-125 228.5q0 102 66 177.5t179 106.5l4 19q-144 69 -144 198q0 168 149.5 263.5t405.5 95.5q257 0 385.5 -94.5t143.5 -286.5h-351q-10 64 -54 91.5t-144 27.5q-80 0 -128.5 -30t-48.5 -77q0 -89 158 -89h141l-50 -241h-160q-87 0 -133 -27
t-46 -79q0 -47 42.5 -73t122.5 -26q91 0 158 36.5t99 107.5h364q-29 -119 -124 -211.5t-237.5 -143t-309.5 -50.5z" />
    <glyph glyph-name="zetagreek" unicode="&#x3b6;" horiz-adv-x="1055" 
d="M754 -385l-230 89q64 69 89 115.5t25 94.5q0 50 -32 81.5t-124 77.5q-219 112 -305.5 217.5t-86.5 255.5q0 197 131 362.5t403 323.5l4 18h-351l62 280h836l13 -223q-360 -184 -549 -360.5t-189 -332.5q0 -88 44 -137.5t180 -116.5q173 -86 235 -159t62 -182
q0 -181 -217 -404z" />
    <glyph glyph-name="etagreek" unicode="&#x3b7;" horiz-adv-x="1411" 
d="M775 -368l211 992q7 36 7 74q0 68 -42.5 110t-113.5 42q-76 0 -134.5 -53.5t-77.5 -140.5l-141 -656h-353l156 734q8 40 8 59q0 36 -18.5 52.5t-58.5 16.5q-37 0 -62 -9l54 250q65 20 179 20q133 0 196 -49t73 -149l3 -17h19q55 107 147 164.5t214 57.5q142 0 232 -88.5
t90 -232.5q0 -62 -14 -134l-222 -1043h-352z" />
    <glyph glyph-name="thetagreek" unicode="&#x3b8;" horiz-adv-x="1336" 
d="M624 -26q-248 0 -375.5 137t-127.5 404q0 121 27 273q66 377 243 572.5t452 195.5q245 0 373 -138t128 -404q0 -118 -26 -267q-64 -383 -239.5 -578t-454.5 -195zM637 225q113 0 186 99.5t113 311.5h-455q-18 -104 -18 -169q0 -117 43.5 -179.5t130.5 -62.5zM528 900h454
q15 83 15 150q0 125 -44.5 191t-127.5 66q-217 0 -297 -407z" />
    <glyph glyph-name="iotagreek" unicode="&#x3b9;" horiz-adv-x="743" 
d="M626 1113l-152 -721q-6 -25 -6 -47q0 -86 114 -86q65 0 96 4l-56 -255q-62 -10 -180 -10q-346 0 -346 240q0 46 11 96l165 779h354z" />
    <glyph glyph-name="kappagreek" unicode="&#x3ba;" horiz-adv-x="1312" 
d="M1208 1123q96 0 148 -20l-52 -250q-32 9 -64 9q-40 0 -72 -15.5t-78 -61.5l-174 -175l259 -610h-336l-180 433l-220 -199l-47 -234h-346l236 1113h347l-96 -452h19l306 298q103 99 172.5 131.5t177.5 32.5z" />
    <glyph glyph-name="lambdagreek" unicode="&#x3bb;" horiz-adv-x="1262" 
d="M1157 243q37 0 59 10l-54 -243q-60 -20 -166 -20q-135 0 -196.5 55t-76.5 188l-42 346h-19l-343 -579h-367l674 1051l-11 77q-15 99 -54.5 133t-125.5 34q-44 0 -73 -9l55 250q22 7 66.5 13.5t76.5 6.5q94 0 154 -18t103 -68t67.5 -129t42.5 -209l107 -763
q10 -73 36 -99.5t87 -26.5z" />
    <glyph glyph-name="nugreek" unicode="&#x3bd;" horiz-adv-x="1273" 
d="M1298 1113q3 -14 3 -50q0 -231 -134.5 -476.5t-437.5 -586.5h-416l-132 1113h359l62 -803h20q160 198 252.5 400t92.5 354q0 44 -1 49h332z" />
    <glyph glyph-name="xigreek" unicode="&#x3be;" horiz-adv-x="1082" 
d="M734 -385l-230 89q65 70 89.5 116t24.5 94q0 49 -31 81.5t-124 77.5q-161 80 -245.5 139.5t-118 116t-33.5 133.5q0 118 76 193t216 107l5 18q-132 66 -132 205q0 188 224 247l3 18h-180l59 280h794l14 -260l-193 -18q-184 -16 -268 -62t-84 -124q0 -60 57.5 -87
t179.5 -27h169l-57 -265h-259q-116 0 -181 -35t-65 -104q0 -51 41 -87.5t175 -103.5q169 -85 230.5 -157t61.5 -181q0 -95 -53 -192.5t-165 -211.5z" />
    <glyph glyph-name="omicrongreek" unicode="&#x3bf;" horiz-adv-x="1293" 
d="M633 246q108 0 186 115t78 273q0 111 -43 173t-121 62q-111 0 -189 -115.5t-78 -279.5q0 -107 44.5 -167.5t122.5 -60.5zM749 1139q235 0 375.5 -135.5t140.5 -362.5q0 -188 -84 -341t-232 -239.5t-330 -86.5q-235 0 -377 136t-142 361q0 188 84.5 341t233.5 240t331 87z
" />
    <glyph glyph-name="pigreek" unicode="&#x3c0;" horiz-adv-x="1554" 
d="M867 315l108 518h-274l-177 -833h-337l177 833h-224l60 280h1406l-60 -280h-233l-95 -454q-7 -32 -7 -52q0 -76 99 -76q32 0 59 9l-55 -250q-63 -20 -158 -20q-147 0 -224 60.5t-77 172.5q0 39 12 92z" />
    <glyph glyph-name="rhogreek" unicode="&#x3c1;" horiz-adv-x="1339" 
d="M677 261q116 0 191.5 107t75.5 282q0 105 -45.5 162t-130.5 57q-119 0 -194.5 -112.5t-75.5 -290.5q0 -205 179 -205zM812 1139q233 0 366 -125t133 -338q0 -189 -74.5 -348.5t-203.5 -252t-282 -92.5q-112 0 -195 59.5t-109 157.5h-19l-122 -568h-354l183 858
q75 351 234 500t443 149z" />
    <glyph glyph-name="sigmafinalgreek" unicode="&#x3c2;" horiz-adv-x="1199" 
d="M988 19q0 -181 -217 -404l-231 89q65 69 90 115.5t25 94.5q0 49 -31.5 80.5t-124.5 78.5q-220 110 -305.5 215.5t-85.5 271.5q0 256 169 417.5t459 161.5q224 0 354 -120t132 -316h-327q-5 76 -50.5 119.5t-120.5 43.5q-113 0 -179 -70t-66 -189q0 -84 43.5 -134.5
t167.5 -112.5q173 -85 235.5 -158t62.5 -183z" />
    <glyph glyph-name="sigmagreek" unicode="&#x3c3;" horiz-adv-x="1424" 
d="M606 -26q-234 0 -371 129t-137 355q0 185 81.5 333.5t235 235t352.5 86.5h728l-60 -280h-258l-3 -19q62 -97 62 -200q0 -175 -75.5 -319.5t-220.5 -232.5t-334 -88zM631 238q114 0 187.5 108.5t73.5 269.5q0 214 -161 214q-114 0 -190.5 -108.5t-76.5 -269.5
q0 -214 167 -214z" />
    <glyph glyph-name="taugreek" unicode="&#x3c4;" horiz-adv-x="1183" 
d="M911 263l-55 -255q-60 -10 -175 -10q-347 0 -347 240q0 46 11 96l106 499h-329l61 280h1065l-61 -280h-382l-93 -441q-5 -28 -5 -47q0 -86 114 -86q57 0 90 4z" />
    <glyph glyph-name="upsilongreek" unicode="&#x3c5;" horiz-adv-x="1281" 
d="M873 1113h330q35 -118 35 -280q0 -424 -167.5 -641.5t-490.5 -217.5q-217 0 -337 97.5t-120 273.5q0 70 28 203l118 565h331l-127 -605q-13 -61 -13 -107q0 -70 38 -103.5t117 -33.5q138 0 211 145.5t73 417.5q0 162 -26 286z" />
    <glyph glyph-name="phigreek" unicode="&#x3c6;" horiz-adv-x="1698" 
d="M531 -368l73 344q-228 16 -366.5 148t-138.5 332q0 149 55.5 276.5t154 217.5t238.5 141t304 51l45 211h321l-47 -218q226 -15 363 -148.5t137 -334.5q0 -199 -94.5 -354.5t-265 -241.5t-388.5 -86l-71 -338h-320zM666 239l138 640q-167 -4 -266 -111t-99 -283
q0 -110 58.5 -173.5t168.5 -72.5zM967 233q168 5 265.5 110t97.5 280q0 110 -58.5 175.5t-166.5 74.5z" />
    <glyph glyph-name="chigreek" unicode="&#x3c7;" horiz-adv-x="1301" 
d="M932 -378q-109 0 -172 44t-97 141l-92 268h-19l-308 -443h-344l570 752l-131 361q-26 70 -52 94t-72 24q-31 0 -63 -9l55 250q70 19 164 19q107 0 167 -44t94 -147l88 -273h16l325 454h349l-579 -759l119 -343q28 -80 55.5 -104t80.5 -24q38 0 66 8l-56 -249
q-64 -20 -164 -20z" />
    <glyph glyph-name="psigreek" unicode="&#x3c8;" horiz-adv-x="1713" 
d="M850 -368h-332l72 342q-231 5 -351 99t-120 271q0 65 20 154l130 615h329l-119 -565q-22 -98 -22 -141q0 -75 45.5 -108t149.5 -35l232 1089h332l-232 -1090q179 2 263.5 135t84.5 421q0 160 -26 294h329q35 -110 35 -266q0 -446 -180.5 -660.5t-567.5 -214.5z" />
    <glyph glyph-name="omegagreek" unicode="&#x3c9;" horiz-adv-x="1721" 
d="M1670 647q0 -190 -68.5 -344.5t-189.5 -241.5t-270 -87q-134 0 -206.5 53t-95.5 170h-20q-101 -223 -358 -223q-176 0 -271.5 109t-95.5 310q0 189 79 384.5t212 335.5h340q-138 -159 -214.5 -339t-76.5 -349q0 -78 30.5 -119t88.5 -41q123 0 157 157l80 374h312
l-77 -363q-6 -24 -6 -58q0 -53 27 -81.5t78 -28.5q96 0 153 102.5t57 281.5q0 256 -127 464h341q121 -188 121 -466z" />
    <glyph glyph-name="iotadieresisgreek" unicode="&#x3ca;" horiz-adv-x="738" 
d="M626 1113l-152 -721q-6 -25 -6 -47q0 -86 114 -86q65 0 96 4l-56 -255q-62 -10 -180 -10q-346 0 -346 240q0 46 11 96l165 779h354zM245 1260q-76 0 -124.5 46t-48.5 118t48.5 118t124.5 46t124.5 -46t48.5 -118t-48.5 -118t-124.5 -46zM746 1260q-76 0 -124.5 46
t-48.5 118t48.5 118t124.5 46t125 -46t49 -118t-49 -118t-125 -46z" />
    <glyph glyph-name="upsilondieresisgreek" unicode="&#x3cb;" horiz-adv-x="1281" 
d="M873 1113h330q35 -118 35 -280q0 -424 -167.5 -641.5t-490.5 -217.5q-217 0 -337 97.5t-120 273.5q0 70 28 203l118 565h331l-127 -605q-13 -61 -13 -107q0 -70 38 -103.5t117 -33.5q138 0 211 145.5t73 417.5q0 162 -26 286zM528 1260q-76 0 -124.5 46t-48.5 118
t48.5 118t124.5 46t124.5 -46t48.5 -118t-48.5 -118t-124.5 -46zM1029 1260q-76 0 -124.5 46t-48.5 118t48.5 118t124.5 46t125 -46t49 -118t-49 -118t-125 -46z" />
    <glyph glyph-name="omicrontonosgreek" unicode="&#x3cc;" horiz-adv-x="1292" 
d="M633 246q108 0 186 115t78 273q0 111 -43 173t-121 62q-111 0 -189 -115.5t-78 -279.5q0 -107 44.5 -167.5t122.5 -60.5zM749 1139q235 0 375.5 -135.5t140.5 -362.5q0 -188 -84 -341t-232 -239.5t-330 -86.5q-235 0 -377 136t-142 361q0 188 84.5 341t233.5 240t331 87z
M616 1268l167 394h349l-222 -394h-294z" />
    <glyph glyph-name="upsilontonosgreek" unicode="&#x3cd;" horiz-adv-x="1281" 
d="M873 1113h330q35 -118 35 -280q0 -424 -167.5 -641.5t-490.5 -217.5q-217 0 -337 97.5t-120 273.5q0 70 28 203l118 565h331l-127 -605q-13 -61 -13 -107q0 -70 38 -103.5t117 -33.5q138 0 211 145.5t73 417.5q0 162 -26 286zM603 1268l167 394h349l-222 -394h-294z" />
    <glyph glyph-name="omegatonosgreek" unicode="&#x3ce;" horiz-adv-x="1721" 
d="M1670 647q0 -190 -68.5 -344.5t-189.5 -241.5t-270 -87q-134 0 -206.5 53t-95.5 170h-20q-101 -223 -358 -223q-176 0 -271.5 109t-95.5 310q0 189 79 384.5t212 335.5h340q-138 -159 -214.5 -339t-76.5 -349q0 -78 30.5 -119t88.5 -41q123 0 157 157l80 374h312
l-77 -363q-6 -24 -6 -58q0 -53 27 -81.5t78 -28.5q96 0 153 102.5t57 281.5q0 256 -127 464h341q121 -188 121 -466zM826 1266l167 394h349l-222 -394h-294z" />
    <glyph glyph-name="uni0400" unicode="&#x400;" horiz-adv-x="1306" 
d="M1141 295l-63 -295h-989l307 1443h989l-64 -295h-621l-61 -288h584l-57 -270h-584l-63 -295h622zM783 1596l-199 326h352l151 -326h-304z" />
    <glyph glyph-name="Iocyrillic" unicode="&#x401;" horiz-adv-x="1306" 
d="M1141 295l-63 -295h-989l307 1443h989l-64 -295h-621l-61 -288h584l-57 -270h-584l-63 -295h622zM706 1581q-76 0 -124.5 46t-48.5 118t48.5 118t124.5 46t124.5 -46t48.5 -118t-48.5 -118t-124.5 -46zM1207 1581q-76 0 -124.5 46t-48.5 118t48.5 118t124.5 46t125 -46
t49 -118t-49 -118t-125 -46z" />
    <glyph glyph-name="Djecyrillic" unicode="&#x402;" horiz-adv-x="1824" 
d="M408 0l244 1148h-400l63 295h1168l-63 -295h-401l-74 -350h17q131 108 312 108q219 0 340 -121t121 -315q0 -113 -45.5 -215t-126.5 -179.5t-202.5 -123.5t-264.5 -46q-56 0 -101 4t-61 8l-17 5l58 277q34 -11 121 -11q113 0 185.5 66t72.5 163q0 83 -54.5 132t-152.5 49
q-83 0 -157 -40t-116 -97l-98 -462h-368z" />
    <glyph glyph-name="Gjecyrillic" unicode="&#x403;" horiz-adv-x="1254" 
d="M465 0h-367l307 1443h971l-63 -295h-604zM1028 1573h-315l327 326h362z" />
    <glyph glyph-name="Ecyrillic" unicode="&#x404;" horiz-adv-x="1576" 
d="M1494 508q-56 -251 -247 -399t-460 -148q-293 0 -454.5 188t-141.5 515q10 240 109.5 425.5t273.5 289t395 103.5q171 0 309 -67t217 -187.5t80 -272.5v-27h-359q-6 113 -78 179t-186 66q-125 0 -226 -85t-138 -224h530l-57 -272h-508q-6 -151 69.5 -238t203.5 -87
q110 0 191.5 64.5t118.5 176.5h358z" />
    <glyph glyph-name="Dzecyrillic" unicode="&#x405;" horiz-adv-x="1407" 
d="M101 416h350q10 -78 84 -127.5t176 -49.5q108 0 175.5 45t67.5 117q0 54 -43 89t-148 67l-157 47q-167 50 -257 154t-90 250q0 205 170 339.5t429 134.5q254 0 411.5 -127.5t159.5 -331.5h-339q-7 79 -75.5 130.5t-169.5 51.5q-92 0 -154.5 -44t-62.5 -110
q0 -55 41 -94.5t132 -66.5l158 -46q187 -55 273 -149t86 -244q0 -222 -173.5 -356t-458.5 -134q-260 0 -420 122.5t-165 332.5z" />
    <glyph glyph-name="Icyrillic" unicode="&#x406;" horiz-adv-x="712" 
d="M456 0h-367l307 1443h367z" />
    <glyph glyph-name="Yicyrillic" unicode="&#x407;" horiz-adv-x="707" 
d="M454 0h-367l307 1443h367zM393 1581q-76 0 -124.5 46t-48.5 118t48.5 118t124.5 46t124.5 -46t48.5 -118t-48.5 -118t-124.5 -46zM894 1581q-76 0 -124.5 46t-48.5 118t48.5 118t124.5 46t125 -46t49 -118t-49 -118t-125 -46z" />
    <glyph glyph-name="Jecyrillic" unicode="&#x408;" horiz-adv-x="1295" 
d="M78 400q0 22 3 43h351v-13q1 -70 43 -112t114 -42q146 0 185 186l209 981h366l-218 -1027q-47 -221 -187 -338t-362 -117q-229 0 -367.5 121t-136.5 318z" />
    <glyph glyph-name="Ljecyrillic" unicode="&#x409;" horiz-adv-x="2288" 
d="M686 586q-40 -153 -86.5 -258t-115 -185.5t-163.5 -118.5t-223 -38q-82 0 -126 14l68 315q40 -8 72 -8q90 0 148 80t96 226l214 830h1057l-93 -438h169q240 0 374.5 -117t134.5 -327q0 -250 -176 -405.5t-468 -155.5h-615l244 1148h-363zM1627 723h-153l-95 -445h188
q123 0 201 70t78 180q0 95 -58 145t-161 50z" />
    <glyph glyph-name="Njecyrillic" unicode="&#x40a;" horiz-adv-x="2315" 
d="M981 0l129 605h-516l-130 -605h-366l307 1443h367l-118 -551h517l117 551h368l-117 -550h193q233 0 365.5 -103t132.5 -282q0 -227 -172 -367.5t-461 -140.5h-616zM1408 278h195q116 0 187 54t71 141q0 72 -52 108.5t-144 36.5h-185z" />
    <glyph glyph-name="Tshecyrillic" unicode="&#x40b;" horiz-adv-x="1827" 
d="M1142 599q-82 0 -151.5 -38.5t-116.5 -98.5l-98 -462h-368l244 1148h-400l63 295h1168l-63 -295h-401l-74 -350h18q60 48 143.5 78t177.5 30q100 0 179 -28t128.5 -77.5t79.5 -118t31.5 -148.5t-15.5 -170l-77 -364h-368l78 364q22 105 -23.5 170t-154.5 65z" />
    <glyph glyph-name="Kjecyrillic" unicode="&#x40c;" horiz-adv-x="1524" 
d="M1548 1899l-374 -326h-315l327 326h362zM1677 1443l-699 -734l404 -709h-409l-335 572h-51l-122 -572h-367l307 1443h367l-126 -594h48l560 594h423z" />
    <glyph glyph-name="uni040D" unicode="&#x40d;" horiz-adv-x="1677" 
d="M1054 0l191 892h-19l-777 -892h-351l307 1443h359l-191 -893h19l777 893h351l-307 -1443h-359zM935 1596l-199 326h352l151 -326h-304z" />
    <glyph glyph-name="Ushortcyrillic" unicode="&#x40e;" horiz-adv-x="1477" 
d="M338 -15q-36 0 -69.5 3.5t-50 7.5t-17.5 5l61 290q27 -9 87 -9q120 0 193 81l-238 1080h384l115 -730h19l411 730h395l-667 -1040q-68 -105 -129 -177t-135.5 -129.5t-163 -84.5t-195.5 -27zM652 1931h250q-10 -68 22 -107.5t97 -39.5q63 0 110 39.5t63 107.5h251
q-32 -159 -153.5 -245.5t-294.5 -86.5q-180 0 -278.5 96t-66.5 236z" />
    <glyph glyph-name="Dzhecyrillic" unicode="&#x40f;" horiz-adv-x="1657" 
d="M1393 0h-475l-61 -285h-345l61 285h-475l307 1443h366l-244 -1148h561l245 1148h367z" />
    <glyph glyph-name="Acyrillic" unicode="&#x410;" horiz-adv-x="1564" 
d="M933 1117l-274 -536h333l-39 536h-20zM1026 0l-23 317h-473l-162 -317h-378l806 1443h446l166 -1443h-382z" />
    <glyph glyph-name="Becyrillic" unicode="&#x411;" horiz-adv-x="1442" 
d="M714 0h-615l306 1443h1022l-63 -295h-653l-49 -230h187q240 0 374.5 -103t134.5 -288q0 -235 -176 -381t-468 -146zM525 278h188q123 0 201 60.5t78 155.5q0 76 -53.5 116.5t-152.5 40.5h-181z" />
    <glyph glyph-name="Vecyrillic" unicode="&#x412;" horiz-adv-x="1464" 
d="M833 0h-744l307 1443h636q187 0 302 -85.5t115 -223.5q0 -144 -95.5 -249t-238.5 -120l-1 -19q121 -22 192 -100.5t71 -189.5q0 -200 -153 -328t-391 -128zM711 1193l-71 -330h209q102 0 167.5 54.5t65.5 138.5q0 65 -46.5 101t-131.5 36h-193zM513 267h245q112 0 183 60
t71 156q0 74 -53 115.5t-149 41.5h-218z" />
    <glyph glyph-name="Gecyrillic" unicode="&#x413;" horiz-adv-x="1254" 
d="M465 0h-367l307 1443h971l-63 -295h-604z" />
    <glyph glyph-name="Decyrillic" unicode="&#x414;" horiz-adv-x="1649" 
d="M662 644q-66 -241 -155 -329l-4 -19h524l182 853h-406zM287 0l-61 -285h-330l124 581h98q80 55 126 140t90 243l210 764h1094l-244 -1147h180l-124 -581h-329l61 285h-895z" />
    <glyph glyph-name="Iecyrillic" unicode="&#x415;" horiz-adv-x="1306" 
d="M1141 295l-63 -295h-989l307 1443h989l-64 -295h-621l-61 -288h584l-57 -270h-584l-63 -295h622z" />
    <glyph glyph-name="Zhecyrillic" unicode="&#x416;" horiz-adv-x="2228" 
d="M920 572l-515 -572h-433l678 761l-316 682h377l269 -599h52l128 599h358l-127 -599h52l524 599h422l-661 -744l341 -699h-410l-272 572h-54l-122 -572h-358l121 572h-54z" />
    <glyph glyph-name="Zecyrillic" unicode="&#x417;" horiz-adv-x="1409" 
d="M549 599l59 275h206q103 0 168 50t65 129q0 73 -48 113.5t-137 40.5q-98 0 -170 -51t-93 -136h-334q44 214 212 338t419 124q242 0 376 -105t134 -272q0 -147 -97.5 -246t-251.5 -121l-5 -19q124 -19 193 -92.5t69 -190.5q0 -96 -44 -181.5t-123.5 -151t-201 -104
t-266.5 -38.5q-277 0 -427 131.5t-133 353.5h345q-5 -90 53 -143.5t172 -53.5q111 0 180.5 55.5t69.5 137.5q0 157 -204 157h-186z" />
    <glyph glyph-name="Iicyrillic" unicode="&#x418;" horiz-adv-x="1677" 
d="M1054 0l191 892h-19l-777 -892h-351l307 1443h359l-191 -893h19l777 893h351l-307 -1443h-359z" />
    <glyph glyph-name="Iishortcyrillic" unicode="&#x419;" horiz-adv-x="1677" 
d="M1054 0l191 892h-19l-777 -892h-351l307 1443h359l-191 -893h19l777 893h351l-307 -1443h-359zM724 1931h250q-10 -68 22 -107.5t97 -39.5q63 0 110 39.5t63 107.5h251q-32 -159 -153.5 -245.5t-294.5 -86.5q-180 0 -278.5 96t-66.5 236z" />
    <glyph glyph-name="Kacyrillic" unicode="&#x41a;" horiz-adv-x="1524" 
d="M1677 1443l-699 -734l404 -709h-409l-335 572h-51l-122 -572h-367l307 1443h367l-126 -594h48l560 594h423z" />
    <glyph glyph-name="Elcyrillic" unicode="&#x41b;" horiz-adv-x="1586" 
d="M1322 0h-367l244 1148h-365l-148 -562q-32 -119 -66.5 -208.5t-84 -166t-110 -124.5t-143 -74.5t-184.5 -26.5q-82 0 -126 14l68 315q40 -8 72 -8q88 0 146.5 79.5t97.5 226.5l214 830h1059z" />
    <glyph glyph-name="Emcyrillic" unicode="&#x41c;" horiz-adv-x="1929" 
d="M429 0h-340l307 1443h425l159 -882h19l536 882h445l-307 -1443h-339l193 911h-18l-491 -800h-226l-151 800h-18z" />
    <glyph glyph-name="Encyrillic" unicode="&#x41d;" horiz-adv-x="1670" 
d="M1407 0h-368l123 582h-574l-124 -582h-366l307 1443h367l-120 -566h574l121 566h367z" />
    <glyph glyph-name="Ocyrillic" unicode="&#x41e;" horiz-adv-x="1643" 
d="M956 1169q-111 0 -205.5 -74.5t-149.5 -204t-55 -284.5q0 -152 76.5 -243.5t204.5 -91.5q170 0 290 163.5t120 401.5q0 152 -77 242.5t-204 90.5zM817 -39q-147 0 -269 47.5t-204 130.5t-127 196.5t-45 245.5q0 196 61.5 365t167.5 286t252.5 183.5t313.5 66.5
q149 0 271.5 -47.5t203 -130.5t124.5 -196.5t44 -245.5q0 -197 -61 -366t-167 -286t-252.5 -183t-312.5 -66z" />
    <glyph glyph-name="Pecyrillic" unicode="&#x41f;" horiz-adv-x="1657" 
d="M1393 0h-366l243 1148h-561l-244 -1148h-367l307 1443h1295z" />
    <glyph glyph-name="Ercyrillic" unicode="&#x420;" horiz-adv-x="1407" 
d="M396 1443h538q234 0 369 -118.5t135 -316.5q0 -269 -176.5 -427t-472.5 -158h-242l-90 -423h-366zM703 1161l-98 -461h183q127 0 204 76.5t77 198.5q0 92 -54.5 139t-156.5 47h-155z" />
    <glyph glyph-name="Escyrillic" unicode="&#x421;" horiz-adv-x="1579" 
d="M1222 908q1 3 1 19q-2 110 -76 178.5t-191 68.5q-116 0 -211 -75t-149.5 -208t-54.5 -296q0 -151 73.5 -239t199.5 -88q111 0 200 62.5t123 165.5h355q-44 -242 -237 -388.5t-469 -146.5q-282 0 -450.5 167t-168.5 446q0 263 103.5 470.5t288 322.5t418.5 115
q167 0 305.5 -68t217.5 -186.5t79 -261.5q0 -30 -4 -58h-353z" />
    <glyph glyph-name="Tecyrillic" unicode="&#x422;" horiz-adv-x="1380" 
d="M791 0h-367l243 1148h-415l63 295h1198l-63 -295h-415z" />
    <glyph glyph-name="Ucyrillic" unicode="&#x423;" horiz-adv-x="1477" 
d="M338 -15q-36 0 -69.5 3.5t-50 7.5t-17.5 5l61 290q27 -9 87 -9q120 0 193 81l-238 1080h384l115 -730h19l411 730h395l-667 -1040q-68 -105 -129 -177t-135.5 -129.5t-163 -84.5t-195.5 -27z" />
    <glyph glyph-name="Efcyrillic" unicode="&#x424;" horiz-adv-x="1954" 
d="M1068 -35h-363l32 155q-260 10 -411.5 150.5t-151.5 370.5q0 300 222.5 485.5t596.5 198.5l34 153h362l-32 -153q261 -10 412.5 -150.5t151.5 -373.5q0 -297 -223.5 -482.5t-597.5 -198.5zM550 655q0 -111 65.5 -176.5t185.5 -72.5l136 634q-170 -10 -278.5 -117
t-108.5 -268zM1545 782q0 116 -65.5 183t-186.5 74l-135 -633q170 10 278.5 115.5t108.5 260.5z" />
    <glyph glyph-name="Xacyrillic" unicode="&#x425;" horiz-adv-x="1549" 
d="M5 0l614 741l-303 702h411l191 -462h19l342 462h408l-628 -735l318 -708h-407l-196 446h-19l-352 -446h-398z" />
    <glyph glyph-name="Tsecyrillic" unicode="&#x426;" horiz-adv-x="1711" 
d="M1513 -285h-330l61 285h-1146l307 1443h367l-245 -1148h562l244 1148h368l-245 -1148h180z" />
    <glyph glyph-name="Checyrillic" unicode="&#x427;" horiz-adv-x="1573" 
d="M1309 0h-367l118 562h-19q-118 -84 -312 -84q-171 0 -286 76.5t-156.5 210.5t-5.5 303l79 375h367l-81 -378q-29 -132 24 -205.5t185 -73.5q92 0 164 29.5t112 78.5l118 549h367z" />
    <glyph glyph-name="Shacyrillic" unicode="&#x428;" horiz-adv-x="2163" 
d="M98 0l307 1443h367l-245 -1148h350l245 1148h367l-244 -1148h350l244 1148h368l-307 -1443h-1802z" />
    <glyph glyph-name="Shchacyrillic" unicode="&#x429;" horiz-adv-x="2218" 
d="M2019 -285h-330l61 285h-1652l307 1443h367l-244 -1148h350l244 1148h368l-245 -1148h350l245 1148h367l-245 -1148h180z" />
    <glyph glyph-name="Hardsigncyrillic" unicode="&#x42a;" horiz-adv-x="1680" 
d="M960 0h-615l245 1149h-338l63 294h705l-94 -438h170q240 0 374.5 -117t134.5 -327q0 -250 -176 -405.5t-469 -155.5zM1020 723h-153l-95 -445h188q122 0 200 70t78 180q0 95 -57.5 145t-160.5 50z" />
    <glyph glyph-name="Yericyrillic" unicode="&#x42b;" horiz-adv-x="2048" 
d="M773 723h-154l-95 -445h188q123 0 201 70t78 180q0 95 -57.5 145t-160.5 50zM98 0l307 1443h367l-93 -438h170q239 0 374 -117t135 -327q0 -250 -176 -405.5t-469 -155.5h-615zM1784 0h-367l307 1443h367z" />
    <glyph glyph-name="Softsigncyrillic" unicode="&#x42c;" horiz-adv-x="1433" 
d="M773 723h-154l-95 -445h188q123 0 201 70t78 180q0 95 -57.5 145t-160.5 50zM98 0l307 1443h367l-93 -438h170q239 0 374 -117t135 -327q0 -250 -176 -405.5t-469 -155.5h-615z" />
    <glyph glyph-name="Ereversedcyrillic" unicode="&#x42d;" horiz-adv-x="1569" 
d="M748 -39q-267 0 -432.5 150.5t-171.5 396.5h358q9 -111 80 -174.5t183 -63.5q133 0 233 87.5t136 234.5h-536l60 272h508q2 146 -72 229t-203 83q-113 0 -193 -65t-118 -183h-358q57 258 246.5 406t461.5 148q293 0 454.5 -188t141.5 -515q-9 -240 -108.5 -425.5
t-273.5 -289t-396 -103.5z" />
    <glyph glyph-name="IUcyrillic" unicode="&#x42e;" horiz-adv-x="2247" 
d="M1437 264q109 0 202.5 76t147.5 205t54 279q0 164 -73 259.5t-194 95.5q-109 0 -202.5 -75t-148 -204.5t-54.5 -280.5q0 -166 73 -260.5t195 -94.5zM651 877h182q72 274 274.5 439.5t478.5 165.5q287 0 456.5 -173.5t169.5 -469.5q0 -248 -100 -448.5t-280.5 -315
t-407.5 -114.5q-282 0 -450.5 165.5t-175.5 455.5h-210l-124 -582h-366l307 1443h367z" />
    <glyph glyph-name="IAcyrillic" unicode="&#x42f;" horiz-adv-x="1503" 
d="M856 755h177l86 410h-203q-123 0 -200.5 -65.5t-77.5 -167.5q0 -86 57.5 -131.5t160.5 -45.5zM852 496l-427 -496h-427l484 561q-102 51 -156.5 143t-54.5 215q0 229 180.5 376.5t471.5 147.5h623l-307 -1443h-367l105 496h-125z" />
    <glyph glyph-name="acyrillic" unicode="&#x430;" horiz-adv-x="1246" 
d="M559 229q78 0 139 45.5t76 113.5l18 83l-197 -6q-83 -3 -131 -37.5t-48 -90.5q0 -48 40 -78t103 -30zM400 -17q-140 0 -233.5 86.5t-93.5 216.5q0 171 134.5 271.5t370.5 107.5l257 7l14 67q5 30 5 35q0 48 -43 76.5t-114 28.5q-126 0 -167 -83h-324q34 157 174.5 250
t341.5 93q214 0 346 -92t132 -242q0 -47 -9 -90l-153 -715h-343l28 134h-19q-43 -69 -126 -110t-178 -41z" />
    <glyph glyph-name="becyrillic" unicode="&#x431;" horiz-adv-x="1340" 
d="M843 1067q203 0 315 -123t112 -330q0 -185 -77 -332t-222.5 -232t-335.5 -85q-203 0 -334.5 118t-157.5 321q-20 161 27 372q38 168 95 291.5t145 217t214.5 142.5t293.5 55l157 5q77 3 152.5 13t112.5 18l37 9l-56 -268q-93 -34 -279 -40l-146 -4q-180 -6 -278 -89.5
t-155 -253.5h19q129 195 361 195zM659 245q104 0 177.5 97t73.5 237q0 109 -47 171.5t-129 62.5q-109 0 -181 -100t-72 -245q0 -104 47 -163.5t131 -59.5z" />
    <glyph glyph-name="vecyrillic" unicode="&#x432;" horiz-adv-x="1285" 
d="M60 0l236 1113h591q163 0 253 -67t90 -185q0 -97 -79 -172.5t-188 -89.5l-4 -19q99 -11 157 -67t58 -143q0 -163 -137.5 -266.5t-360.5 -103.5h-616zM664 481h-155l-58 -271h161q92 0 149 44t57 112q0 115 -154 115zM743 903h-144l-51 -236h139q85 0 133.5 39t48.5 99
q0 98 -126 98z" />
    <glyph glyph-name="gecyrillic" unicode="&#x433;" horiz-adv-x="1031" 
d="M1039 851h-444l-181 -851h-354l236 1113h799z" />
    <glyph glyph-name="decyrillic" unicode="&#x434;" horiz-adv-x="1424" 
d="M840 262l126 590h-299l-84 -300q-48 -173 -129 -271l-3 -19h389zM216 -285h-321l117 547h82q112 53 185 316l148 535h947l-180 -851h160l-117 -547h-321l61 285h-700z" />
    <glyph glyph-name="iecyrillic" unicode="&#x435;" horiz-adv-x="1290" 
d="M486 681h423q3 18 3 36q0 74 -50 122t-131 48q-88 0 -155 -56.5t-90 -149.5zM639 -26q-234 0 -374.5 129.5t-140.5 352.5q0 305 171 494t445 189q216 0 355.5 -131t139.5 -342q0 -85 -20 -187h-765q-1 -4 -1 -21q0 -110 58.5 -169.5t153.5 -59.5q71 0 120 28t69 77h332
q-41 -165 -186.5 -262.5t-356.5 -97.5z" />
    <glyph glyph-name="zhecyrillic" unicode="&#x436;" horiz-adv-x="1841" 
d="M1958 1113l-452 -541l220 -572h-383l-168 450h-58l-96 -450h-347l96 450h-60l-351 -450h-411l503 624l-201 489h355l161 -427h54l91 427h347l-91 -427h53l343 427h395z" />
    <glyph glyph-name="zecyrillic" unicode="&#x437;" horiz-adv-x="1244" 
d="M1137 370q0 -108 -70.5 -199t-196 -144t-278.5 -53q-247 0 -379 115.5t-114 303.5h331q-1 -72 48 -110t124 -38q76 0 128 33t52 89q0 92 -138 92h-148l46 217h137q81 0 119 32.5t38 80.5q0 40 -37 64t-96 24q-148 0 -186 -135h-330q38 192 179.5 294.5t380.5 102.5
q184 0 316.5 -85t132.5 -215q0 -88 -60.5 -157t-149.5 -88l-4 -19q155 -46 155 -205z" />
    <glyph glyph-name="iicyrillic" unicode="&#x438;" horiz-adv-x="1375" 
d="M407 0h-347l236 1113h347l-134 -625h19l511 625h347l-237 -1113h-347l137 637h-20z" />
    <glyph glyph-name="iishortcyrillic" unicode="&#x439;" horiz-adv-x="1375" 
d="M407 0h-347l236 1113h347l-134 -625h19l511 625h347l-237 -1113h-347l137 637h-20zM519 1639h249q-14 -78 16.5 -126.5t95.5 -48.5q68 0 119.5 48.5t67.5 126.5h251q-35 -168 -155 -263.5t-311 -95.5q-176 0 -272 100.5t-61 258.5z" />
    <glyph glyph-name="kacyrillic" unicode="&#x43a;" horiz-adv-x="1251" 
d="M1373 1113l-499 -530l266 -583h-386l-192 444h-54l-94 -444h-354l236 1113h355l-90 -422h48l367 422h397z" />
    <glyph glyph-name="elcyrillic" unicode="&#x43b;" horiz-adv-x="1320" 
d="M595 534q-30 -113 -62.5 -196t-76 -152t-98 -111.5t-126.5 -65.5t-162 -23q-67 0 -107 14l63 294q28 -8 67 -8q126 0 198 278l144 549h896l-237 -1113h-354l180 851h-241z" />
    <glyph glyph-name="emcyrillic" unicode="&#x43c;" horiz-adv-x="1710" 
d="M387 0h-327l236 1113h466l98 -656h19l379 656h463l-236 -1113h-329l152 717h-18l-383 -642h-239l-110 642h-18z" />
    <glyph glyph-name="encyrillic" unicode="&#x43d;" horiz-adv-x="1361" 
d="M60 0l236 1113h355l-88 -415h366l88 415h355l-236 -1113h-355l92 436h-366l-93 -436h-354z" />
    <glyph glyph-name="ocyrillic" unicode="&#x43e;" horiz-adv-x="1349" 
d="M660 246q108 0 186 115t78 273q0 111 -43 173t-121 62q-111 0 -189 -115.5t-78 -279.5q0 -107 44.5 -167.5t122.5 -60.5zM776 1139q235 0 376 -136t141 -362q0 -141 -49.5 -264.5t-135 -212t-205.5 -139.5t-257 -51q-235 0 -377.5 136t-142.5 361q0 188 84.5 341
t233.5 240t332 87z" />
    <glyph glyph-name="pecyrillic" unicode="&#x43f;" horiz-adv-x="1351" 
d="M771 0l180 851h-356l-181 -851h-354l236 1113h1066l-236 -1113h-355z" />
    <glyph glyph-name="ercyrillic" unicode="&#x440;" horiz-adv-x="1379" 
d="M692 266q113 0 192.5 110t79.5 271q0 100 -50 154.5t-128 54.5q-112 0 -193 -113t-81 -266q0 -100 51 -155.5t129 -55.5zM326 -368h-354l315 1481h345l-33 -155h19q125 172 338 172q169 0 272 -114t103 -309q0 -206 -73 -372t-200 -259t-283 -93q-119 0 -200 59.5
t-108 157.5h-19z" />
    <glyph glyph-name="escyrillic" unicode="&#x441;" horiz-adv-x="1265" 
d="M752 1139q218 0 344.5 -112t137.5 -310h-327q-7 69 -50.5 109t-112.5 40q-116 0 -190 -109.5t-74 -272.5q0 -113 47 -174t137 -61q63 0 114 40t78 107h328q-53 -202 -194 -312t-353 -110q-244 0 -372.5 130.5t-128.5 370.5q0 191 75.5 341.5t216.5 236.5t324 86z" />
    <glyph glyph-name="tecyrillic" unicode="&#x442;" horiz-adv-x="1106" 
d="M1202 1113l-56 -262h-318l-181 -851h-354l180 851h-318l56 262h991z" />
    <glyph glyph-name="ucyrillic" unicode="&#x443;" horiz-adv-x="1258" 
d="M117 -407q-129 0 -141 3l57 268q12 -3 70 -3q176 0 215 99l12 33l-127 1120h363l30 -809h19l370 809h377l-600 -1123q-113 -215 -262.5 -306t-382.5 -91z" />
    <glyph glyph-name="efcyrillic" unicode="&#x444;" horiz-adv-x="1807" 
d="M918 -368h-351l74 350q-233 7 -371.5 134.5t-138.5 344.5q0 140 50.5 260.5t145 210.5t238 142.5t320.5 56.5l71 331h350l-71 -331q234 -7 372.5 -134t138.5 -344q0 -140 -50.5 -260.5t-145 -210.5t-238.5 -143t-321 -57zM1385 626q0 114 -55.5 179.5t-152.5 68.5
l-134 -635q82 4 149 39.5t108 91t63 121.5t22 135zM492 487q0 -114 55.5 -179.5t151.5 -68.5l134 635q-82 -4 -148.5 -39.5t-107.5 -91t-63 -121.5t-22 -135z" />
    <glyph glyph-name="hacyrillic" unicode="&#x445;" horiz-adv-x="1263" 
d="M631 334h-19l-245 -334h-379l452 554l-217 559h387l102 -342h19l235 342h389l-458 -559l223 -554h-374z" />
    <glyph glyph-name="tsecyrillic" unicode="&#x446;" horiz-adv-x="1415" 
d="M1227 -285h-321l61 285h-907l236 1113h355l-181 -851h357l180 851h355l-180 -851h162z" />
    <glyph glyph-name="checyrillic" unicode="&#x447;" horiz-adv-x="1324" 
d="M1099 0h-355l90 430h-19q-45 -43 -116 -69.5t-156 -26.5q-195 0 -288.5 125.5t-48.5 336.5l67 317h354l-63 -298q-20 -93 19 -142.5t129 -49.5q110 0 178 66l91 424h354z" />
    <glyph glyph-name="shacyrillic" unicode="&#x448;" horiz-adv-x="1881" 
d="M60 0l236 1113h355l-180 -851h266l180 851h355l-181 -851h266l181 851h355l-237 -1113h-1596z" />
    <glyph glyph-name="shchacyrillic" unicode="&#x449;" horiz-adv-x="1945" 
d="M1758 -285h-321l61 285h-1438l236 1113h355l-180 -851h266l180 851h355l-181 -851h266l181 851h355l-181 -851h163z" />
    <glyph glyph-name="hardsigncyrillic" unicode="&#x44a;" horiz-adv-x="1442" 
d="M833 0h-577l180 851h-281l56 262h636l-65 -307h188q179 0 287.5 -92t108.5 -242q0 -200 -152 -336t-381 -136zM879 548h-152l-60 -286h151q81 0 135.5 50.5t54.5 121.5q0 52 -34 83t-95 31z" />
    <glyph glyph-name="yericyrillic" unicode="&#x44b;" horiz-adv-x="1763" 
d="M1183 0l237 1113h354l-236 -1113h-355zM682 548h-151l-60 -286h151q81 0 135 50.5t54 121.5q0 52 -34 83t-95 31zM60 0l236 1113h355l-65 -307h187q179 0 287.5 -92t108.5 -242q0 -200 -151.5 -336t-381.5 -136h-576z" />
    <glyph glyph-name="softsigncyrillic" unicode="&#x44c;" horiz-adv-x="1245" 
d="M682 548h-151l-60 -286h151q81 0 135 50.5t54 121.5q0 52 -34 83t-95 31zM60 0l236 1113h355l-65 -307h187q179 0 287.5 -92t108.5 -242q0 -200 -151.5 -336t-381.5 -136h-576z" />
    <glyph glyph-name="ereversedcyrillic" unicode="&#x44d;" horiz-adv-x="1265" 
d="M156 716q51 203 193.5 313t361.5 110q234 0 365.5 -131.5t131.5 -359.5q0 -196 -76 -349t-218 -239t-327 -86q-221 0 -346 110.5t-134 310.5h327q5 -69 47.5 -108.5t113.5 -39.5q88 0 154 61t82 149h-358l45 217h345q0 92 -48 141t-131 49q-69 0 -122 -39.5t-81 -108.5
h-325z" />
    <glyph glyph-name="iucyrillic" unicode="&#x44e;" horiz-adv-x="1867" 
d="M1177 -35q-224 0 -358.5 121.5t-148.5 335.5v14h-163l-93 -436h-354l236 1113h355l-88 -415h137q62 201 221 320.5t378 119.5q236 0 372 -138t136 -375q0 -190 -77.5 -340t-221.5 -235t-331 -85zM1200 245q102 0 174.5 106t72.5 260q0 119 -46 188t-125 69
q-107 0 -178 -109t-71 -268q0 -114 46 -180t127 -66z" />
    <glyph glyph-name="iacyrillic" unicode="&#x44f;" horiz-adv-x="1277" 
d="M669 581h152l58 271h-151q-84 0 -136.5 -45.5t-52.5 -112.5q0 -52 34.5 -82.5t95.5 -30.5zM697 0l74 345h-74l-301 -345h-414l371 405q-81 42 -125.5 113.5t-44.5 165.5q0 86 35.5 163t101.5 136.5t168 94.5t226 35h575l-237 -1113h-355z" />
    <glyph glyph-name="uni0450" unicode="&#x450;" horiz-adv-x="1290" 
d="M486 681h423q3 18 3 36q0 74 -50 122t-131 48q-88 0 -155 -56.5t-90 -149.5zM639 -26q-234 0 -374.5 129.5t-140.5 352.5q0 305 171 494t445 189q216 0 355.5 -131t139.5 -342q0 -85 -20 -187h-765q-1 -4 -1 -21q0 -110 58.5 -169.5t153.5 -59.5q71 0 120 28t69 77h332
q-41 -165 -186.5 -262.5t-356.5 -97.5zM913 1288h-299l-214 359h344z" />
    <glyph glyph-name="iocyrillic" unicode="&#x451;" horiz-adv-x="1290" 
d="M486 681h423q3 18 3 36q0 74 -50 122t-131 48q-88 0 -155 -56.5t-90 -149.5zM639 -26q-234 0 -374.5 129.5t-140.5 352.5q0 305 171 494t445 189q216 0 355.5 -131t139.5 -342q0 -85 -20 -187h-765q-1 -4 -1 -21q0 -110 58.5 -169.5t153.5 -59.5q71 0 120 28t69 77h332
q-41 -165 -186.5 -262.5t-356.5 -97.5zM552 1260q-76 0 -124.5 46t-48.5 118t48.5 118t124.5 46t124.5 -46t48.5 -118t-48.5 -118t-124.5 -46zM1053 1260q-76 0 -124.5 46t-48.5 118t48.5 118t124.5 46t125 -46t49 -118t-49 -118t-125 -46z" />
    <glyph glyph-name="djecyrillic" unicode="&#x452;" horiz-adv-x="1366" 
d="M619 945h19q117 189 338 189q154 0 243.5 -87.5t89.5 -226.5q0 -62 -15 -134l-147 -700q-37 -177 -163 -270t-327 -93q-71 0 -115 6l56 254q16 -3 47 -3q68 0 103.5 27.5t48.5 89.5l133 634q9 45 9 76q0 70 -44.5 111t-116.5 41q-83 0 -141 -55t-77 -145l-140 -659h-353
l266 1249h-155l36 172h155l21 98h353l-21 -98h210l-37 -172h-210z" />
    <glyph glyph-name="gjecyrillic" unicode="&#x453;" horiz-adv-x="1031" 
d="M1039 851h-444l-181 -851h-354l236 1113h799zM890 1288h-319l322 359h364z" />
    <glyph glyph-name="ecyrillic" unicode="&#x454;" horiz-adv-x="1269" 
d="M1188 396q-52 -201 -192.5 -311.5t-353.5 -110.5q-244 0 -375 131t-131 370q0 191 77 342t219 236.5t324 85.5q218 0 345 -112t138 -310h-328q-6 68 -49.5 108.5t-112.5 40.5q-88 0 -152.5 -54t-82.5 -136h359l-45 -217h-347q0 -99 49 -154.5t139 -55.5q63 0 114 40
t77 107h328z" />
    <glyph glyph-name="dzecyrillic" unicode="&#x455;" horiz-adv-x="1201" 
d="M203 768q0 169 132.5 270t352.5 101q215 0 346 -93.5t136 -248.5h-318q-8 46 -52.5 74t-111.5 28q-65 0 -106.5 -26.5t-41.5 -69.5q0 -31 24.5 -53t82.5 -42l196 -69q133 -46 194 -115.5t61 -173.5q0 -170 -139 -273t-368 -103t-372 98t-145 257h335q8 -51 57.5 -83.5
t121.5 -32.5q73 0 115 26t42 71q0 30 -22 50.5t-79 40.5l-177 62q-135 47 -199.5 121.5t-64.5 183.5z" />
    <glyph glyph-name="icyrillic" unicode="&#x456;" horiz-adv-x="643" 
d="M62 0l236 1113h354l-237 -1113h-353zM537 1242q-92 0 -146 42t-54 109q0 71 54 117.5t146 46.5t145.5 -42t53.5 -109q0 -72 -53.5 -118t-145.5 -46z" />
    <glyph glyph-name="yicyrillic" unicode="&#x457;" horiz-adv-x="654" 
d="M319 1243q-76 0 -124.5 46t-48.5 117q0 72 48.5 118t124.5 46t124.5 -46t48.5 -118q0 -71 -48.5 -117t-124.5 -46zM776 1243q-76 0 -124 46t-48 117q0 72 48 118t124 46t125 -46t49 -118q0 -71 -49 -117t-125 -46zM62 0l236 1113h354l-237 -1113h-353z" />
    <glyph glyph-name="jecyrillic" unicode="&#x458;" horiz-adv-x="643" 
d="M536 1242q-91 0 -145 42t-54 109q0 71 54 117.5t145 46.5q92 0 146 -42t54 -109q0 -71 -54 -117.5t-146 -46.5zM652 1113l-246 -1161q-35 -164 -147 -247t-289 -83q-87 0 -166 15l57 255q24 -7 69 -7q107 0 129 103l239 1125h354z" />
    <glyph glyph-name="ljecyrillic" unicode="&#x459;" horiz-adv-x="1922" 
d="M70 -14q-67 0 -107 14l63 294q28 -8 67 -8q125 0 196 267l146 560h896l-66 -307h186q179 0 287 -92t108 -242q0 -200 -151.5 -336t-381.5 -136h-574l181 851h-241l-85 -318q-38 -145 -80 -241.5t-103 -168t-144 -104.5t-197 -33zM1359 548h-148l-60 -286h148
q81 0 135.5 50.5t54.5 121.5q0 52 -34.5 83t-95.5 31z" />
    <glyph glyph-name="njecyrillic" unicode="&#x45a;" horiz-adv-x="1973" 
d="M1193 256h149q85 0 137 38.5t52 97.5q0 44 -33.5 69t-93.5 25h-162zM414 0h-354l236 1113h355l-81 -379h370l80 379h355l-79 -375h172q196 0 308.5 -87.5t112.5 -229.5q0 -176 -148.5 -298.5t-383.5 -122.5h-573l102 478h-370z" />
    <glyph glyph-name="tshecyrillic" unicode="&#x45b;" horiz-adv-x="1351" 
d="M611 945h19q117 189 338 189q154 0 243.5 -87.5t89.5 -226.5q0 -62 -15 -134l-144 -686h-352l132 631q9 45 9 76q0 70 -44.5 111t-116.5 41q-83 0 -141 -55t-77 -145l-140 -659h-353l266 1249h-155l36 172h155l21 98h353l-21 -98h210l-37 -172h-210z" />
    <glyph glyph-name="kjecyrillic" unicode="&#x45c;" horiz-adv-x="1251" 
d="M1367 1647l-367 -359h-319l322 359h364zM1373 1113l-499 -530l266 -583h-386l-192 444h-54l-94 -444h-354l236 1113h355l-90 -422h48l367 422h397z" />
    <glyph glyph-name="uni045D" unicode="&#x45d;" horiz-adv-x="1375" 
d="M407 0h-347l236 1113h347l-134 -625h19l511 625h347l-237 -1113h-347l137 637h-20zM1010 1288h-299l-214 359h344z" />
    <glyph glyph-name="ushortcyrillic" unicode="&#x45e;" horiz-adv-x="1258" 
d="M117 -407q-129 0 -141 3l57 268q12 -3 70 -3q176 0 215 99l12 33l-127 1120h363l30 -809h19l370 809h377l-600 -1123q-113 -215 -262.5 -306t-382.5 -91zM477 1639h249q-14 -78 16.5 -126.5t95.5 -48.5q68 0 119.5 48.5t67.5 126.5h251q-35 -168 -155 -263.5t-311 -95.5
q-176 0 -272 100.5t-61 258.5z" />
    <glyph glyph-name="dzhecyrillic" unicode="&#x45f;" horiz-adv-x="1362" 
d="M1137 0h-378l-61 -285h-321l61 285h-378l236 1113h355l-181 -851h368l181 851h355z" />
    <glyph glyph-name="uni0462" unicode="&#x462;" horiz-adv-x="1623" 
d="M710 278h188q123 0 201 63.5t78 162.5q0 87 -57.5 133t-161.5 46h-161zM855 959h179q240 0 375 -111.5t135 -311.5q0 -238 -176.5 -387t-468.5 -149h-615l241 1131h-363l52 249h364l32 150h367l-32 -150h397l-52 -249h-398z" />
    <glyph glyph-name="uni0463" unicode="&#x463;" horiz-adv-x="1928" 
d="M835 272q-4 83 18 187l34 160q8 36 8 76q0 71 -37 113t-101 42q-76 0 -132 -55t-76 -148l-139 -647h-353l238 1113h344l-39 -181h19q58 96 144.5 147t192.5 51q140 0 224.5 -88t84.5 -234v-27h166q200 0 308 -86t108 -245q0 -213 -156.5 -345t-403.5 -132
q-441 0 -452 299zM1188 351q0 -60 36.5 -86.5t87.5 -26.5q78 0 127.5 49.5t49.5 127.5q0 111 -142 111h-128l-26 -120q-5 -24 -5 -55z" />
    </font>
</defs>
</svg>
